<?xml version="1.0" encoding="UTF-8" standalone="no"?>
<!-- Created with Inkscape (http://www.inkscape.org/) -->

<svg
   xmlns:dc="http://purl.org/dc/elements/1.1/"
   xmlns:cc="http://creativecommons.org/ns#"
   xmlns:rdf="http://www.w3.org/1999/02/22-rdf-syntax-ns#"
   xmlns:svg="http://www.w3.org/2000/svg"
   xmlns="http://www.w3.org/2000/svg"
   xmlns:sodipodi="http://sodipodi.sourceforge.net/DTD/sodipodi-0.dtd"
   xmlns:inkscape="http://www.inkscape.org/namespaces/inkscape"
   inkscape:export-ydpi="24.242424"
   inkscape:export-xdpi="24.242424"
   inkscape:export-filename="/home/bc/svgs/bananicorn_logo.png"
   inkscape:version="0.92.2 2405546, 2018-03-11"
   sodipodi:docname="bananicorn.svg"
   viewBox="0 0 476.06805 470.25491"
   height="470.25491"
   width="476.06805"
   id="svg2"
   version="1.1">
  <metadata
     id="metadata8">
    <rdf:RDF>
      <cc:Work
         rdf:about="">
        <dc:format>image/svg+xml</dc:format>
        <dc:type
           rdf:resource="http://purl.org/dc/dcmitype/StillImage" />
        <dc:title></dc:title>
      </cc:Work>
    </rdf:RDF>
  </metadata>
  <sodipodi:namedview
     fit-margin-bottom="-28"
     fit-margin-right="-25"
     fit-margin-left="0"
     fit-margin-top="0"
     inkscape:current-layer="svg2"
     inkscape:window-maximized="0"
     inkscape:window-y="18"
     inkscape:window-x="0"
     inkscape:cy="275.43057"
     inkscape:cx="295.16486"
     inkscape:zoom="1.4142136"
     showgrid="false"
     id="namedview4"
     inkscape:window-height="1031"
     inkscape:window-width="1678"
     inkscape:pageshadow="2"
     inkscape:pageopacity="0"
     guidetolerance="10"
     gridtolerance="10"
     objecttolerance="10"
     borderopacity="1"
     bordercolor="#666666"
     pagecolor="#ffffff"
     borderlayer="true" />
  <path
     inkscape:connector-curvature="0"
     id="path952"
     d="M 166.23807,181.69344 185.37079,159.49434 198.49764,178.15884 195.48166,184.47804 185.27464,194.36214 180.4617,197.77234 Z"
     style="fill:#f9f2f2;fill-opacity:1;stroke:#000000;stroke-width:0.183671px;stroke-linecap:butt;stroke-linejoin:miter;stroke-opacity:1" />
  <path
     sodipodi:nodetypes="ccccccccccccccccccccccccccccccccc"
     inkscape:connector-curvature="0"
     id="path954"
     d="M 237.23057,132.68714 C 215.93241,161.85414 218.5729,188.95184 218.5729,188.95184 L 224.10348,199.41104 219.15081,208.00664 216.12023,202.31284 C 214.54649,225.07984 187.62164,224.81544 178.28402,232.89404 177.44469,231.53014 178.65101,219.16824 178.65101,219.16824 178.65101,219.16824 169.05169,229.50864 159.81899,226.57104 156.14689,224.89234 154.47791,208.58144 150.59598,208.05684 150.59598,208.05684 138.30301,211.61394 128.12606,236.89894 90.106429,260.69744 116.58836,279.63684 96.043901,316.05574 96.043901,322.03004 68.417617,339.63594 64.521365,352.88324 L 46.086465,367.42374 C 46.086465,367.42374 35.43758,390.69634 31.281579,395.24194 30.669569,399.50544 35.355643,412.35574 35.343864,412.36284 38.850489,422.23334 67.573821,440.64654 67.573821,443.11414 L 76.527065,445.05954 C 92.761441,461.68354 108.08475,449.06514 108.08475,449.06514 L 118.72547,424.94144 C 139.76523,404.55104 160.85551,414.73694 193.06451,374.21594 201.66771,374.84544 221.08181,373.23734 221.08181,373.23734 221.07906,373.25724 249.7595,358.99544 266.7568,335.80364 327.35215,385.06314 302.2423,423.53494 279.57425,473.69854 279.57425,473.69854 666.04891,592.53784 411.64663,307.35324 411.64663,307.35324 383.71336,254.87224 371.90518,247.09124 L 369.3076,254.10484 360.21623,243.45474 C 362.83917,249.64484 358.39818,263.19584 358.39818,263.19584 358.39818,263.19584 325.76503,223.14954 321.25359,222.41514 317.47002,229.38874 323.33173,239.81824 323.33173,239.81824 261.21075,225.22694 266.59541,183.62054 249.62047,180.93484 L 249.27502,182.79524 C 250.21762,168.69284 248.46385,149.96914 237.23057,132.68714 Z"
     style="fill:#ffffff;fill-opacity:1;stroke:none;stroke-width:0.183671px;stroke-linecap:butt;stroke-linejoin:miter;stroke-opacity:1" />
  <path
     sodipodi:nodetypes="ccccccccccccccc"
     inkscape:connector-curvature="0"
     id="path956"
     d="M 129.68225,411.60274 C 120.60286,416.62744 116.29248,427.44894 113.13642,435.12154 111.63546,438.81694 110.54314,442.06734 109.66246,444.45754 109.22212,445.65274 108.83268,446.63434 108.48761,447.32744 108.14254,448.02054 107.78984,448.39024 107.74252,448.41514 107.68124,448.44744 107.62484,448.48824 107.57499,448.53634 107.57499,448.53634 105.67317,451.15104 100.18389,452.30044 94.694601,453.44984 87.126391,452.55694 78.516809,443.91144 77.825863,443.18874 75.286686,444.88394 76.006545,445.57784 84.888485,454.49684 93.099361,455.60714 99.016001,454.36824 104.8841,453.13954 108.6091,450.05054 108.6091,450.05054 109.15459,449.69954 110.02627,448.70594 110.38663,447.98214 110.78019,447.19154 111.17778,446.10534 111.62462,444.89264 112.51829,442.46704 113.52701,439.39454 115.00842,435.74734 118.45384,427.45494 121.68911,417.41134 129.68225,411.60274 Z"
     style="color:#000000;font-style:normal;font-variant:normal;font-weight:normal;font-stretch:normal;font-size:medium;line-height:normal;font-family:sans-serif;font-variant-ligatures:normal;font-variant-position:normal;font-variant-caps:normal;font-variant-numeric:normal;font-variant-alternates:normal;font-feature-settings:normal;text-indent:0;text-align:start;text-decoration:none;text-decoration-line:none;text-decoration-style:solid;text-decoration-color:#000000;letter-spacing:normal;word-spacing:normal;text-transform:none;writing-mode:lr-tb;direction:ltr;text-orientation:mixed;dominant-baseline:auto;baseline-shift:baseline;text-anchor:start;white-space:normal;shape-padding:0;clip-rule:nonzero;display:inline;overflow:visible;visibility:visible;opacity:1;isolation:auto;mix-blend-mode:normal;color-interpolation:sRGB;color-interpolation-filters:linearRGB;solid-color:#000000;solid-opacity:1;vector-effect:none;fill:#000000;fill-opacity:1;fill-rule:nonzero;stroke:none;stroke-width:1.46936798;stroke-linecap:round;stroke-linejoin:round;stroke-miterlimit:4;stroke-dasharray:none;stroke-dashoffset:0;stroke-opacity:1;color-rendering:auto;image-rendering:auto;shape-rendering:auto;text-rendering:auto;enable-background:accumulate" />
  <path
     sodipodi:nodetypes="cccscccsccccccscccccsccccccsccscccssccsccsccccsccccccccsscccscscccccccc"
     inkscape:connector-curvature="0"
     id="path958"
     d="M 150.61894,207.31894 C 150.52808,207.31714 150.43771,207.33254 150.3524,207.36374 142.91284,209.97764 137.50336,217.19404 133.51888,223.91994 131.52664,227.28294 129.89306,230.53774 128.57304,233.05364 127.91302,234.31164 127.3303,235.38564 126.83247,236.18214 126.33463,236.97874 125.8721,237.49324 125.71286,237.59274 L 125.72219,237.58734 C 109.93367,247.13844 105.51412,257.89214 104.59106,267.92034 103.66801,277.94854 106.03259,287.23804 103.8205,294.05864 L 103.81011,294.09064 103.80258,294.12364 C 102.47096,300.02074 100.33843,304.52504 98.542488,308.01944 96.786332,311.43654 95.269276,313.80714 95.31569,315.94924 94.887694,318.45604 93.387785,320.62954 91.130358,322.84514 88.868117,325.06554 85.86771,327.29594 82.610463,329.87564 76.095968,335.03494 68.54815,341.62184 63.845888,352.59374 L 63.815755,352.66404 63.800694,352.73904 C 63.792447,352.78024 63.647808,353.07324 63.305642,353.42714 62.963477,353.78104 62.454652,354.21104 61.827307,354.68624 60.572615,355.63684 58.844322,356.77624 56.938859,358.04364 53.127934,360.57844 48.605096,363.61904 45.547312,366.92474 L 45.459781,367.01944 45.409558,367.13784 C 40.587438,378.56414 35.350344,388.71684 31.344736,394.04244 L 31.335773,394.05454 31.327159,394.06704 C 30.457389,395.32824 30.383013,397.08474 30.58279,399.02254 30.782567,400.96044 31.305758,403.10494 31.910818,405.11884 33.11488,409.12664 34.646893,412.60194 34.662296,412.63684 36.682712,419.17774 43.272513,424.20584 50.051198,428.99434 56.85097,433.79764 63.887952,438.38714 66.943549,443.49144 L 67.069464,443.70234 67.297261,443.79494 C 73.620862,446.36564 79.014831,445.50104 83.613128,442.63474 88.211426,439.76844 92.063581,434.98334 95.712814,429.69884 103.01128,419.12994 109.58305,406.57534 118.49196,402.95604 119.4085,402.59114 118.85015,401.21694 117.9388,401.59464 108.19009,405.55514 101.03201,417.95224 93.814383,428.40404 90.205566,433.62994 87.235001,437.22324 82.950673,439.89384 78.712716,442.53554 74.636987,443.85074 68.770447,441.52404 65.352995,436.02544 58.134405,431.12224 51.467695,426.41294 44.703362,421.63464 38.757683,417.46634 36.965982,411.57434 L 36.953419,411.53204 36.935474,411.49154 C 36.935474,411.49154 35.415352,408.04364 34.237088,404.12174 33.647956,402.16074 33.14766,400.08284 32.963589,398.29734 32.779517,396.51184 32.961109,395.04434 33.456128,394.32654 V 394.32654 C 37.612047,388.80104 41.871787,379.27554 46.703851,367.84334 49.575422,364.76894 53.980812,361.77544 57.752452,359.26674 59.654446,358.00164 61.393514,356.85814 62.714438,355.85734 63.3749,355.35704 63.930777,354.89404 64.361737,354.44824 64.792699,354.00254 65.129324,353.58924 65.241708,353.02734 L 65.196509,353.17264 C 69.758739,342.52744 77.052151,336.15154 83.522713,331.02704 86.757995,328.46474 89.786344,326.22284 92.159555,323.89364 94.532764,321.56434 96.272283,319.11554 96.768189,316.17794 L 96.781818,316.09694 96.77752,316.01474 C 96.705638,314.72094 98.034873,312.22144 99.849346,308.69084 101.66175,305.16434 103.85982,300.52654 105.23069,294.46714 107.6268,287.01254 105.52959,277.74264 106.42132,268.05474 107.31481,258.34764 111.73827,250.04484 127.2174,240.68094 127.22179,239.87104 127.22114,239.85764 127.22636,240.67544 127.83916,240.29244 128.27482,239.65924 128.81339,238.79744 129.35196,237.93574 129.94366,236.84064 130.60885,235.57284 131.93922,233.03714 133.55828,229.81374 135.5181,226.50554 139.43773,219.88904 145.46573,212.25604 152.30893,209.85174 153.09019,209.58874 151.44315,207.33424 150.61894,207.31874 Z"
     style="color:#000000;font-style:normal;font-variant:normal;font-weight:normal;font-stretch:normal;font-size:medium;line-height:normal;font-family:sans-serif;font-variant-ligatures:normal;font-variant-position:normal;font-variant-caps:normal;font-variant-numeric:normal;font-variant-alternates:normal;font-feature-settings:normal;text-indent:0;text-align:start;text-decoration:none;text-decoration-line:none;text-decoration-style:solid;text-decoration-color:#000000;letter-spacing:normal;word-spacing:normal;text-transform:none;writing-mode:lr-tb;direction:ltr;text-orientation:mixed;dominant-baseline:auto;baseline-shift:baseline;text-anchor:start;white-space:normal;shape-padding:0;clip-rule:nonzero;display:inline;overflow:visible;visibility:visible;opacity:1;isolation:auto;mix-blend-mode:normal;color-interpolation:sRGB;color-interpolation-filters:linearRGB;solid-color:#000000;solid-opacity:1;vector-effect:none;fill:#000000;fill-opacity:1;fill-rule:nonzero;stroke:none;stroke-width:1.46936798;stroke-linecap:round;stroke-linejoin:miter;stroke-miterlimit:4;stroke-dasharray:none;stroke-dashoffset:0;stroke-opacity:1;color-rendering:auto;image-rendering:auto;shape-rendering:auto;text-rendering:auto;enable-background:accumulate" />
  <path
     sodipodi:nodetypes="cc"
     inkscape:connector-curvature="0"
     id="path960"
     d="M 118.72545,424.94144 C 151.3763,396.80924 152.68815,421.73464 193.06438,374.21604"
     style="fill:none;fill-opacity:1;stroke:#000000;stroke-width:1.46936798;stroke-linecap:round;stroke-linejoin:miter;stroke-miterlimit:4;stroke-dasharray:none;stroke-opacity:1" />
  <path
     sodipodi:nodetypes="ccccc"
     inkscape:connector-curvature="0"
     id="path962"
     d="M 170.83855,370.42624 C 172.18159,372.35144 211.23839,378.43324 222.6164,373.57944 274.11827,347.82974 284.84867,310.98334 281.03509,274.80594 282.50446,335.96834 248.67094,354.96054 223.15213,370.90084 214.25015,377.17984 170.83855,370.42624 170.83855,370.42624 Z"
     style="fill:#000000;fill-opacity:1;stroke:none;stroke-width:1.46936798;stroke-linecap:round;stroke-linejoin:miter;stroke-miterlimit:14.5;stroke-dasharray:none;stroke-opacity:1" />
  <path
     sodipodi:nodetypes="ccccccccccscccccc"
     inkscape:connector-curvature="0"
     id="path964"
     d="M 207.30763,251.81844 C 201.46645,256.31584 192.46302,257.02434 186.60015,259.02694 184.20777,259.90004 182.17449,261.61204 180.58063,265.26824 179.00559,268.88124 177.75761,274.43564 176.63063,283.24754 175.1121,284.48544 174.77652,286.12444 175.48125,287.19104 175.85394,287.75514 176.53934,288.11274 177.25948,288.04194 177.87159,287.98184 178.45899,287.63224 178.97602,287.05904 214.21961,289.27524 204.28943,262.73374 208.83151,256.50404 200.01519,258.04524 215.85207,286.64244 178.7084,285.57644 178.45911,285.55914 178.21816,285.66984 178.06878,285.87024 177.66472,286.41254 177.31346,286.56034 177.11563,286.57974 176.9178,286.59924 176.81105,286.53844 176.70704,286.38104 176.49902,286.06624 176.40678,285.18624 177.74593,284.22654 177.9121,284.10744 178.02116,283.92454 178.0469,283.72174 179.1769,274.78444 180.44232,269.26234 181.92767,265.85504 183.41301,262.44784 185.01265,261.17054 187.10382,260.40734 193.95111,258.35024 205.26746,255.97024 207.30763,251.81844 Z"
     style="color:#000000;font-style:normal;font-variant:normal;font-weight:normal;font-stretch:normal;font-size:medium;line-height:normal;font-family:sans-serif;font-variant-ligatures:normal;font-variant-position:normal;font-variant-caps:normal;font-variant-numeric:normal;font-variant-alternates:normal;font-feature-settings:normal;text-indent:0;text-align:start;text-decoration:none;text-decoration-line:none;text-decoration-style:solid;text-decoration-color:#000000;letter-spacing:normal;word-spacing:normal;text-transform:none;writing-mode:lr-tb;direction:ltr;text-orientation:mixed;dominant-baseline:auto;baseline-shift:baseline;text-anchor:start;white-space:normal;shape-padding:0;clip-rule:nonzero;display:inline;overflow:visible;visibility:visible;opacity:1;isolation:auto;mix-blend-mode:normal;color-interpolation:sRGB;color-interpolation-filters:linearRGB;solid-color:#000000;solid-opacity:1;vector-effect:none;fill:#000000;fill-opacity:1;fill-rule:nonzero;stroke:none;stroke-width:1.46936798;stroke-linecap:round;stroke-linejoin:round;stroke-miterlimit:4;stroke-dasharray:none;stroke-dashoffset:0;stroke-opacity:1;color-rendering:auto;image-rendering:auto;shape-rendering:auto;text-rendering:auto;enable-background:accumulate" />
  <path
     sodipodi:nodetypes="cc"
     inkscape:connector-curvature="0"
     id="path967"
     d="M 178.92544,273.63984 C 182.13223,261.83304 198.17695,268.08984 207.3428,258.29724"
     style="fill:none;fill-opacity:1;stroke:#000000;stroke-width:1.46936798;stroke-linecap:butt;stroke-linejoin:miter;stroke-miterlimit:4;stroke-dasharray:none;stroke-opacity:1" />
  <path
     sodipodi:nodetypes="sssccs"
     inkscape:connector-curvature="0"
     id="path969"
     d="M 198.89087,269.80304 C 198.89087,273.85884 195.60297,277.14674 191.54715,277.14674 187.49132,277.14674 184.20343,273.85884 184.20343,269.80304 184.20343,267.77514 184.19755,268.01344 185.10019,266.84314 186.72362,265.41454 196.1835,264.16154 196.1835,264.16154 197.63724,264.54164 198.89087,265.74724 198.89087,269.80304 Z"
     style="fill:#ff0000;fill-opacity:1;fill-rule:nonzero;stroke:#000000;stroke-width:1.46936798;stroke-linecap:round;stroke-linejoin:round;stroke-miterlimit:4;stroke-dasharray:none;stroke-opacity:1" />
  <path
     sodipodi:nodetypes="ccscc"
     inkscape:connector-curvature="0"
     id="path971"
     d="M 92.314498,361.72324 C 75.852604,371.08094 76.758145,376.53464 76.758145,376.53464 81.754971,369.32534 88.857762,365.31904 94.498482,361.86764 100.1392,358.41624 104.32979,355.05574 106.22296,350.82394 102.694,354.30594 97.472974,358.78934 92.314498,361.72324 Z"
     style="color:#000000;font-style:normal;font-variant:normal;font-weight:normal;font-stretch:normal;font-size:medium;line-height:normal;font-family:sans-serif;font-variant-ligatures:normal;font-variant-position:normal;font-variant-caps:normal;font-variant-numeric:normal;font-variant-alternates:normal;font-feature-settings:normal;text-indent:0;text-align:start;text-decoration:none;text-decoration-line:none;text-decoration-style:solid;text-decoration-color:#000000;letter-spacing:normal;word-spacing:normal;text-transform:none;writing-mode:lr-tb;direction:ltr;text-orientation:mixed;dominant-baseline:auto;baseline-shift:baseline;text-anchor:start;white-space:normal;shape-padding:0;clip-rule:nonzero;display:inline;overflow:visible;visibility:visible;opacity:1;isolation:auto;mix-blend-mode:normal;color-interpolation:sRGB;color-interpolation-filters:linearRGB;solid-color:#000000;solid-opacity:1;vector-effect:none;fill:#000000;fill-opacity:1;fill-rule:nonzero;stroke:none;stroke-width:1.46936798;stroke-linecap:round;stroke-linejoin:miter;stroke-miterlimit:4;stroke-dasharray:none;stroke-dashoffset:0;stroke-opacity:1;color-rendering:auto;image-rendering:auto;shape-rendering:auto;text-rendering:auto;enable-background:accumulate" />
  <path
     sodipodi:nodetypes="cscccccccsccc"
     inkscape:connector-curvature="0"
     id="path973"
     d="M 62.572014,394.79144 C 61.592557,394.79144 60.618138,395.09894 59.753812,395.75924 58.601377,396.63984 56.600834,399.37254 55.99358,401.56534 58.403676,399.08134 59.548693,397.79264 60.645981,396.92654 61.48924,396.28234 62.305198,396.13654 63.253964,396.33104 65.151498,396.72024 67.512697,398.76004 69.661285,401.52374 71.809872,404.28754 73.782201,407.72314 75.185047,410.72634 76.601567,413.04534 77.86164,415.50524 78.262612,418.50294 78.313307,417.71714 78.60978,415.52464 78.214184,414.30754 77.818586,413.09044 77.238343,411.65004 76.516303,410.10424 75.072221,407.01274 73.063577,403.50644 70.821066,400.62194 68.578555,397.73734 66.138423,395.42244 63.549202,394.89154 63.225548,394.82514 62.8985,394.79134 62.572014,394.79144 Z"
     style="color:#000000;font-style:normal;font-variant:normal;font-weight:normal;font-stretch:normal;font-size:medium;line-height:normal;font-family:sans-serif;font-variant-ligatures:normal;font-variant-position:normal;font-variant-caps:normal;font-variant-numeric:normal;font-variant-alternates:normal;font-feature-settings:normal;text-indent:0;text-align:start;text-decoration:none;text-decoration-line:none;text-decoration-style:solid;text-decoration-color:#000000;letter-spacing:normal;word-spacing:normal;text-transform:none;writing-mode:lr-tb;direction:ltr;text-orientation:mixed;dominant-baseline:auto;baseline-shift:baseline;text-anchor:start;white-space:normal;shape-padding:0;clip-rule:nonzero;display:inline;overflow:visible;visibility:visible;opacity:1;isolation:auto;mix-blend-mode:normal;color-interpolation:sRGB;color-interpolation-filters:linearRGB;solid-color:#000000;solid-opacity:1;vector-effect:none;fill:#000000;fill-opacity:1;fill-rule:nonzero;stroke:none;stroke-width:1.46936798;stroke-linecap:round;stroke-linejoin:miter;stroke-miterlimit:4;stroke-dasharray:none;stroke-dashoffset:0;stroke-opacity:1;color-rendering:auto;image-rendering:auto;shape-rendering:auto;text-rendering:auto;enable-background:accumulate" />
  <path
     inkscape:connector-curvature="0"
     id="path975"
     d="M 53.823016,406.20394 C 52.133287,408.29904 50.769146,411.24034 51.861504,413.91144 53.271812,416.41354 56.35709,416.99624 58.926541,417.58494 62.490205,418.33514 65.862623,419.88744 68.770548,422.07694 66.370556,418.34214 61.82745,417.08814 57.820122,415.89394 55.883755,415.29854 53.413494,414.68444 52.883991,412.39634 52.190209,410.27944 53.416628,408.24144 53.823016,406.20394 Z"
     style="color:#000000;font-style:normal;font-variant:normal;font-weight:normal;font-stretch:normal;font-size:medium;line-height:normal;font-family:sans-serif;font-variant-ligatures:normal;font-variant-position:normal;font-variant-caps:normal;font-variant-numeric:normal;font-variant-alternates:normal;font-feature-settings:normal;text-indent:0;text-align:start;text-decoration:none;text-decoration-line:none;text-decoration-style:solid;text-decoration-color:#000000;letter-spacing:normal;word-spacing:normal;text-transform:none;writing-mode:lr-tb;direction:ltr;text-orientation:mixed;dominant-baseline:auto;baseline-shift:baseline;text-anchor:start;white-space:normal;shape-padding:0;clip-rule:nonzero;display:inline;overflow:visible;visibility:visible;opacity:1;isolation:auto;mix-blend-mode:normal;color-interpolation:sRGB;color-interpolation-filters:linearRGB;solid-color:#000000;solid-opacity:1;vector-effect:none;fill:#000000;fill-opacity:1;fill-rule:nonzero;stroke:none;stroke-width:1.46936798;stroke-linecap:round;stroke-linejoin:miter;stroke-miterlimit:4;stroke-dasharray:none;stroke-dashoffset:0;stroke-opacity:1;color-rendering:auto;image-rendering:auto;shape-rendering:auto;text-rendering:auto;enable-background:accumulate" />
  <path
     sodipodi:nodetypes="cccc"
     inkscape:connector-curvature="0"
     id="path977"
     d="M 82.799135,423.38944 C 82.799135,423.38944 84.232089,422.94614 84.297026,418.79014 84.297026,418.79014 83.943586,408.64204 76.59343,401.90434 81.66732,409.01304 84.226099,417.07004 82.799135,423.38944 Z"
     style="color:#000000;font-style:normal;font-variant:normal;font-weight:normal;font-stretch:normal;font-size:medium;line-height:normal;font-family:sans-serif;font-variant-ligatures:normal;font-variant-position:normal;font-variant-caps:normal;font-variant-numeric:normal;font-variant-alternates:normal;font-feature-settings:normal;text-indent:0;text-align:start;text-decoration:none;text-decoration-line:none;text-decoration-style:solid;text-decoration-color:#000000;letter-spacing:normal;word-spacing:normal;text-transform:none;writing-mode:lr-tb;direction:ltr;text-orientation:mixed;dominant-baseline:auto;baseline-shift:baseline;text-anchor:start;white-space:normal;shape-padding:0;clip-rule:nonzero;display:inline;overflow:visible;visibility:visible;opacity:1;isolation:auto;mix-blend-mode:normal;color-interpolation:sRGB;color-interpolation-filters:linearRGB;solid-color:#000000;solid-opacity:1;vector-effect:none;fill:#000000;fill-opacity:1;fill-rule:nonzero;stroke:none;stroke-width:1.46936798;stroke-linecap:round;stroke-linejoin:miter;stroke-miterlimit:4;stroke-dasharray:none;stroke-dashoffset:0;stroke-opacity:1;color-rendering:auto;image-rendering:auto;shape-rendering:auto;text-rendering:auto;enable-background:accumulate" />
  <path
     sodipodi:nodetypes="ccccccc"
     inkscape:connector-curvature="0"
     id="path979"
     d="M 249.59069,180.19014 C 249.21382,180.20574 248.90995,180.50414 248.88758,180.88074 247.25566,202.98554 262.24067,220.34244 262.24067,220.34244 262.95891,221.11614 265.17323,222.67044 266.42478,222.59164 265.51275,222.03204 264.78205,221.20754 264.46446,220.83454 264.46446,220.83454 248.77811,202.32114 250.353,180.98874 250.39187,180.54704 250.03367,180.17184 249.59069,180.19014 Z"
     style="color:#000000;font-style:normal;font-variant:normal;font-weight:normal;font-stretch:normal;font-size:medium;line-height:normal;font-family:sans-serif;font-variant-ligatures:normal;font-variant-position:normal;font-variant-caps:normal;font-variant-numeric:normal;font-variant-alternates:normal;font-feature-settings:normal;text-indent:0;text-align:start;text-decoration:none;text-decoration-line:none;text-decoration-style:solid;text-decoration-color:#000000;letter-spacing:normal;word-spacing:normal;text-transform:none;writing-mode:lr-tb;direction:ltr;text-orientation:mixed;dominant-baseline:auto;baseline-shift:baseline;text-anchor:start;white-space:normal;shape-padding:0;clip-rule:nonzero;display:inline;overflow:visible;visibility:visible;opacity:1;isolation:auto;mix-blend-mode:normal;color-interpolation:sRGB;color-interpolation-filters:linearRGB;solid-color:#000000;solid-opacity:1;vector-effect:none;fill:#000000;fill-opacity:1;fill-rule:nonzero;stroke:none;stroke-width:1.46936798;stroke-linecap:round;stroke-linejoin:miter;stroke-miterlimit:4;stroke-dasharray:none;stroke-dashoffset:0;stroke-opacity:1;color-rendering:auto;image-rendering:auto;shape-rendering:auto;text-rendering:auto;enable-background:accumulate" />
  <path
     sodipodi:nodetypes="ccccccccccc"
     inkscape:connector-curvature="0"
     id="path981"
     d="M 224.24088,155.84374 C 213.72553,152.90924 204.94977,165.85414 204.94977,165.85414 204.94977,165.85414 196.28208,167.03894 191.01015,168.68884 194.19341,172.45294 198.49764,178.15884 198.49764,178.15884 198.49764,178.15884 195.54027,185.37274 195.4962,185.40214 177.87014,196.73314 178.28401,232.89384 178.28401,232.89384 193.39205,221.98254 216.95956,225.39444 216.12022,202.31264 L 219.15079,208.00644 C 220.80162,205.14134 221.49193,210.92114 224.10331,199.41114 224.10331,199.41114 221.72038,190.84024 218.57287,188.95164 218.57287,188.95164 218.57544,170.95184 224.24088,155.84374 Z"
     style="fill:#d2d2d2;fill-opacity:1;stroke:none;stroke-width:0.183671px;stroke-linecap:butt;stroke-linejoin:miter;stroke-opacity:1" />
  <path
     sodipodi:nodetypes="ccc"
     inkscape:connector-curvature="0"
     id="path983"
     d="M 157.49833,171.60594 C 152.97969,157.61274 160.85087,144.78564 144.23392,128.31444 173.09493,119.27714 181.73497,162.99954 198.49764,178.15884"
     style="fill:none;fill-opacity:1;stroke:#000000;stroke-width:1.83670998;stroke-linecap:round;stroke-linejoin:miter;stroke-miterlimit:4;stroke-dasharray:none;stroke-opacity:1" />
  <path
     sodipodi:nodetypes="cccccc"
     inkscape:connector-curvature="0"
     id="path985"
     d="M 153.58514,210.20694 C 153.58514,210.20694 157.74191,225.08744 159.81916,226.57114 167.83142,227.75814 178.65104,219.16824 178.65104,219.16824 178.65104,219.16824 184.36328,197.20984 185.27464,194.36214 L 179.55259,193.09684 Z"
     style="fill:#fff687;fill-opacity:1;stroke:none;stroke-width:0.183671px;stroke-linecap:butt;stroke-linejoin:miter;stroke-opacity:1" />
  <path
     sodipodi:nodetypes="cccc"
     inkscape:connector-curvature="0"
     id="path987"
     d="M 139.89491,190.15554 C 142.57471,200.25634 155.31268,211.78984 155.31268,211.78984 160.05389,213.64504 176.7512,208.49154 180.4617,197.77234 181.28626,191.17584 175.10207,192.61884 166.23807,181.69344"
     style="fill:#fff687;fill-opacity:1;stroke:#000000;stroke-width:1.46936798;stroke-linecap:butt;stroke-linejoin:miter;stroke-miterlimit:4;stroke-dasharray:none;stroke-opacity:1" />
  <path
     sodipodi:nodetypes="ccccc"
     inkscape:connector-curvature="0"
     id="path989"
     d="M 126.76894,170.72404 C 130.41299,184.57144 138.40341,189.38904 138.40341,189.38904 139.74913,191.17584 143.0427,188.99864 145.19661,187.83694 149.29874,185.37044 164.17633,189.24144 166.23807,181.69344 165.65503,176.59174 147.58647,165.04664 147.58647,165.04664"
     style="fill:#fff687;fill-opacity:1;stroke:#000000;stroke-width:1.46936798;stroke-linecap:round;stroke-linejoin:miter;stroke-miterlimit:4;stroke-dasharray:none;stroke-opacity:1" />
  <path
     sodipodi:nodetypes="ccccc"
     inkscape:connector-curvature="0"
     id="path991"
     d="M 115.33186,153.96674 C 115.33186,153.96674 121.42547,168.57724 126.30511,170.00254 129.60335,170.77554 132.43119,169.11894 134.59566,169.11894 138.61537,169.01584 145.11279,166.90184 147.58647,165.04664 148.68058,163.06024 141.97524,157.31714 132.12198,149.74184"
     style="fill:#fff687;fill-opacity:1;stroke:#000000;stroke-width:1.46936798;stroke-linecap:round;stroke-linejoin:miter;stroke-miterlimit:4;stroke-dasharray:none;stroke-opacity:1" />
  <path
     sodipodi:nodetypes="ccc"
     inkscape:connector-curvature="0"
     id="path993"
     d="M 153.58514,210.20694 C 153.58514,210.20694 156.70215,225.66204 159.81916,226.57114 168.00128,228.25954 178.65104,219.16824 178.65104,219.16824"
     style="fill:none;fill-opacity:0;stroke:#000000;stroke-width:1.46936798;stroke-linecap:round;stroke-linejoin:miter;stroke-miterlimit:4;stroke-dasharray:none;stroke-opacity:1" />
  <path
     sodipodi:nodetypes="cc"
     inkscape:connector-curvature="0"
     id="path995"
     d="M 179.55259,193.09684 C 179.81233,191.66824 185.27464,194.36214 185.27464,194.36214"
     style="fill:none;fill-opacity:1;stroke:#000000;stroke-width:1.46936798;stroke-linecap:round;stroke-linejoin:miter;stroke-miterlimit:4;stroke-dasharray:none;stroke-opacity:1" />
  <path
     sodipodi:nodetypes="ccsccccccccccscc"
     inkscape:connector-curvature="0"
     id="path997"
     d="M 195.48166,184.47804 C 195.33718,184.48214 195.19572,184.52024 195.06875,184.58924 185.49128,189.62584 181.18115,201.79394 179.1396,212.57834 177.09805,223.36264 177.36603,232.91914 177.36603,232.91914 L 177.41697,234.76334 178.85764,233.61114 C 186.92476,227.15744 195.27569,225.97984 202.365,223.13934 205.90967,221.71914 209.14661,219.84954 211.70065,216.65244 214.25471,213.45534 216.09538,208.97984 217.02928,202.44264 217.23076,201.20964 215.36303,200.94284 215.21121,202.18294 214.30839,208.50274 213.30217,211.15564 211.00041,214.03694 208.69866,216.91814 205.80558,218.60714 202.41667,219.96494 196.03553,222.52164 187.92365,223.78854 179.93348,229.57754 179.96082,226.37084 180.20131,219.25704 181.67907,211.45084 183.67826,200.89014 187.2397,190.78174 195.92361,186.21504 196.79766,185.77124 196.46154,184.45014 195.48166,184.47804 Z"
     style="color:#000000;font-style:normal;font-variant:normal;font-weight:normal;font-stretch:normal;font-size:medium;line-height:normal;font-family:sans-serif;font-variant-ligatures:normal;font-variant-position:normal;font-variant-caps:normal;font-variant-numeric:normal;font-variant-alternates:normal;font-feature-settings:normal;text-indent:0;text-align:start;text-decoration:none;text-decoration-line:none;text-decoration-style:solid;text-decoration-color:#000000;letter-spacing:normal;word-spacing:normal;text-transform:none;writing-mode:lr-tb;direction:ltr;text-orientation:mixed;dominant-baseline:auto;baseline-shift:baseline;text-anchor:start;white-space:normal;shape-padding:0;clip-rule:nonzero;display:inline;overflow:visible;visibility:visible;opacity:1;isolation:auto;mix-blend-mode:normal;color-interpolation:sRGB;color-interpolation-filters:linearRGB;solid-color:#000000;solid-opacity:1;vector-effect:none;fill:#000000;fill-opacity:1;fill-rule:nonzero;stroke:none;stroke-width:1.83670998;stroke-linecap:round;stroke-linejoin:miter;stroke-miterlimit:4;stroke-dasharray:none;stroke-dashoffset:0;stroke-opacity:1;color-rendering:auto;image-rendering:auto;shape-rendering:auto;text-rendering:auto;enable-background:accumulate" />
  <path
     sodipodi:nodetypes="cccccc"
     inkscape:connector-curvature="0"
     id="path999"
     d="M 223.65073,155.56834 C 205.28363,149.04804 193.43685,193.77194 193.43685,193.77194 198.4878,196.43514 209.44774,191.49184 209.44774,191.49184 M 209.03584,175.49554 C 204.32341,194.35714 218.69161,201.76164 219.15079,208.00644 221.90585,206.99624 224.10331,199.41114 224.10331,199.41114"
     style="fill:none;fill-opacity:1;stroke:#000000;stroke-width:1.46936798;stroke-linecap:round;stroke-linejoin:miter;stroke-miterlimit:4;stroke-dasharray:none;stroke-opacity:1" />
  <path
     sodipodi:nodetypes="ccccccccccccc"
     inkscape:connector-curvature="0"
     id="path1001"
     d="M 247.52223,154.49044 C 248.69069,155.54764 249.6203,180.93474 249.6203,180.93474 276.03107,188.94694 252.10381,220.16774 325.0902,240.33944 325.0902,240.33944 317.09926,226.56964 321.25377,222.41514 321.25377,222.41514 350.97927,250.43564 358.39804,263.19594 358.39804,263.19594 362.29352,250.57694 360.21627,243.45494 L 369.30753,254.10464 371.90504,247.09144 C 391.49056,269.05094 411.64678,307.35344 411.64678,307.35344 565.95694,576.80264 466.488,307.95224 466.488,307.95224 466.488,307.95224 449.46484,246.50554 421.27356,237.30634 419.80035,230.16684 396.98079,197.55244 372.94403,194.88164 372.94403,194.88164 314.5878,147.07174 247.52223,154.49044 Z"
     style="fill:#d2d2d2;fill-opacity:1;stroke:none;stroke-width:0.183671px;stroke-linecap:butt;stroke-linejoin:miter;stroke-opacity:1" />
  <path
     sodipodi:nodetypes="ccccccccccccc"
     inkscape:connector-curvature="0"
     id="path1003"
     d="M 237.22662,131.13884 236.48979,132.14444 C 236.48979,132.14444 214.68428,161.67484 217.65993,189.05084 L 217.69508,189.37514 217.92682,189.60474 C 224.4787,196.08654 224.44391,207.05994 224.44391,207.05994 224.44391,208.46224 223.66917,210.80124 223.66917,210.80124 223.66917,210.80124 226.36076,208.60284 226.28062,207.08034 226.28062,207.08034 226.47757,195.78044 219.46292,188.56584 217.06485,165.04454 234.57307,140.13514 238.03189,135.09814 249.89274,153.90344 250.96413,180.65374 245.97,205.57654 245.97,205.57654 260.77196,162.94034 237.96849,132.14084 Z"
     style="color:#000000;font-style:normal;font-variant:normal;font-weight:normal;font-stretch:normal;font-size:medium;line-height:normal;font-family:sans-serif;font-variant-ligatures:normal;font-variant-position:normal;font-variant-caps:normal;font-variant-numeric:normal;font-variant-alternates:normal;font-feature-settings:normal;text-indent:0;text-align:start;text-decoration:none;text-decoration-line:none;text-decoration-style:solid;text-decoration-color:#000000;letter-spacing:normal;word-spacing:normal;text-transform:none;writing-mode:lr-tb;direction:ltr;text-orientation:mixed;dominant-baseline:auto;baseline-shift:baseline;text-anchor:start;white-space:normal;shape-padding:0;clip-rule:nonzero;display:inline;overflow:visible;visibility:visible;opacity:1;isolation:auto;mix-blend-mode:normal;color-interpolation:sRGB;color-interpolation-filters:linearRGB;solid-color:#000000;solid-opacity:1;vector-effect:none;fill:#000000;fill-opacity:1;fill-rule:nonzero;stroke:none;stroke-width:1.83670998;stroke-linecap:round;stroke-linejoin:miter;stroke-miterlimit:4;stroke-dasharray:none;stroke-dashoffset:0;stroke-opacity:1;color-rendering:auto;image-rendering:auto;shape-rendering:auto;text-rendering:auto;enable-background:accumulate" />
  <path
     sodipodi:nodetypes="cc"
     inkscape:connector-curvature="0"
     id="path1005"
     d="M 191.01015,168.68884 C 191.01015,168.68884 197.66128,166.77234 205.00812,166.22134"
     style="fill:none;fill-opacity:1;stroke:#000000;stroke-width:2.20405197;stroke-linecap:butt;stroke-linejoin:miter;stroke-miterlimit:4;stroke-dasharray:none;stroke-opacity:1" />
  <path
     sodipodi:nodetypes="ccc"
     inkscape:connector-curvature="0"
     id="path1007"
     d="M 249.6203,180.93474 C 270.4003,184.83104 260.47985,226.31444 325.93685,240.86044 325.93685,240.86044 316.83803,231.24664 321.25377,222.41514"
     style="fill:none;fill-opacity:1;stroke:#000000;stroke-width:1.83670998;stroke-linecap:butt;stroke-linejoin:miter;stroke-miterlimit:4;stroke-dasharray:none;stroke-opacity:1" />
  <path
     sodipodi:nodetypes="ccccc"
     inkscape:connector-curvature="0"
     id="path1009"
     d="M 304.62977,199.55714 C 302.03227,208.90814 333.20229,228.38944 358.39804,263.19594 358.39804,263.19594 363.85277,250.20844 360.21627,243.45494 363.59302,244.75364 365.41128,252.54614 369.30753,254.10464 369.30753,254.10464 372.42453,248.90964 372.68428,242.15614"
     style="fill:none;fill-opacity:1;stroke:#000000;stroke-width:2.20405197;stroke-linecap:butt;stroke-linejoin:miter;stroke-miterlimit:4;stroke-dasharray:none;stroke-opacity:1" />
  <path
     sodipodi:nodetypes="cc"
     inkscape:connector-curvature="0"
     id="path1011"
     d="M 371.90504,247.09144 C 384.63105,258.88544 469.43629,406.77124 471.54237,405.08644"
     style="fill:none;fill-opacity:1;stroke:#000000;stroke-width:2.20405197;stroke-linecap:butt;stroke-linejoin:miter;stroke-miterlimit:4;stroke-dasharray:none;stroke-opacity:1" />
  <path
     sodipodi:nodetypes="cc"
     inkscape:connector-curvature="0"
     id="path1013"
     d="M 248.00445,154.43484 C 306.18845,145.08384 384.89273,195.47534 383.59397,211.06034"
     style="fill:none;fill-opacity:1;stroke:#000000;stroke-width:2.20405197;stroke-linecap:round;stroke-linejoin:miter;stroke-miterlimit:4;stroke-dasharray:none;stroke-opacity:1" />
  <path
     sodipodi:nodetypes="ccccscccsscc"
     inkscape:connector-curvature="0"
     id="path1015"
     d="M 375.81019,194.87214 C 375.17089,194.83394 373.56287,194.83604 372.94403,194.88164 L 373.05746,197.16074 C 377.41427,196.84044 383.80137,199.03164 389.37722,202.78834 394.95307,206.54494 400.69196,211.82864 405.80923,217.50694 410.92651,223.18524 415.42588,229.26094 418.5441,234.58354 420.11348,237.13304 421.61363,240.95054 423.91822,248.75714 424.31192,245.52894 421.54475,235.67844 419.88022,233.06584 416.6936,227.62664 412.14232,221.48634 406.95969,215.73554 401.77707,209.98474 395.96719,204.62644 390.24224,200.76934 385.2329,197.39434 380.28541,195.13934 375.81019,194.87224 Z"
     style="color:#000000;font-style:normal;font-variant:normal;font-weight:normal;font-stretch:normal;font-size:medium;line-height:normal;font-family:sans-serif;font-variant-ligatures:normal;font-variant-position:normal;font-variant-caps:normal;font-variant-numeric:normal;font-variant-alternates:normal;font-feature-settings:normal;text-indent:0;text-align:start;text-decoration:none;text-decoration-line:none;text-decoration-style:solid;text-decoration-color:#000000;letter-spacing:normal;word-spacing:normal;text-transform:none;writing-mode:lr-tb;direction:ltr;text-orientation:mixed;dominant-baseline:auto;baseline-shift:baseline;text-anchor:start;white-space:normal;shape-padding:0;clip-rule:nonzero;display:inline;overflow:visible;visibility:visible;opacity:1;isolation:auto;mix-blend-mode:normal;color-interpolation:sRGB;color-interpolation-filters:linearRGB;solid-color:#000000;solid-opacity:1;vector-effect:none;fill:#000000;fill-opacity:1;fill-rule:nonzero;stroke:none;stroke-width:1.54857135;stroke-linecap:butt;stroke-linejoin:miter;stroke-miterlimit:4;stroke-dasharray:none;stroke-dashoffset:0;stroke-opacity:1;color-rendering:auto;image-rendering:auto;shape-rendering:auto;text-rendering:auto;enable-background:accumulate" />
  <path
     sodipodi:nodetypes="cccccc"
     inkscape:connector-curvature="0"
     id="path1017"
     d="M 266.53418,337.06514 C 285.42125,354.12084 295.87489,369.91594 301.24634,383.71954 310.66279,411.00634 285.74655,456.97334 277.61059,477.49834 297.83811,441.32734 311.44986,407.89234 303.82474,382.49224 296.96156,363.00144 279.48504,345.31784 267.76571,335.03634 266.53251,338.69494 266.42651,336.12274 266.53418,337.06514 Z"
     style="fill:#000000;fill-opacity:1;stroke:none;stroke-width:1.46936798;stroke-linecap:butt;stroke-linejoin:miter;stroke-miterlimit:4;stroke-dasharray:none;stroke-opacity:1" />
  <path
     sodipodi:nodetypes="cccccccccc"
     inkscape:connector-curvature="0"
     id="path1019"
     d="M 9.5692575,204.55734 C 49.460903,215.14684 93.161513,220.67124 132.88632,206.42484 161.13992,196.57384 184.91214,172.54354 190.46088,142.60034 197.93401,105.96414 181.51034,68.157041 155.40402,42.743241 150.87346,33.620941 146.34292,24.498541 141.81237,15.376241 139.0573,18.070041 136.30224,20.763941 133.54717,23.457741 137.59357,34.244541 143.51905,44.497641 144.55773,56.176941 149.77761,85.806941 141.83419,117.85814 121.17089,140.10404 93.29617,170.60414 53.600635,184.69374 12.140651,191.88404 9.8102926,197.12844 10.426389,200.33294 9.5692575,204.55734 Z"
     style="fill:#ffff14;fill-opacity:1;stroke:#000000;stroke-width:1.83670998;stroke-linecap:butt;stroke-linejoin:miter;stroke-miterlimit:4;stroke-dasharray:none;stroke-opacity:1" />
  <path
     sodipodi:nodetypes="ccc"
     inkscape:connector-curvature="0"
     id="path1021"
     d="M 161.7653,58.151741 C 216.45775,162.10664 122.65239,217.79324 33.917761,198.58064 132.43954,212.47384 206.98591,155.65994 161.7653,58.151741 Z"
     style="color:#000000;font-style:normal;font-variant:normal;font-weight:normal;font-stretch:normal;font-size:medium;line-height:normal;font-family:sans-serif;font-variant-ligatures:normal;font-variant-position:normal;font-variant-caps:normal;font-variant-numeric:normal;font-variant-alternates:normal;font-feature-settings:normal;text-indent:0;text-align:start;text-decoration:none;text-decoration-line:none;text-decoration-style:solid;text-decoration-color:#000000;letter-spacing:normal;word-spacing:normal;text-transform:none;writing-mode:lr-tb;direction:ltr;text-orientation:mixed;dominant-baseline:auto;baseline-shift:baseline;text-anchor:start;white-space:normal;shape-padding:0;clip-rule:nonzero;display:inline;overflow:visible;visibility:visible;opacity:1;isolation:auto;mix-blend-mode:normal;color-interpolation:sRGB;color-interpolation-filters:linearRGB;solid-color:#000000;solid-opacity:1;vector-effect:none;fill:#000000;fill-opacity:1;fill-rule:nonzero;stroke:none;stroke-width:1.46936798;stroke-linecap:butt;stroke-linejoin:miter;stroke-miterlimit:4;stroke-dasharray:none;stroke-dashoffset:0;stroke-opacity:1;color-rendering:auto;image-rendering:auto;shape-rendering:auto;text-rendering:auto;enable-background:accumulate" />
  <path
     sodipodi:nodetypes="cc"
     inkscape:connector-curvature="0"
     id="path1023"
     d="M 136.97094,128.52944 C 146.32195,126.97094 153.07546,130.08794 150.2182,138.91944"
     style="fill:none;stroke:#000000;stroke-width:1.46936798;stroke-linecap:butt;stroke-linejoin:miter;stroke-miterlimit:4;stroke-dasharray:none;stroke-opacity:1" />
  <path
     inkscape:connector-curvature="0"
     id="path1025"
     d="M 141.9062,105.41174 149.95845,113.98344"
     style="fill:none;stroke:#000000;stroke-width:1.46936798;stroke-linecap:butt;stroke-linejoin:miter;stroke-miterlimit:4;stroke-dasharray:none;stroke-opacity:1" />
  <path
     inkscape:connector-curvature="0"
     id="path1027"
     d="M 150.99746,102.55444 140.60745,113.46394"
     style="fill:none;stroke:#000000;stroke-width:1.46936798;stroke-linecap:butt;stroke-linejoin:miter;stroke-miterlimit:4;stroke-dasharray:none;stroke-opacity:1" />
  <path
     inkscape:connector-curvature="0"
     id="path1029"
     d="M 156.71196,104.63244 166.06296,115.28224"
     style="fill:none;stroke:#000000;stroke-width:1.46936798;stroke-linecap:butt;stroke-linejoin:miter;stroke-miterlimit:4;stroke-dasharray:none;stroke-opacity:1" />
  <path
     inkscape:connector-curvature="0"
     id="path1031"
     d="M 154.63396,113.46394 168.66046,103.07394"
     style="fill:none;stroke:#000000;stroke-width:1.46936798;stroke-linecap:butt;stroke-linejoin:miter;stroke-miterlimit:4;stroke-dasharray:none;stroke-opacity:1" />
  <path
     inkscape:connector-curvature="0"
     id="path1035"
     d="M 0.88715677,202.14894 C 2.0700898,197.53294 4.2428076,191.70044 4.2428076,191.70044 L 12.14066,191.88404 9.5196938,204.72024 Z"
     style="fill:#551f14;fill-opacity:1;stroke:#000000;stroke-width:1.46936798;stroke-linecap:butt;stroke-linejoin:miter;stroke-miterlimit:4;stroke-dasharray:none;stroke-opacity:1"
     sodipodi:nodetypes="ccccc" />
  <path
     sodipodi:nodetypes="ccccccc"
     inkscape:connector-curvature="0"
     id="path1037"
     d="M 112.10334,151.26344 C 108.46684,154.64014 106.91875,159.00384 111.59424,159.26364 120.16598,155.10764 109.77599,172.11624 115.49049,172.37604 122.244,174.19424 116.5295,163.28474 121.20499,160.42754 124.322,158.60924 131.12754,157.75714 135.02379,156.71814 138.6603,153.60114 138.1408,148.92564 138.1408,148.92564 138.1408,148.92564 135.02379,144.76964 131.38729,146.06844"
     style="fill:#ff0000;fill-opacity:1;stroke:none;stroke-width:0.183671px;stroke-linecap:butt;stroke-linejoin:miter;stroke-opacity:1" />
  <path
     inkscape:connector-curvature="0"
     id="path1039"
     d="M 126.75136,16.661941 135.93491,1.6009407 141.81238,15.376241 133.54719,23.457741 Z"
     style="fill:#551f14;fill-opacity:1;stroke:#000000;stroke-width:1.46936798;stroke-linecap:butt;stroke-linejoin:miter;stroke-miterlimit:4;stroke-dasharray:none;stroke-opacity:1" />
  <path
     sodipodi:nodetypes="cc"
     inkscape:connector-curvature="0"
     id="path1041"
     d="M 9.5692666,204.55734 C 171.62382,248.75404 238.37846,134.64654 155.40402,42.743241"
     style="fill:none;stroke:#000000;stroke-width:2.20405197;stroke-linecap:butt;stroke-linejoin:miter;stroke-miterlimit:4;stroke-dasharray:none;stroke-opacity:1" />
  <path
     sodipodi:nodetypes="ccccc"
     inkscape:connector-curvature="0"
     id="path1047"
     d="M 104.60235,140.31094 C 103.64391,142.13354 113.76953,152.80254 113.76953,152.80254 115.66445,154.98904 120.91191,151.92794 122.66104,152.07374 124.70172,152.21954 131.83045,152.07374 132.12198,149.74184 131.83045,147.26384 115.75575,135.51304 113.78876,136.38864"
     style="fill:#fff687;fill-opacity:1;stroke:#000000;stroke-width:1.46936798;stroke-linecap:butt;stroke-linejoin:miter;stroke-miterlimit:4;stroke-dasharray:none;stroke-opacity:1" />
  <path
     sodipodi:nodetypes="cccc"
     inkscape:connector-curvature="0"
     id="path1049"
     d="M 104.60235,140.31094 73.063009,97.794641 114.39398,136.23964 C 114.80626,139.64094 105.06617,141.03244 104.60235,140.31094 Z"
     style="fill:#fff687;fill-opacity:1;stroke:#000000;stroke-width:1.46936798;stroke-linecap:butt;stroke-linejoin:miter;stroke-miterlimit:20;stroke-dasharray:none;stroke-opacity:1" />
  <path
     sodipodi:nodetypes="ccccc"
     inkscape:connector-curvature="0"
     id="path1051"
     d="M 121.42416,396.07294 C 121.64554,398.26184 120.76478,399.52294 119.90077,400.36934 118.40016,401.87034 117.44084,401.21284 117.4449,402.56784 118.21586,403.73994 120.26149,401.92804 120.26149,401.92804 121.85487,400.54944 122.33461,397.81574 121.42416,396.07294 Z"
     style="color:#000000;font-style:normal;font-variant:normal;font-weight:normal;font-stretch:normal;font-size:medium;line-height:normal;font-family:sans-serif;font-variant-ligatures:normal;font-variant-position:normal;font-variant-caps:normal;font-variant-numeric:normal;font-variant-alternates:normal;font-feature-settings:normal;text-indent:0;text-align:start;text-decoration:none;text-decoration-line:none;text-decoration-style:solid;text-decoration-color:#000000;letter-spacing:normal;word-spacing:normal;text-transform:none;writing-mode:lr-tb;direction:ltr;text-orientation:mixed;dominant-baseline:auto;baseline-shift:baseline;text-anchor:start;white-space:normal;shape-padding:0;clip-rule:nonzero;display:inline;overflow:visible;visibility:visible;opacity:1;isolation:auto;mix-blend-mode:normal;color-interpolation:sRGB;color-interpolation-filters:linearRGB;solid-color:#000000;solid-opacity:1;vector-effect:none;fill:#000000;fill-opacity:1;fill-rule:nonzero;stroke:none;stroke-width:1.46936798;stroke-linecap:round;stroke-linejoin:miter;stroke-miterlimit:4;stroke-dasharray:none;stroke-dashoffset:0;stroke-opacity:1;color-rendering:auto;image-rendering:auto;shape-rendering:auto;text-rendering:auto;enable-background:accumulate" />
  <path
     sodipodi:nodetypes="cc"
     inkscape:connector-curvature="0"
     id="path1053"
     d="M 421.27356,237.30634 C 470.95657,258.13184 499.15339,438.57394 500.14881,422.10994"
     style="fill:none;stroke:#000000;stroke-width:1.83670998;stroke-linecap:round;stroke-linejoin:miter;stroke-miterlimit:4;stroke-dasharray:none;stroke-opacity:1" />
  <path
     sodipodi:nodetypes="cccc"
     inkscape:connector-curvature="0"
     id="path1055"
     d="M 371.54706,242.19314 C 371.54706,242.19314 371.94401,238.06894 370.92952,234.93734 370.92952,234.93734 373.53194,237.60584 373.79659,242.28134 Z"
     style="fill:#000000;fill-opacity:1;stroke:none;stroke-width:0.28472134px;stroke-linecap:butt;stroke-linejoin:miter;stroke-opacity:1" />
  <path
     sodipodi:nodetypes="cccc"
     inkscape:connector-curvature="0"
     id="path1057"
     d="M 305.67693,199.88784 C 305.67693,199.88784 306.6397,196.57974 309.11766,195.06494 309.11766,195.06494 305.23404,195.08334 303.5714,199.29974 Z"
     style="fill:#000000;fill-opacity:1;stroke:none;stroke-width:0.27734864px;stroke-linecap:butt;stroke-linejoin:miter;stroke-opacity:1" />
  <path
     sodipodi:nodetypes="cccc"
     inkscape:connector-curvature="0"
     id="path1059"
     d="M 208.31846,175.33334 C 208.4561,174.85154 209.17991,173.64174 210.47132,172.91224 L 209.75603,175.64204 Z"
     style="fill:#000000;fill-opacity:1;stroke:none;stroke-width:0.183671px;stroke-linecap:butt;stroke-linejoin:miter;stroke-opacity:1" />
  <path
     sodipodi:nodetypes="cccc"
     inkscape:connector-curvature="0"
     id="path1061"
     d="M 382.51878,210.52484 C 382.55267,211.27444 381.78902,223.20734 384.1927,226.00784 383.24617,217.74714 384.46207,215.80494 384.72024,210.62774 Z"
     style="fill:#000000;fill-opacity:1;stroke:none;stroke-width:0.27506167px;stroke-linecap:butt;stroke-linejoin:miter;stroke-opacity:1" />
</svg>
