<?xml version="1.0" encoding="UTF-8" standalone="no"?>
<!-- Created with Inkscape (http://www.inkscape.org/) -->

<svg
   xmlns:dc="http://purl.org/dc/elements/1.1/"
   xmlns:cc="http://creativecommons.org/ns#"
   xmlns:rdf="http://www.w3.org/1999/02/22-rdf-syntax-ns#"
   xmlns:svg="http://www.w3.org/2000/svg"
   xmlns="http://www.w3.org/2000/svg"
   xmlns:xlink="http://www.w3.org/1999/xlink"
   xmlns:sodipodi="http://sodipodi.sourceforge.net/DTD/sodipodi-0.dtd"
   xmlns:inkscape="http://www.inkscape.org/namespaces/inkscape"
   inkscape:export-ydpi="24.242424"
   inkscape:export-xdpi="24.242424"
   inkscape:export-filename="/home/bc/svgs/bananicorn_logo.png"
   inkscape:version="0.92.2 2405546, 2018-03-11"
   sodipodi:docname="bananicorn.svg"
   viewBox="0 0 501.06806 483.69586"
   height="483.69586"
   width="501.06805"
   id="svg2"
   version="1.1">
  <sodipodi:namedview
     fit-margin-bottom="0"
     fit-margin-right="0"
     fit-margin-left="0"
     fit-margin-top="0"
     inkscape:current-layer="svg2"
     inkscape:window-maximized="0"
     inkscape:window-y="0"
     inkscape:window-x="0"
     inkscape:cy="225.85724"
     inkscape:cx="189.3361"
     inkscape:zoom="0.99999996"
     showgrid="false"
     id="namedview4"
     inkscape:window-height="1048"
     inkscape:window-width="1678"
     inkscape:pageshadow="2"
     inkscape:pageopacity="0"
     guidetolerance="10"
     gridtolerance="10"
     objecttolerance="10"
     borderopacity="1"
     bordercolor="#666666"
     pagecolor="#ffffff"
     inkscape:snap-global="true"
     viewbox-x="30" />
  <metadata
     id="metadata8">
    <rdf:RDF>
      <cc:Work
         rdf:about="">
        <dc:format>image/svg+xml</dc:format>
        <dc:type
           rdf:resource="http://purl.org/dc/dcmitype/StillImage" />
        <dc:title></dc:title>
      </cc:Work>
    </rdf:RDF>
  </metadata>
  <defs
     id="defs6">
    <linearGradient
       id="linearGradient932"
       inkscape:collect="always">
      <stop
         id="stop928"
         offset="0"
         style="stop-color:#d2d2d2;stop-opacity:1;" />
      <stop
         id="stop930"
         offset="1"
         style="stop-color:#ffffff;stop-opacity:0.98148149" />
    </linearGradient>
    <linearGradient
       id="linearGradient881"
       inkscape:collect="always">
      <stop
         id="stop877"
         offset="0"
         style="stop-color:#ff0000;stop-opacity:1;" />
      <stop
         id="stop879"
         offset="1"
         style="stop-color:#000000;stop-opacity:1" />
    </linearGradient>
    <linearGradient
       id="linearGradient870"
       inkscape:collect="always">
      <stop
         id="stop866"
         offset="0"
         style="stop-color:#000021;stop-opacity:1" />
      <stop
         id="stop868"
         offset="1"
         style="stop-color:#fffcff;stop-opacity:0.94949496" />
    </linearGradient>
    <linearGradient
       gradientTransform="matrix(0.17331905,0,0,0.17331905,18.822183,9.5039449)"
       gradientUnits="userSpaceOnUse"
       y2="2062.2712"
       x2="815.86084"
       y1="3246.0476"
       x1="-475.24075"
       id="linearGradient872"
       xlink:href="#linearGradient870"
       inkscape:collect="always" />
    <radialGradient
       gradientUnits="userSpaceOnUse"
       gradientTransform="matrix(0.17331905,0,0,0.15504665,18.822183,36.671995)"
       r="43.986423"
       fy="1486.8356"
       fx="1049.2939"
       cy="1486.8356"
       cx="1049.2939"
       id="radialGradient883"
       xlink:href="#linearGradient881"
       inkscape:collect="always" />
    <radialGradient
       gradientUnits="userSpaceOnUse"
       gradientTransform="matrix(0.38041192,0.38018409,-0.07001359,0.07005554,-190.69838,-416.35477)"
       r="681.96155"
       fy="996.13092"
       fx="1428.1221"
       cy="996.13092"
       cx="1428.1221"
       id="radialGradient936"
       xlink:href="#linearGradient932"
       inkscape:collect="always" />
    <linearGradient
       gradientUnits="userSpaceOnUse"
       y2="1781.7898"
       x2="1640.9358"
       y1="1700.6409"
       x1="1571.2335"
       id="linearGradient922"
       xlink:href="#linearGradient920"
       inkscape:collect="always"
       gradientTransform="matrix(0.17331905,0,0,0.17331905,-190.54808,88.775831)" />
    <linearGradient
       id="linearGradient920"
       inkscape:collect="always">
      <stop
         id="stop916"
         offset="0"
         style="stop-color:#000000;stop-opacity:0.80092591" />
      <stop
         id="stop918"
         offset="1"
         style="stop-color:#000000;stop-opacity:0;" />
    </linearGradient>
  </defs>
  <path
     style="fill:none;fill-opacity:1;stroke:#001feb;stroke-width:2;stroke-linecap:butt;stroke-miterlimit:4.53000021;stroke-dasharray:none;stroke-opacity:1"
     d="M 194.92919,263.69631 C 194.02721,264.9256 193.53951,266.40988 193.53661,267.93459 193.53661,271.90414 196.75456,275.12209 200.72411,275.12209 204.69366,275.12209 207.91161,271.90414 207.91161,267.93459 207.90861,265.09544 206.23512,262.52395 203.64013,261.37209"
     id="path880"
     inkscape:connector-curvature="0"
     sodipodi:nodetypes="ccscc" />
  <path
     style="opacity:1;fill:none;fill-opacity:1;stroke:#000000;stroke-width:1;stroke-linecap:butt;stroke-linejoin:miter;stroke-miterlimit:4.53000021;stroke-dasharray:none;stroke-opacity:1"
     d="M 193.10714,163.05621 207.24415,179.91873"
     id="path952"
     inkscape:connector-curvature="0"
     sodipodi:nodetypes="cc" />
  <path
     style="color:#000000;font-style:normal;font-variant:normal;font-weight:normal;font-stretch:normal;font-size:medium;line-height:normal;font-family:sans-serif;font-variant-ligatures:normal;font-variant-position:normal;font-variant-caps:normal;font-variant-numeric:normal;font-variant-alternates:normal;font-feature-settings:normal;text-indent:0;text-align:start;text-decoration:none;text-decoration-line:none;text-decoration-style:solid;text-decoration-color:#000000;letter-spacing:normal;word-spacing:normal;text-transform:none;writing-mode:lr-tb;direction:ltr;text-orientation:mixed;dominant-baseline:auto;baseline-shift:baseline;text-anchor:start;white-space:normal;shape-padding:0;clip-rule:nonzero;display:inline;overflow:visible;visibility:visible;opacity:1;isolation:auto;mix-blend-mode:normal;color-interpolation:sRGB;color-interpolation-filters:linearRGB;solid-color:#000000;solid-opacity:1;vector-effect:none;fill:none;fill-opacity:1;fill-rule:nonzero;stroke:#000000;stroke-width:1;stroke-linecap:round;stroke-linejoin:round;stroke-miterlimit:4.53000021;stroke-dasharray:none;stroke-dashoffset:0;stroke-opacity:1;color-rendering:auto;image-rendering:auto;shape-rendering:auto;text-rendering:auto;enable-background:accumulate"
     d="M 142.30727,400.20538 C 133.73961,404.94694 129.67218,415.15852 126.694,422.39866 125.27763,425.88575 124.24688,428.95294 123.41583,431.20848 123.00031,432.33627 122.63282,433.26254 122.3072,433.91659 121.98158,434.57067 121.64875,434.91947 121.6041,434.94297 121.54628,434.97348 121.49306,435.01199 121.44602,435.0574 121.44602,435.0574 119.65139,437.5247 114.47148,438.60933 109.29158,439.69398 102.14992,438.85137 94.025589,430.69319 93.373585,430.0112 90.977521,431.61083 91.656807,432.26566 100.03815,440.68193 107.78625,441.7297 113.36942,440.56061 118.90679,439.40112 122.42184,436.48627 122.42184,436.48627 122.93659,436.15497 123.75913,435.21744 124.09919,434.53439 124.47056,433.78841 124.84574,432.76342 125.2674,431.61901 126.1107,429.33017 127.06257,426.43079 128.46048,422.98914 131.71172,415.16418 134.76464,405.6866 142.30727,400.20538 Z"
     id="path956"
     inkscape:connector-curvature="0"
     sodipodi:nodetypes="ccccccccccccccc" />
  <path
     style="color:#000000;font-style:normal;font-variant:normal;font-weight:normal;font-stretch:normal;font-size:medium;line-height:normal;font-family:sans-serif;font-variant-ligatures:normal;font-variant-position:normal;font-variant-caps:normal;font-variant-numeric:normal;font-variant-alternates:normal;font-feature-settings:normal;text-indent:0;text-align:start;text-decoration:none;text-decoration-line:none;text-decoration-style:solid;text-decoration-color:#000000;letter-spacing:normal;word-spacing:normal;text-transform:none;writing-mode:lr-tb;direction:ltr;text-orientation:mixed;dominant-baseline:auto;baseline-shift:baseline;text-anchor:start;white-space:normal;shape-padding:0;clip-rule:nonzero;display:inline;overflow:visible;visibility:visible;opacity:1;isolation:auto;mix-blend-mode:normal;color-interpolation:sRGB;color-interpolation-filters:linearRGB;solid-color:#000000;solid-opacity:1;vector-effect:none;fill:none;fill-opacity:1;fill-rule:nonzero;stroke:#000000;stroke-width:1;stroke-linecap:round;stroke-linejoin:miter;stroke-miterlimit:4.53000021;stroke-dasharray:none;stroke-dashoffset:0;stroke-opacity:1;color-rendering:auto;image-rendering:auto;shape-rendering:auto;text-rendering:auto;enable-background:accumulate"
     d="M 162.06395,207.43532 C 161.97825,207.43332 161.89293,207.44812 161.81243,207.47762 154.79218,209.94419 149.68758,216.75386 145.92767,223.1007 144.04771,226.27414 142.50621,229.34544 141.26058,231.7196 140.63777,232.90668 140.08789,233.92009 139.61811,234.67178 139.14834,235.42348 138.71187,235.90891 138.56161,236.00282 L 138.57061,235.99782 C 123.67194,245.0106 119.50148,255.15821 118.63045,264.6212 117.75942,274.0842 119.99074,282.85012 117.90333,289.28632 L 117.89333,289.31642 117.88633,289.34762 C 116.62977,294.91239 114.61743,299.16278 112.9227,302.4603 111.26553,305.68476 109.83397,307.92177 109.87777,309.94314 109.4739,312.30862 108.05853,314.35966 105.92833,316.45039 103.79359,318.54559 100.96229,320.65031 97.888629,323.08459 91.7413,327.95316 84.618887,334.16878 80.181651,344.52232 L 80.153211,344.58862 80.139001,344.65932 C 80.131201,344.69822 79.994732,344.97466 79.671851,345.30859 79.348971,345.64254 78.868824,346.0483 78.276837,346.49678 77.092862,347.39376 75.461978,348.46895 73.663909,349.66493 70.067773,352.05691 65.799848,354.92605 62.914405,358.04552 L 62.831805,358.13492 62.784415,358.24664 C 58.23397,369.02887 53.292046,378.60938 49.5122,383.63483 L 49.5037,383.64623 49.4956,383.65803 C 48.674851,384.8481 48.604667,386.50564 48.793185,388.33424 48.981702,390.16286 49.475405,392.18648 50.046363,394.08695 51.182563,397.86887 52.628229,401.14824 52.642764,401.18119 54.549306,407.35348 60.767697,412.09819 67.164326,416.61674 73.580854,421.14935 80.221222,425.48021 83.104601,430.29676 L 83.22342,430.4958 83.438377,430.5831 C 89.405571,433.00894 94.495529,432.19309 98.83466,429.48834 103.17379,426.7836 106.80884,422.26813 110.25239,417.28154 117.13951,407.30834 123.34089,395.46127 131.74768,392.046 132.61256,391.7016 132.08568,390.4049 131.22569,390.76135 122.02644,394.49856 115.2718,406.19697 108.46096,416.05971 105.05554,420.99108 102.2524,424.38186 98.209541,426.90194 94.210442,429.39475 90.364426,430.63577 84.828533,428.44023 81.603705,423.25158 74.791965,418.62481 68.501,414.18091 62.117914,409.67193 56.507343,405.7385 54.816624,400.17864 L 54.804774,400.13874 54.787844,400.10054 C 54.787844,400.10054 53.353398,396.84698 52.241542,393.14612 51.685615,391.29568 51.213516,389.33485 51.039819,387.65 50.866122,385.96514 51.037519,384.58031 51.504599,383.90299 V 383.90299 C 55.426284,378.68897 59.445939,369.70028 64.005661,358.91245 66.715387,356.01131 70.872482,353.18658 74.431548,350.81926 76.226343,349.62544 77.867395,348.54634 79.113869,347.60203 79.737107,347.12986 80.261654,346.69295 80.668324,346.27234 81.074997,345.85173 81.392649,345.46175 81.498699,344.93149 L 81.456049,345.06859 C 85.761145,335.02336 92.643491,329.00685 98.749363,324.17111 101.8023,321.75324 104.65997,319.63773 106.89942,317.43977 109.13887,315.2418 110.78035,312.93103 111.24831,310.15901 L 111.26121,310.08251 111.25721,310.00501 C 111.18941,308.78415 112.4437,306.42545 114.1559,303.09391 115.86616,299.76616 117.94035,295.38969 119.23395,289.67184 121.49501,282.63741 119.516,273.88998 120.35747,264.74809 121.20061,255.58813 125.37475,247.75327 139.98146,238.91712 L 141.4875,237.1398 C 141.99572,236.32659 142.55407,235.29328 143.18176,234.09689 144.43715,231.70414 145.96496,228.66241 147.81432,225.54064 151.51304,219.29708 157.20129,212.09432 163.6588,209.82547 164.39603,209.57727 162.84181,207.44985 162.06406,207.43522 Z"
     id="path958"
     inkscape:connector-curvature="0"
     sodipodi:nodetypes="cccscccsccccccscccccsccccccsccscccssccsccsccccsccccccccsscccscsccccccc" />
  <path
     style="opacity:1;fill:none;fill-opacity:1;stroke:#000000;stroke-width:1;stroke-linecap:round;stroke-linejoin:miter;stroke-miterlimit:4.53000021;stroke-dasharray:none;stroke-opacity:1"
     d="M 131.96802,412.79231 C 162.77862,386.24569 164.01653,409.76628 202.11711,364.92587"
     id="path960"
     inkscape:connector-curvature="0"
     sodipodi:nodetypes="cc" />
  <path
     style="opacity:1;fill:none;fill-opacity:1;stroke:#000000;stroke-width:1;stroke-linecap:round;stroke-linejoin:miter;stroke-miterlimit:4.53000021;stroke-dasharray:none;stroke-opacity:1"
     d="M 181.14396,361.34964 C 182.4113,363.16639 219.26681,368.90542 230.00354,364.32518 278.60269,340.02679 288.72832,305.2571 285.12968,271.11863 286.51623,328.83388 254.58961,346.75567 230.50908,361.79748 222.10882,367.72263 181.14396,361.34964 181.14396,361.34964 Z"
     id="path962"
     inkscape:connector-curvature="0"
     sodipodi:nodetypes="ccccc" />
  <path
     style="color:#000000;font-style:normal;font-variant:normal;font-weight:normal;font-stretch:normal;font-size:medium;line-height:normal;font-family:sans-serif;font-variant-ligatures:normal;font-variant-position:normal;font-variant-caps:normal;font-variant-numeric:normal;font-variant-alternates:normal;font-feature-settings:normal;text-indent:0;text-align:start;text-decoration:none;text-decoration-line:none;text-decoration-style:solid;text-decoration-color:#000000;letter-spacing:normal;word-spacing:normal;text-transform:none;writing-mode:lr-tb;direction:ltr;text-orientation:mixed;dominant-baseline:auto;baseline-shift:baseline;text-anchor:start;white-space:normal;shape-padding:0;clip-rule:nonzero;display:inline;overflow:visible;visibility:visible;opacity:1;isolation:auto;mix-blend-mode:normal;color-interpolation:sRGB;color-interpolation-filters:linearRGB;solid-color:#000000;solid-opacity:1;vector-effect:none;fill:none;fill-opacity:1;fill-rule:nonzero;stroke:#000000;stroke-width:1;stroke-linecap:round;stroke-linejoin:round;stroke-miterlimit:4.53000021;stroke-dasharray:none;stroke-dashoffset:0;stroke-opacity:1;color-rendering:auto;image-rendering:auto;shape-rendering:auto;text-rendering:auto;enable-background:accumulate"
     d="M 215.55759,249.42673 C 210.04563,253.67066 201.54965,254.33925 196.01722,256.22902 193.75967,257.05291 191.84098,258.66835 190.33695,262.11849 188.85069,265.5279 187.67305,270.76922 186.60958,279.08446 185.17664,280.2526 184.85997,281.79925 185.52498,282.80575 185.87667,283.33803 186.52344,283.67546 187.20299,283.6087 187.7806,283.55195 188.3349,283.22202 188.82278,282.68116 222.08,284.77243 212.70951,259.72688 216.99558,253.84826 208.67617,255.30258 223.62046,282.28804 188.57025,281.2821 188.33501,281.26581 188.10764,281.3703 187.96668,281.55934 187.58539,282.07106 187.25393,282.21059 187.06725,282.22892 186.88057,282.24726 186.77983,282.18993 186.68168,282.04137 186.48539,281.74429 186.39835,280.91388 187.66202,280.00827 187.81882,279.89593 187.92174,279.72334 187.94603,279.53197 189.01235,271.09841 190.20644,265.88755 191.60807,262.67229 193.0097,259.45705 194.51919,258.25177 196.49249,257.53163 202.95386,255.59041 213.63241,253.34456 215.55759,249.42673 Z"
     id="path964"
     inkscape:connector-curvature="0"
     sodipodi:nodetypes="ccccccccccscccccc" />
  <path
     style="opacity:1;fill:none;fill-opacity:1;stroke:#000000;stroke-width:1;stroke-linecap:butt;stroke-linejoin:miter;stroke-miterlimit:4.53000021;stroke-dasharray:none;stroke-opacity:1"
     d="M 188.77506,270.01825 C 191.8011,258.87692 206.94154,264.7811 215.59078,255.54046"
     id="path967"
     inkscape:connector-curvature="0"
     sodipodi:nodetypes="cc" />
  <path
     style="color:#000000;font-style:normal;font-variant:normal;font-weight:normal;font-stretch:normal;font-size:medium;line-height:normal;font-family:sans-serif;font-variant-ligatures:normal;font-variant-position:normal;font-variant-caps:normal;font-variant-numeric:normal;font-variant-alternates:normal;font-feature-settings:normal;text-indent:0;text-align:start;text-decoration:none;text-decoration-line:none;text-decoration-style:solid;text-decoration-color:#000000;letter-spacing:normal;word-spacing:normal;text-transform:none;writing-mode:lr-tb;direction:ltr;text-orientation:mixed;dominant-baseline:auto;baseline-shift:baseline;text-anchor:start;white-space:normal;shape-padding:0;clip-rule:nonzero;display:inline;overflow:visible;visibility:visible;opacity:1;isolation:auto;mix-blend-mode:normal;color-interpolation:sRGB;color-interpolation-filters:linearRGB;solid-color:#000000;solid-opacity:1;vector-effect:none;fill:none;fill-opacity:1;fill-rule:nonzero;stroke:#000000;stroke-width:1;stroke-linecap:round;stroke-linejoin:miter;stroke-miterlimit:4.53000021;stroke-dasharray:none;stroke-dashoffset:0;stroke-opacity:1;color-rendering:auto;image-rendering:auto;shape-rendering:auto;text-rendering:auto;enable-background:accumulate"
     d="M 107.04562,353.13718 C 91.511543,361.96749 92.366045,367.11376 92.366045,367.11376 97.081244,360.31084 103.78371,356.53035 109.10651,353.27348 114.42932,350.0166 118.38372,346.84547 120.17018,342.8522 116.84012,346.13797 111.91336,350.36865 107.04562,353.13718 Z"
     id="path971"
     inkscape:connector-curvature="0"
     sodipodi:nodetypes="ccscc" />
  <path
     style="color:#000000;font-style:normal;font-variant:normal;font-weight:normal;font-stretch:normal;font-size:medium;line-height:normal;font-family:sans-serif;font-variant-ligatures:normal;font-variant-position:normal;font-variant-caps:normal;font-variant-numeric:normal;font-variant-alternates:normal;font-feature-settings:normal;text-indent:0;text-align:start;text-decoration:none;text-decoration-line:none;text-decoration-style:solid;text-decoration-color:#000000;letter-spacing:normal;word-spacing:normal;text-transform:none;writing-mode:lr-tb;direction:ltr;text-orientation:mixed;dominant-baseline:auto;baseline-shift:baseline;text-anchor:start;white-space:normal;shape-padding:0;clip-rule:nonzero;display:inline;overflow:visible;visibility:visible;opacity:1;isolation:auto;mix-blend-mode:normal;color-interpolation:sRGB;color-interpolation-filters:linearRGB;solid-color:#000000;solid-opacity:1;vector-effect:none;fill:none;fill-opacity:1;fill-rule:nonzero;stroke:#000000;stroke-width:1;stroke-linecap:round;stroke-linejoin:miter;stroke-miterlimit:4.53000021;stroke-dasharray:none;stroke-dashoffset:0;stroke-opacity:1;color-rendering:auto;image-rendering:auto;shape-rendering:auto;text-rendering:auto;enable-background:accumulate"
     d="M 78.979464,384.34159 C 78.055211,384.34159 77.135712,384.63175 76.3201,385.25491 75.232618,386.08581 73.344829,388.66455 72.7718,390.73375 75.04606,388.38977 76.126543,387.17362 77.161985,386.35643 77.957717,385.74846 78.727687,385.61089 79.622979,385.79449 81.413566,386.1617 83.641684,388.08651 85.669174,390.69448 87.696664,393.30246 89.55783,396.54443 90.881609,399.37837 92.218293,401.5667 93.407346,403.88794 93.785719,406.71668 93.833557,405.97517 94.11332,403.90624 93.74002,402.75776 93.366719,401.60928 92.819179,400.25001 92.137834,398.79139 90.775143,395.87415 88.879708,392.56544 86.763589,389.84347 84.647469,387.12147 82.344866,384.9371 79.901577,384.43603 79.596165,384.37341 79.287549,384.3415 78.979464,384.34159 Z"
     id="path973"
     inkscape:connector-curvature="0"
     sodipodi:nodetypes="cscccccccsccc" />
  <path
     style="color:#000000;font-style:normal;font-variant:normal;font-weight:normal;font-stretch:normal;font-size:medium;line-height:normal;font-family:sans-serif;font-variant-ligatures:normal;font-variant-position:normal;font-variant-caps:normal;font-variant-numeric:normal;font-variant-alternates:normal;font-feature-settings:normal;text-indent:0;text-align:start;text-decoration:none;text-decoration-line:none;text-decoration-style:solid;text-decoration-color:#000000;letter-spacing:normal;word-spacing:normal;text-transform:none;writing-mode:lr-tb;direction:ltr;text-orientation:mixed;dominant-baseline:auto;baseline-shift:baseline;text-anchor:start;white-space:normal;shape-padding:0;clip-rule:nonzero;display:inline;overflow:visible;visibility:visible;opacity:1;isolation:auto;mix-blend-mode:normal;color-interpolation:sRGB;color-interpolation-filters:linearRGB;solid-color:#000000;solid-opacity:1;vector-effect:none;fill:none;fill-opacity:1;fill-rule:nonzero;stroke:#000000;stroke-width:1;stroke-linecap:round;stroke-linejoin:miter;stroke-miterlimit:4.53000021;stroke-dasharray:none;stroke-dashoffset:0;stroke-opacity:1;color-rendering:auto;image-rendering:auto;shape-rendering:auto;text-rendering:auto;enable-background:accumulate"
     d="M 70.723573,395.11087 C 69.129079,397.08787 67.841823,399.86347 68.872614,402.38397 70.203435,404.74511 73.114823,405.29496 75.539456,405.8504 78.902266,406.55836 82.08461,408.02318 84.828641,410.0893 82.563915,406.56496 78.276865,405.38161 74.495395,404.25474 72.668166,403.69287 70.337132,403.11347 69.837472,400.95433 69.182792,398.95667 70.340089,397.03352 70.723573,395.11087 Z"
     id="path975"
     inkscape:connector-curvature="0" />
  <path
     style="color:#000000;font-style:normal;font-variant:normal;font-weight:normal;font-stretch:normal;font-size:medium;line-height:normal;font-family:sans-serif;font-variant-ligatures:normal;font-variant-position:normal;font-variant-caps:normal;font-variant-numeric:normal;font-variant-alternates:normal;font-feature-settings:normal;text-indent:0;text-align:start;text-decoration:none;text-decoration-line:none;text-decoration-style:solid;text-decoration-color:#000000;letter-spacing:normal;word-spacing:normal;text-transform:none;writing-mode:lr-tb;direction:ltr;text-orientation:mixed;dominant-baseline:auto;baseline-shift:baseline;text-anchor:start;white-space:normal;shape-padding:0;clip-rule:nonzero;display:inline;overflow:visible;visibility:visible;opacity:1;isolation:auto;mix-blend-mode:normal;color-interpolation:sRGB;color-interpolation-filters:linearRGB;solid-color:#000000;solid-opacity:1;vector-effect:none;fill:none;fill-opacity:1;fill-rule:nonzero;stroke:#000000;stroke-width:1;stroke-linecap:round;stroke-linejoin:miter;stroke-miterlimit:4.53000021;stroke-dasharray:none;stroke-dashoffset:0;stroke-opacity:1;color-rendering:auto;image-rendering:auto;shape-rendering:auto;text-rendering:auto;enable-background:accumulate"
     d="M 98.066557,411.32777 C 98.066557,411.32777 99.418748,410.9095 99.480025,406.98772 99.480025,406.98772 99.146505,397.41155 92.210615,391.05365 96.998533,397.76163 99.413096,405.36457 98.066557,411.32777 Z"
     id="path977"
     inkscape:connector-curvature="0"
     sodipodi:nodetypes="cccc" />
  <path
     style="color:#000000;font-style:normal;font-variant:normal;font-weight:normal;font-stretch:normal;font-size:medium;line-height:normal;font-family:sans-serif;font-variant-ligatures:normal;font-variant-position:normal;font-variant-caps:normal;font-variant-numeric:normal;font-variant-alternates:normal;font-feature-settings:normal;text-indent:0;text-align:start;text-decoration:none;text-decoration-line:none;text-decoration-style:solid;text-decoration-color:#000000;letter-spacing:normal;word-spacing:normal;text-transform:none;writing-mode:lr-tb;direction:ltr;text-orientation:mixed;dominant-baseline:auto;baseline-shift:baseline;text-anchor:start;white-space:normal;shape-padding:0;clip-rule:nonzero;display:inline;overflow:visible;visibility:visible;opacity:1;isolation:auto;mix-blend-mode:normal;color-interpolation:sRGB;color-interpolation-filters:linearRGB;solid-color:#000000;solid-opacity:1;vector-effect:none;fill:none;fill-opacity:1;fill-rule:nonzero;stroke:#000000;stroke-width:1;stroke-linecap:round;stroke-linejoin:miter;stroke-miterlimit:4.53000021;stroke-dasharray:none;stroke-dashoffset:0;stroke-opacity:1;color-rendering:auto;image-rendering:auto;shape-rendering:auto;text-rendering:auto;enable-background:accumulate"
     d="M 255.45752,181.83555 C 255.10189,181.85025 254.81515,182.13187 254.79404,182.48719 253.2541,203.34617 267.39453,219.7248 267.39453,219.7248 268.07229,220.45488 270.16181,221.92162 271.34282,221.84723 270.48219,221.31915 269.79267,220.54115 269.49299,220.18916 269.49299,220.18916 254.69074,202.71919 256.17687,182.58908 256.21354,182.17232 255.87554,181.81825 255.45752,181.83555 Z"
     id="path979"
     inkscape:connector-curvature="0"
     sodipodi:nodetypes="ccccccc" />
  <path
     style="opacity:1;fill:none;fill-opacity:1;stroke:#000000;stroke-width:1;stroke-linecap:butt;stroke-linejoin:miter;stroke-miterlimit:4.53000021;stroke-dasharray:none;stroke-opacity:1"
     d="M 231.53646,158.86138 C 221.61377,156.09219 213.33262,168.30754 213.33262,168.30754 213.33262,168.30754 205.15346,169.42553 200.17866,170.98246 203.18251,174.53439 207.24415,179.91873 207.24415,179.91873 207.24415,179.91873 204.45345,186.72604 204.41188,186.75375 187.77924,197.44617 188.16977,231.56882 188.16977,231.56882 202.42631,221.27242 224.66552,224.49203 223.87349,202.7112 L 226.73325,208.08409 C 228.29105,205.38045 228.94245,210.83447 231.40665,199.97317 231.40665,199.97317 229.15802,191.88535 226.18791,190.10328 226.18791,190.10328 226.19033,173.11793 231.53646,158.86138 Z"
     id="path981"
     inkscape:connector-curvature="0"
     sodipodi:nodetypes="ccccccccccc" />
  <path
     style="opacity:1;fill:none;fill-opacity:1;stroke:#000000;stroke-width:1;stroke-linecap:butt;stroke-linejoin:miter;stroke-miterlimit:4.53000021;stroke-dasharray:none;stroke-opacity:1"
     d="M 156.98186,198.08095 C 159.86791,204.03957 166.49314,211.65422 166.49314,211.65422 170.96713,213.4049 186.72336,208.54188 190.22473,198.42677 191.00281,192.20209 185.16718,193.56373 176.80277,183.25411"
     id="path987"
     inkscape:connector-curvature="0"
     sodipodi:nodetypes="cccc" />
  <path
     style="opacity:1;fill:none;fill-opacity:0;stroke:#000000;stroke-width:1;stroke-linecap:round;stroke-linejoin:miter;stroke-miterlimit:4.53000021;stroke-dasharray:none;stroke-opacity:1"
     d="M 164.86297,210.16052 C 164.86297,210.16052 167.8043,224.74457 170.74563,225.60245 178.46659,227.19567 188.51612,218.61681 188.51612,218.61681"
     id="path993"
     inkscape:connector-curvature="0"
     sodipodi:nodetypes="ccc" />
  <path
     style="opacity:1;fill:none;fill-opacity:1;stroke:#000000;stroke-width:1;stroke-linecap:round;stroke-linejoin:miter;stroke-miterlimit:4.53000021;stroke-dasharray:none;stroke-opacity:1"
     d="M 189.36685,194.0148 C 189.61196,192.66669 194.76641,195.20879 194.76641,195.20879"
     id="path995"
     inkscape:connector-curvature="0"
     sodipodi:nodetypes="cc" />
  <path
     style="color:#000000;font-style:normal;font-variant:normal;font-weight:normal;font-stretch:normal;font-size:medium;line-height:normal;font-family:sans-serif;font-variant-ligatures:normal;font-variant-position:normal;font-variant-caps:normal;font-variant-numeric:normal;font-variant-alternates:normal;font-feature-settings:normal;text-indent:0;text-align:start;text-decoration:none;text-decoration-line:none;text-decoration-style:solid;text-decoration-color:#000000;letter-spacing:normal;word-spacing:normal;text-transform:none;writing-mode:lr-tb;direction:ltr;text-orientation:mixed;dominant-baseline:auto;baseline-shift:baseline;text-anchor:start;white-space:normal;shape-padding:0;clip-rule:nonzero;display:inline;overflow:visible;visibility:visible;opacity:1;isolation:auto;mix-blend-mode:normal;color-interpolation:sRGB;color-interpolation-filters:linearRGB;solid-color:#000000;solid-opacity:1;vector-effect:none;fill:none;fill-opacity:1;fill-rule:nonzero;stroke:#000000;stroke-width:1;stroke-linecap:round;stroke-linejoin:miter;stroke-miterlimit:4.53000021;stroke-dasharray:none;stroke-dashoffset:0;stroke-opacity:1;color-rendering:auto;image-rendering:auto;shape-rendering:auto;text-rendering:auto;enable-background:accumulate"
     d="M 204.39815,185.8818 C 204.26182,185.88561 204.12833,185.92159 204.00851,185.98674 194.97084,190.73943 190.90363,202.22169 188.97714,212.39826 187.05066,222.57483 187.30353,231.59267 187.30353,231.59267 L 187.3516,233.33297 188.71107,232.24567 C 196.32353,226.1557 204.20379,225.04445 210.89354,222.36411 214.23842,221.02395 217.29293,219.25967 219.70302,216.24277 222.11312,213.22588 223.85006,209.00265 224.73132,202.83389 224.92145,201.67032 223.15898,201.41855 223.01572,202.58882 222.16378,208.5524 221.21427,211.05578 219.04224,213.77466 216.87022,216.49355 214.1402,218.08732 210.94229,219.3686 204.92081,221.78118 197.26612,222.97665 189.72628,228.43942 189.75208,225.41341 189.97901,218.70054 191.37348,211.33433 193.26001,201.36884 196.62072,191.83016 204.81519,187.52089 205.63998,187.10209 205.32281,185.85549 204.39815,185.8818 Z"
     id="path997"
     inkscape:connector-curvature="0"
     sodipodi:nodetypes="ccsccccccccccscc" />
  <path
     style="opacity:1;fill:none;fill-opacity:1;stroke:#000000;stroke-width:1;stroke-linecap:round;stroke-linejoin:miter;stroke-miterlimit:4.53000021;stroke-dasharray:none;stroke-opacity:1"
     d="M 230.97957,158.60149 C 213.64767,152.44867 202.46859,194.65186 202.46859,194.65186 207.23486,197.16499 217.57709,192.50025 217.57709,192.50025 M 217.1884,177.40555 C 212.74157,195.20411 226.29996,202.19124 226.73325,208.08409 229.33304,207.13084 231.40665,199.97317 231.40665,199.97317"
     id="path999"
     inkscape:connector-curvature="0"
     sodipodi:nodetypes="cccccc" />
  <path
     style="opacity:1;fill:none;fill-opacity:1;stroke:#000000;stroke-width:1;stroke-linecap:butt;stroke-linejoin:miter;stroke-miterlimit:4.53000021;stroke-dasharray:none;stroke-opacity:1"
     d="M 253.50564,157.58435 C 254.60824,158.58194 255.48546,182.53817 255.48546,182.53817 280.40769,190.09884 257.829,219.55996 326.70178,238.59473 326.70178,238.59473 319.16122,225.60105 323.08157,221.68069 323.08157,221.68069 351.1317,248.1219 358.13234,260.16298 358.13234,260.16298 361.80826,248.25522 359.84809,241.53462 L 368.42695,251.58414 370.87806,244.96616 C 389.35971,265.68801 408.3799,301.83172 408.3799,301.83172 553.99293,556.09446 460.1302,302.39678 460.1302,302.39678 460.1302,302.39678 444.06649,244.41336 417.46411,235.73259 416.07393,228.9955 394.54052,198.21926 371.85849,195.69902 371.85849,195.69902 316.79131,150.58372 253.50564,157.58435 Z"
     id="path1001"
     inkscape:connector-curvature="0"
     sodipodi:nodetypes="ccccccccccccc" />
  <path
     style="color:#000000;font-style:normal;font-variant:normal;font-weight:normal;font-stretch:normal;font-size:medium;line-height:normal;font-family:sans-serif;font-variant-ligatures:normal;font-variant-position:normal;font-variant-caps:normal;font-variant-numeric:normal;font-variant-alternates:normal;font-feature-settings:normal;text-indent:0;text-align:start;text-decoration:none;text-decoration-line:none;text-decoration-style:solid;text-decoration-color:#000000;letter-spacing:normal;word-spacing:normal;text-transform:none;writing-mode:lr-tb;direction:ltr;text-orientation:mixed;dominant-baseline:auto;baseline-shift:baseline;text-anchor:start;white-space:normal;shape-padding:0;clip-rule:nonzero;display:inline;overflow:visible;visibility:visible;opacity:1;isolation:auto;mix-blend-mode:normal;color-interpolation:sRGB;color-interpolation-filters:linearRGB;solid-color:#000000;solid-opacity:1;vector-effect:none;fill:none;fill-opacity:1;fill-rule:nonzero;stroke:#000000;stroke-width:1;stroke-linecap:round;stroke-linejoin:miter;stroke-miterlimit:4.53000021;stroke-dasharray:none;stroke-dashoffset:0;stroke-opacity:1;color-rendering:auto;image-rendering:auto;shape-rendering:auto;text-rendering:auto;enable-background:accumulate"
     d="M 243.79031,135.54887 243.09501,136.49772 C 243.09501,136.49772 222.51848,164.36383 225.32642,190.19684 L 225.3596,190.50285 225.57827,190.7195 C 231.76088,196.83601 231.72805,207.19091 231.72805,207.19091 231.72805,208.5142 230.99697,210.72133 230.99697,210.72133 230.99697,210.72133 233.53686,208.64691 233.46124,207.2102 233.46124,207.2102 233.64709,196.54719 227.02779,189.73917 224.76489,167.54356 241.28632,144.03809 244.55019,139.28497 255.74255,157.03037 256.75355,182.27301 252.0409,205.79115 252.0409,205.79115 266.0086,165.55795 244.49036,136.49434 Z"
     id="path1003"
     inkscape:connector-curvature="0"
     sodipodi:nodetypes="ccccccccccccc" />
  <path
     style="opacity:1;fill:none;fill-opacity:1;stroke:#000000;stroke-width:1;stroke-linecap:butt;stroke-linejoin:miter;stroke-miterlimit:4.53000021;stroke-dasharray:none;stroke-opacity:1"
     d="M 200.17866,170.98246 C 200.17866,170.98246 206.45493,169.17396 213.38769,168.654"
     id="path1005"
     inkscape:connector-curvature="0"
     sodipodi:nodetypes="cc" />
  <path
     style="opacity:1;fill:none;fill-opacity:1;stroke:#000000;stroke-width:1;stroke-linecap:butt;stroke-linejoin:miter;stroke-miterlimit:4.53000021;stroke-dasharray:none;stroke-opacity:1"
     d="M 255.48546,182.53817 C 275.09428,186.21483 265.73295,225.36022 327.50071,239.08638 327.50071,239.08638 318.91471,230.01444 323.08157,221.68069"
     id="path1007"
     inkscape:connector-curvature="0"
     sodipodi:nodetypes="ccc" />
  <path
     style="opacity:1;fill:none;fill-opacity:1;stroke:#000000;stroke-width:1;stroke-linecap:butt;stroke-linejoin:miter;stroke-miterlimit:4.53000021;stroke-dasharray:none;stroke-opacity:1"
     d="M 307.39452,200.111 C 304.94342,208.93497 334.35665,227.31822 358.13234,260.16298 358.13234,260.16298 363.27963,247.90749 359.84809,241.53462 363.03453,242.76017 364.7503,250.11347 368.42695,251.58414 368.42695,251.58414 371.36828,246.68193 371.61339,240.30906"
     id="path1009"
     inkscape:connector-curvature="0"
     sodipodi:nodetypes="ccccc" />
  <path
     style="opacity:1;fill:none;fill-opacity:1;stroke:#000000;stroke-width:1;stroke-linecap:butt;stroke-linejoin:miter;stroke-miterlimit:4.53000021;stroke-dasharray:none;stroke-opacity:1"
     d="M 370.87806,244.96616 C 382.88682,256.09548 462.91232,395.64626 464.8997,394.05635"
     id="path1011"
     inkscape:connector-curvature="0"
     sodipodi:nodetypes="cc" />
  <path
     style="opacity:1;fill:none;fill-opacity:1;stroke:#000000;stroke-width:1;stroke-linecap:round;stroke-linejoin:miter;stroke-miterlimit:4.53000021;stroke-dasharray:none;stroke-opacity:1"
     d="M 253.96069,157.53184 C 308.86536,148.70787 383.13375,196.25924 381.90819,210.96585"
     id="path1013"
     inkscape:connector-curvature="0"
     sodipodi:nodetypes="cc" />
  <path
     style="color:#000000;font-style:normal;font-variant:normal;font-weight:normal;font-stretch:normal;font-size:medium;line-height:normal;font-family:sans-serif;font-variant-ligatures:normal;font-variant-position:normal;font-variant-caps:normal;font-variant-numeric:normal;font-variant-alternates:normal;font-feature-settings:normal;text-indent:0;text-align:start;text-decoration:none;text-decoration-line:none;text-decoration-style:solid;text-decoration-color:#000000;letter-spacing:normal;word-spacing:normal;text-transform:none;writing-mode:lr-tb;direction:ltr;text-orientation:mixed;dominant-baseline:auto;baseline-shift:baseline;text-anchor:start;white-space:normal;shape-padding:0;clip-rule:nonzero;display:inline;overflow:visible;visibility:visible;opacity:1;isolation:auto;mix-blend-mode:normal;color-interpolation:sRGB;color-interpolation-filters:linearRGB;solid-color:#000000;solid-opacity:1;vector-effect:none;fill:none;fill-opacity:1;fill-rule:nonzero;stroke:#000000;stroke-width:1;stroke-linecap:butt;stroke-linejoin:miter;stroke-miterlimit:4.53000021;stroke-dasharray:none;stroke-dashoffset:0;stroke-opacity:1;color-rendering:auto;image-rendering:auto;shape-rendering:auto;text-rendering:auto;enable-background:accumulate"
     d="M 374.56312,195.69001 C 373.95985,195.65398 372.44246,195.65597 371.85849,195.69902 L 371.96554,197.84967 C 376.07679,197.54737 382.1039,199.61515 387.36549,203.16006 392.62707,206.70494 398.04251,211.69084 402.87137,217.0491 407.70023,222.40737 411.94601,228.14069 414.88848,233.16325 416.36941,235.56908 417.78501,239.17138 419.95971,246.53802 420.33122,243.49172 417.72001,234.19648 416.14929,231.73114 413.14228,226.59841 408.84752,220.80427 403.95699,215.37758 399.06647,209.95089 393.58404,204.89455 388.18175,201.25485 383.45475,198.07013 378.78611,195.94221 374.56312,195.69011 Z"
     id="path1015"
     inkscape:connector-curvature="0"
     sodipodi:nodetypes="ccccscccsscc" />
  <path
     style="opacity:1;fill:none;fill-opacity:1;stroke:#000000;stroke-width:1;stroke-linecap:butt;stroke-linejoin:miter;stroke-miterlimit:4.53000021;stroke-dasharray:none;stroke-opacity:1"
     d="M 271.44605,329.86885 C 289.26862,345.96329 299.13308,360.86816 304.20179,373.89373 313.08751,399.64267 289.57559,443.01883 281.89818,462.38706 300.98565,428.25468 313.83022,396.70416 306.63486,372.73558 300.1585,354.34336 283.66698,337.65639 272.60817,327.95439 271.44447,331.4068 271.34445,328.97957 271.44605,329.86885 Z"
     id="path1017"
     inkscape:connector-curvature="0"
     sodipodi:nodetypes="cccccc" />
  <path
     inkscape:connector-curvature="0"
     id="path1019"
     d="M 154.11133,22.380859 C 151.51155,24.922872 148.91229,27.463845 146.3125,30.005859 150.13084,40.184722 155.72103,49.859824 156.70117,60.880859 161.62684,88.84084 154.1315,119.08606 134.63281,140.07812 133.83326,140.95299 133.02303,141.81366 132.20312,142.66016 137.29897,145.83797 144.4216,151.50742 144.60938,153.10352 144.33429,155.30401 137.6073,155.44224 135.68164,155.30469 134.03109,155.16715 129.07914,158.0554 127.29102,155.99219 127.29102,155.99219 125.16999,153.74551 123.02344,151.20508 97.865623,172.42147 65.427708,183.09848 31.748047,188.93945 29.549031,193.88823 30.131088,196.9121 29.322266,200.89844 66.965563,210.89104 108.20163,216.10559 145.6875,202.66211 172.34869,193.36634 194.78158,170.68912 200.01758,142.43359 207.06952,107.86218 191.57243,72.186503 166.9375,48.205078 162.66229,39.596898 158.38654,30.989039 154.11133,22.380859 Z"
     style="opacity:1;fill:none;fill-opacity:1;stroke:#000000;stroke-width:1;stroke-linecap:butt;stroke-linejoin:miter;stroke-miterlimit:4.53000021;stroke-dasharray:none;stroke-opacity:1" />
  <path
     style="color:#000000;font-style:normal;font-variant:normal;font-weight:normal;font-stretch:normal;font-size:medium;line-height:normal;font-family:sans-serif;font-variant-ligatures:normal;font-variant-position:normal;font-variant-caps:normal;font-variant-numeric:normal;font-variant-alternates:normal;font-feature-settings:normal;text-indent:0;text-align:start;text-decoration:none;text-decoration-line:none;text-decoration-style:solid;text-decoration-color:#000000;letter-spacing:normal;word-spacing:normal;text-transform:none;writing-mode:lr-tb;direction:ltr;text-orientation:mixed;dominant-baseline:auto;baseline-shift:baseline;text-anchor:start;white-space:normal;shape-padding:0;clip-rule:nonzero;display:inline;overflow:visible;visibility:visible;opacity:1;isolation:auto;mix-blend-mode:normal;color-interpolation:sRGB;color-interpolation-filters:linearRGB;solid-color:#000000;solid-opacity:1;vector-effect:none;fill:none;fill-opacity:1;fill-rule:nonzero;stroke:#000000;stroke-width:1;stroke-linecap:butt;stroke-linejoin:miter;stroke-miterlimit:4.53000021;stroke-dasharray:none;stroke-dashoffset:0;stroke-opacity:1;color-rendering:auto;image-rendering:auto;shape-rendering:auto;text-rendering:auto;enable-background:accumulate"
     d="M 172.93938,62.745178 C 224.54929,160.84107 136.03093,213.38902 52.297505,195.25927 145.26646,208.36947 215.61129,154.75771 172.93938,62.745178 Z"
     id="path1021"
     inkscape:connector-curvature="0"
     sodipodi:nodetypes="ccc" />
  <path
     style="opacity:1;fill:none;stroke:#000000;stroke-width:1;stroke-linecap:butt;stroke-linejoin:miter;stroke-miterlimit:4.53000021;stroke-dasharray:none;stroke-opacity:1"
     d="M 149.54247,129.15632 C 158.36644,127.68566 164.73931,130.62697 162.04309,138.96072"
     id="path1023"
     inkscape:connector-curvature="0"
     sodipodi:nodetypes="cc" />
  <path
     style="opacity:1;fill:none;stroke:#000000;stroke-width:1;stroke-linecap:butt;stroke-linejoin:miter;stroke-miterlimit:4.53000021;stroke-dasharray:none;stroke-opacity:1"
     d="M 154.19957,107.34152 161.79798,115.43015"
     id="path1025"
     inkscape:connector-curvature="0" />
  <path
     style="opacity:1;fill:none;stroke:#000000;stroke-width:1;stroke-linecap:butt;stroke-linejoin:miter;stroke-miterlimit:4.53000021;stroke-dasharray:none;stroke-opacity:1"
     d="M 162.77843,104.6453 152.97401,114.93993"
     id="path1027"
     inkscape:connector-curvature="0" />
  <path
     style="opacity:1;fill:none;stroke:#000000;stroke-width:1;stroke-linecap:butt;stroke-linejoin:miter;stroke-miterlimit:4.53000021;stroke-dasharray:none;stroke-opacity:1"
     d="M 168.17085,106.60618 176.99482,116.6557"
     id="path1029"
     inkscape:connector-curvature="0" />
  <path
     style="opacity:1;fill:none;stroke:#000000;stroke-width:1;stroke-linecap:butt;stroke-linejoin:miter;stroke-miterlimit:4.53000021;stroke-dasharray:none;stroke-opacity:1"
     d="M 166.20997,114.93993 179.44592,105.13553"
     id="path1031"
     inkscape:connector-curvature="0" />
  <path
     sodipodi:nodetypes="ccccc"
     style="opacity:1;fill:none;fill-opacity:1;stroke:#000000;stroke-width:1;stroke-linecap:butt;stroke-linejoin:miter;stroke-miterlimit:4.53000021;stroke-dasharray:none;stroke-opacity:1"
     d="M 21.128551,198.62644 C 22.244813,194.27067 24.295073,188.76686 24.295073,188.76686 L 31.747792,188.94018 29.274547,201.05291 Z"
     id="path1035"
     inkscape:connector-curvature="0" />
  <path
     style="opacity:1;fill:none;fill-opacity:1;stroke:#ff0000;stroke-width:1;stroke-linecap:butt;stroke-linejoin:miter;stroke-miterlimit:4.53000021;stroke-dasharray:none;stroke-opacity:1"
     d="M 124.25586,152.64258 C 122.29895,155.31964 122.08719,157.96329 125.5957,158.1582 133.68433,154.23644 123.88101,170.28615 129.27344,170.53125 135.64631,172.24703 130.25404,161.95206 134.66602,159.25586 137.60735,157.54009 144.02843,156.7363 147.70508,155.75586 151.13663,152.81454 150.64648,148.40234 150.64648,148.40234 150.64648,148.40234 148.39506,145.40033 145.5332,145.4707 145.12437,145.4808 144.70238,145.5538 144.27344,145.70703 L 138.65234,147.2207"
     id="path1037"
     inkscape:connector-curvature="0"
     sodipodi:nodetypes="ccccccccc" />
  <path
     style="opacity:1;fill:none;fill-opacity:1;stroke:#000000;stroke-width:1;stroke-linecap:butt;stroke-linejoin:miter;stroke-miterlimit:4.53000021;stroke-dasharray:none;stroke-opacity:1"
     d="M 139.89888,23.593792 148.56483,9.38163 154.11104,22.380559 146.31168,30.006597 Z"
     id="path1039"
     inkscape:connector-curvature="0" />
  <path
     style="opacity:1;fill:none;stroke:#000000;stroke-width:1;stroke-linecap:butt;stroke-linejoin:miter;stroke-miterlimit:4.53000021;stroke-dasharray:none;stroke-opacity:1"
     d="M 29.321326,200.89918 C 182.24226,242.6049 245.23452,134.92865 166.93663,48.205091"
     id="path1041"
     inkscape:connector-curvature="0"
     sodipodi:nodetypes="cc" />
  <path
     style="opacity:1;fill:none;fill-opacity:1;stroke:#000000;stroke-width:1;stroke-linecap:butt;stroke-linejoin:miter;stroke-miterlimit:4.53000021;stroke-dasharray:none;stroke-opacity:1"
     d="M 118.64091,144.20397 C 117.7365,145.9239 127.29142,155.99155 127.29142,155.99155 129.07954,158.05476 134.03125,155.16628 135.6818,155.30382 137.60746,155.44137 144.33441,155.30382 144.6095,153.10333 144.33441,150.76501 129.1657,139.67648 127.30957,140.50277"
     id="path1047"
     inkscape:connector-curvature="0"
     sodipodi:nodetypes="ccccc" />
  <path
     style="opacity:1;fill:none;fill-opacity:1;stroke:#000000;stroke-width:1;stroke-linecap:butt;stroke-linejoin:miter;stroke-miterlimit:4.53000021;stroke-dasharray:none;stroke-opacity:1"
     d="M 118.64091,144.20397 88.879173,104.08397 127.88067,140.36218 C 128.26972,143.57179 119.0786,144.8848 118.64091,144.20397 Z"
     id="path1049"
     inkscape:connector-curvature="0"
     sodipodi:nodetypes="cccc" />
  <path
     style="color:#000000;font-style:normal;font-variant:normal;font-weight:normal;font-stretch:normal;font-size:medium;line-height:normal;font-family:sans-serif;font-variant-ligatures:normal;font-variant-position:normal;font-variant-caps:normal;font-variant-numeric:normal;font-variant-alternates:normal;font-feature-settings:normal;text-indent:0;text-align:start;text-decoration:none;text-decoration-line:none;text-decoration-style:solid;text-decoration-color:#000000;letter-spacing:normal;word-spacing:normal;text-transform:none;writing-mode:lr-tb;direction:ltr;text-orientation:mixed;dominant-baseline:auto;baseline-shift:baseline;text-anchor:start;white-space:normal;shape-padding:0;clip-rule:nonzero;display:inline;overflow:visible;visibility:visible;opacity:1;isolation:auto;mix-blend-mode:normal;color-interpolation:sRGB;color-interpolation-filters:linearRGB;solid-color:#000000;solid-opacity:1;vector-effect:none;fill:none;fill-opacity:1;fill-rule:nonzero;stroke:#000000;stroke-width:1;stroke-linecap:round;stroke-linejoin:miter;stroke-miterlimit:4.53000021;stroke-dasharray:none;stroke-dashoffset:0;stroke-opacity:1;color-rendering:auto;image-rendering:auto;shape-rendering:auto;text-rendering:auto;enable-background:accumulate"
     d="M 134.51463,385.55091 C 134.72353,387.61644 133.89241,388.80641 133.0771,389.60515 131.66106,391.02152 130.75581,390.40107 130.75964,391.67971 131.48715,392.78578 133.41748,391.07597 133.41748,391.07597 134.92106,389.77507 135.37376,387.19545 134.51463,385.55091 Z"
     id="path1051"
     inkscape:connector-curvature="0"
     sodipodi:nodetypes="ccccc" />
  <path
     style="opacity:1;fill:none;stroke:#000000;stroke-width:1;stroke-linecap:round;stroke-linejoin:miter;stroke-miterlimit:4.53000021;stroke-dasharray:none;stroke-opacity:1"
     d="M 417.46411,235.73259 C 464.34691,255.38432 490.95452,425.6565 491.89384,410.12044"
     id="path1053"
     inkscape:connector-curvature="0"
     sodipodi:nodetypes="cc" />
  <path
     style="opacity:1;fill:none;fill-opacity:1;stroke:#000000;stroke-width:1;stroke-linecap:butt;stroke-linejoin:miter;stroke-miterlimit:4.53000021;stroke-dasharray:none;stroke-opacity:1"
     d="M 370.54026,240.34398 C 370.54026,240.34398 370.91484,236.45226 369.95753,233.49708 369.95753,233.49708 372.41327,236.01524 372.66301,240.42721 Z"
     id="path1055"
     inkscape:connector-curvature="0"
     sodipodi:nodetypes="cccc" />
  <path
     style="opacity:1;fill:none;fill-opacity:1;stroke:#000000;stroke-width:1;stroke-linecap:butt;stroke-linejoin:miter;stroke-miterlimit:4.53000021;stroke-dasharray:none;stroke-opacity:1"
     d="M 308.38266,200.42306 C 308.38266,200.42306 309.29117,197.30138 311.62947,195.87198 311.62947,195.87198 307.96474,195.88931 306.3958,199.86811 Z"
     id="path1057"
     inkscape:connector-curvature="0"
     sodipodi:nodetypes="cccc" />
  <path
     style="opacity:1;fill:none;fill-opacity:1;stroke:#000000;stroke-width:1;stroke-linecap:butt;stroke-linejoin:miter;stroke-miterlimit:4.53000021;stroke-dasharray:none;stroke-opacity:1"
     d="M 216.51145,177.25244 C 216.64134,176.79785 217.32435,175.65619 218.54298,174.9678 L 217.868,177.54374 Z"
     id="path1059"
     inkscape:connector-curvature="0"
     sodipodi:nodetypes="cccc" />
  <path
     style="opacity:1;fill:none;fill-opacity:1;stroke:#000000;stroke-width:1;stroke-linecap:butt;stroke-linejoin:miter;stroke-miterlimit:4.53000021;stroke-dasharray:none;stroke-opacity:1"
     d="M 380.8936,210.46055 C 380.92558,211.16789 380.20497,222.42825 382.47318,225.07092 381.57999,217.27582 382.72737,215.44308 382.97098,210.5576 Z"
     id="path1061"
     inkscape:connector-curvature="0"
     sodipodi:nodetypes="cccc" />
  <rect
     style="opacity:1;fill:none;fill-opacity:1;stroke:#000000;stroke-width:11.80813122;stroke-miterlimit:4;stroke-dasharray:none;stroke-opacity:1"
     id="rect1515"
     width="489.25992"
     height="471.88773"
     x="5.9040656"
     y="5.9040656" />
</svg>
