<?xml version="1.0" encoding="UTF-8" standalone="no"?>
<!-- Created with Inkscape (http://www.inkscape.org/) -->

<svg
   xmlns:dc="http://purl.org/dc/elements/1.1/"
   xmlns:cc="http://creativecommons.org/ns#"
   xmlns:rdf="http://www.w3.org/1999/02/22-rdf-syntax-ns#"
   xmlns:svg="http://www.w3.org/2000/svg"
   xmlns="http://www.w3.org/2000/svg"
   xmlns:xlink="http://www.w3.org/1999/xlink"
   xmlns:sodipodi="http://sodipodi.sourceforge.net/DTD/sodipodi-0.dtd"
   xmlns:inkscape="http://www.inkscape.org/namespaces/inkscape"
   inkscape:export-ydpi="24.242424"
   inkscape:export-xdpi="24.242424"
   inkscape:export-filename="/home/bc/svgs/bananicorn_logo.png"
   inkscape:version="0.92.2 2405546, 2018-03-11"
   sodipodi:docname="bananicorn.svg"
   viewBox="0 0 501.06805 483.69586"
   height="483.69586"
   width="501.06805"
   id="svg2"
   version="1.1">
  <sodipodi:namedview
     fit-margin-bottom="0"
     fit-margin-right="0"
     fit-margin-left="0"
     fit-margin-top="0"
     inkscape:current-layer="svg2"
     inkscape:window-maximized="0"
     inkscape:window-y="0"
     inkscape:window-x="0"
     inkscape:cy="345.85723"
     inkscape:cx="-60.663904"
     inkscape:zoom="0.99999996"
     showgrid="false"
     id="namedview4"
     inkscape:window-height="1048"
     inkscape:window-width="1678"
     inkscape:pageshadow="2"
     inkscape:pageopacity="0"
     guidetolerance="10"
     gridtolerance="10"
     objecttolerance="10"
     borderopacity="1"
     bordercolor="#666666"
     pagecolor="#ffffff"
     inkscape:snap-global="true"
     viewbox-x="30" />
  <metadata
     id="metadata8">
    <rdf:RDF>
      <cc:Work
         rdf:about="">
        <dc:format>image/svg+xml</dc:format>
        <dc:type
           rdf:resource="http://purl.org/dc/dcmitype/StillImage" />
        <dc:title></dc:title>
      </cc:Work>
    </rdf:RDF>
  </metadata>
  <defs
     id="defs6">
    <linearGradient
       id="linearGradient932"
       inkscape:collect="always">
      <stop
         id="stop928"
         offset="0"
         style="stop-color:#d2d2d2;stop-opacity:1;" />
      <stop
         id="stop930"
         offset="1"
         style="stop-color:#ffffff;stop-opacity:0.98148149" />
    </linearGradient>
    <linearGradient
       id="linearGradient881"
       inkscape:collect="always">
      <stop
         id="stop877"
         offset="0"
         style="stop-color:#ff0000;stop-opacity:1;" />
      <stop
         id="stop879"
         offset="1"
         style="stop-color:#000000;stop-opacity:1" />
    </linearGradient>
    <linearGradient
       id="linearGradient870"
       inkscape:collect="always">
      <stop
         id="stop866"
         offset="0"
         style="stop-color:#000021;stop-opacity:1" />
      <stop
         id="stop868"
         offset="1"
         style="stop-color:#fffcff;stop-opacity:0.94949496" />
    </linearGradient>
    <linearGradient
       gradientTransform="matrix(0.17331905,0,0,0.17331905,18.822183,9.5039449)"
       gradientUnits="userSpaceOnUse"
       y2="2062.2712"
       x2="815.86084"
       y1="3246.0476"
       x1="-475.24075"
       id="linearGradient872"
       xlink:href="#linearGradient870"
       inkscape:collect="always" />
    <radialGradient
       gradientUnits="userSpaceOnUse"
       gradientTransform="matrix(0.17331905,0,0,0.15504665,18.822183,36.671995)"
       r="43.986423"
       fy="1486.8356"
       fx="1049.2939"
       cy="1486.8356"
       cx="1049.2939"
       id="radialGradient883"
       xlink:href="#linearGradient881"
       inkscape:collect="always" />
    <radialGradient
       gradientUnits="userSpaceOnUse"
       gradientTransform="matrix(0.38041192,0.38018409,-0.07001359,0.07005554,-190.69838,-416.35477)"
       r="681.96155"
       fy="996.13092"
       fx="1428.1221"
       cy="996.13092"
       cx="1428.1221"
       id="radialGradient936"
       xlink:href="#linearGradient932"
       inkscape:collect="always" />
    <linearGradient
       gradientUnits="userSpaceOnUse"
       y2="1781.7898"
       x2="1640.9358"
       y1="1700.6409"
       x1="1571.2335"
       id="linearGradient922"
       xlink:href="#linearGradient920"
       inkscape:collect="always"
       gradientTransform="matrix(0.17331905,0,0,0.17331905,-190.54808,88.775831)" />
    <linearGradient
       id="linearGradient920"
       inkscape:collect="always">
      <stop
         id="stop916"
         offset="0"
         style="stop-color:#000000;stop-opacity:0.80092591" />
      <stop
         id="stop918"
         offset="1"
         style="stop-color:#000000;stop-opacity:0;" />
    </linearGradient>
  </defs>
  <path
     style="fill:none;fill-opacity:1;stroke:#001feb;stroke-width:2;stroke-linecap:butt;stroke-miterlimit:4.53000021;stroke-dasharray:none;stroke-opacity:1"
     d="M 194.92919,263.69632 C 194.02721,264.92561 193.53951,266.40989 193.53661,267.9346 193.53661,271.90415 196.75456,275.1221 200.72411,275.1221 204.69366,275.1221 207.91161,271.90415 207.91161,267.9346 207.90861,265.09545 206.23512,262.52396 203.64013,261.3721"
     id="path880"
     inkscape:connector-curvature="0"
     sodipodi:nodetypes="ccscc" />
  <path
     style="opacity:1;fill:none;fill-opacity:1;stroke:#000000;stroke-width:1;stroke-linecap:butt;stroke-linejoin:miter;stroke-miterlimit:4.53000021;stroke-dasharray:none;stroke-opacity:1"
     d="M 193.10714,163.05621 207.24415,179.91873"
     id="path952"
     inkscape:connector-curvature="0"
     sodipodi:nodetypes="cc" />
  <path
     style="color:#000000;font-style:normal;font-variant:normal;font-weight:normal;font-stretch:normal;font-size:medium;line-height:normal;font-family:sans-serif;font-variant-ligatures:normal;font-variant-position:normal;font-variant-caps:normal;font-variant-numeric:normal;font-variant-alternates:normal;font-feature-settings:normal;text-indent:0;text-align:start;text-decoration:none;text-decoration-line:none;text-decoration-style:solid;text-decoration-color:#000000;letter-spacing:normal;word-spacing:normal;text-transform:none;writing-mode:lr-tb;direction:ltr;text-orientation:mixed;dominant-baseline:auto;baseline-shift:baseline;text-anchor:start;white-space:normal;shape-padding:0;clip-rule:nonzero;display:inline;overflow:visible;visibility:visible;opacity:1;isolation:auto;mix-blend-mode:normal;color-interpolation:sRGB;color-interpolation-filters:linearRGB;solid-color:#000000;solid-opacity:1;vector-effect:none;fill:none;fill-opacity:1;fill-rule:nonzero;stroke:#000000;stroke-width:1;stroke-linecap:round;stroke-linejoin:round;stroke-miterlimit:4.53000021;stroke-dasharray:none;stroke-dashoffset:0;stroke-opacity:1;color-rendering:auto;image-rendering:auto;shape-rendering:auto;text-rendering:auto;enable-background:accumulate"
     d="M 142.30727,400.20539 C 133.73961,404.94695 129.67218,415.15853 126.694,422.39867 125.27763,425.88576 124.24688,428.95295 123.41583,431.20849 123.00031,432.33628 122.63282,433.26255 122.3072,433.9166 121.98158,434.57068 121.64875,434.91948 121.6041,434.94298 121.54628,434.97349 121.49306,435.012 121.44602,435.05741 121.44602,435.05741 119.65139,437.52471 114.47148,438.60934 109.29158,439.69399 102.14992,438.85138 94.025591,430.6932 93.373581,430.01121 90.977521,431.61084 91.656811,432.26567 100.03815,440.68194 107.78625,441.72971 113.36942,440.56062 118.90679,439.40113 122.42184,436.48628 122.42184,436.48628 122.93659,436.15498 123.75913,435.21745 124.09919,434.5344 124.47056,433.78842 124.84574,432.76343 125.2674,431.61902 126.1107,429.33018 127.06257,426.4308 128.46048,422.98915 131.71172,415.16419 134.76464,405.68661 142.30727,400.20539 Z"
     id="path956"
     inkscape:connector-curvature="0"
     sodipodi:nodetypes="ccccccccccccccc" />
  <path
     style="color:#000000;font-style:normal;font-variant:normal;font-weight:normal;font-stretch:normal;font-size:medium;line-height:normal;font-family:sans-serif;font-variant-ligatures:normal;font-variant-position:normal;font-variant-caps:normal;font-variant-numeric:normal;font-variant-alternates:normal;font-feature-settings:normal;text-indent:0;text-align:start;text-decoration:none;text-decoration-line:none;text-decoration-style:solid;text-decoration-color:#000000;letter-spacing:normal;word-spacing:normal;text-transform:none;writing-mode:lr-tb;direction:ltr;text-orientation:mixed;dominant-baseline:auto;baseline-shift:baseline;text-anchor:start;white-space:normal;shape-padding:0;clip-rule:nonzero;display:inline;overflow:visible;visibility:visible;opacity:1;isolation:auto;mix-blend-mode:normal;color-interpolation:sRGB;color-interpolation-filters:linearRGB;solid-color:#000000;solid-opacity:1;vector-effect:none;fill:none;fill-opacity:1;fill-rule:nonzero;stroke:#000000;stroke-width:1;stroke-linecap:round;stroke-linejoin:miter;stroke-miterlimit:4.53000021;stroke-dasharray:none;stroke-dashoffset:0;stroke-opacity:1;color-rendering:auto;image-rendering:auto;shape-rendering:auto;text-rendering:auto;enable-background:accumulate"
     d="M 162.06395,207.43533 C 161.97825,207.43333 161.89293,207.44813 161.81243,207.47763 154.79218,209.9442 149.68758,216.75387 145.92767,223.10071 144.04771,226.27415 142.50621,229.34545 141.26058,231.71961 140.63777,232.90669 140.08789,233.9201 139.61811,234.67179 139.14834,235.42349 138.71187,235.90892 138.56161,236.00283 L 138.57061,235.99783 C 123.67194,245.01061 119.50148,255.15822 118.63045,264.62121 117.75942,274.08421 119.99074,282.85013 117.90333,289.28633 L 117.89333,289.31643 117.88633,289.34763 C 116.62977,294.9124 114.61743,299.16279 112.9227,302.46031 111.26553,305.68477 109.83397,307.92178 109.87777,309.94315 109.4739,312.30863 108.05853,314.35967 105.92833,316.4504 103.79359,318.5456 100.96229,320.65032 97.888631,323.0846 91.741301,327.95317 84.618891,334.16879 80.181651,344.52233 L 80.153211,344.58863 80.139001,344.65933 C 80.131201,344.69823 79.994731,344.97467 79.671851,345.3086 79.348971,345.64255 78.868821,346.04831 78.276841,346.49679 77.092861,347.39377 75.461981,348.46896 73.663911,349.66494 70.067771,352.05692 65.799851,354.92606 62.914411,358.04553 L 62.831811,358.13493 62.784411,358.24665 C 58.233971,369.02888 53.292051,378.60939 49.512201,383.63484 L 49.503701,383.64624 49.495601,383.65804 C 48.674852,384.84811 48.604668,386.50565 48.793186,388.33425 48.981703,390.16287 49.475406,392.18649 50.046361,394.08696 51.182561,397.86888 52.628231,401.14825 52.642761,401.1812 54.549311,407.35349 60.767701,412.0982 67.164331,416.61675 73.580851,421.14936 80.221221,425.48022 83.104601,430.29677 L 83.223421,430.49581 83.438381,430.58311 C 89.405571,433.00895 94.495531,432.1931 98.834661,429.48835 103.17379,426.78361 106.80884,422.26814 110.25239,417.28155 117.13951,407.30835 123.34089,395.46128 131.74768,392.04601 132.61256,391.70161 132.08568,390.40491 131.22569,390.76136 122.02644,394.49857 115.2718,406.19698 108.46096,416.05972 105.05554,420.99109 102.2524,424.38187 98.209541,426.90195 94.210441,429.39476 90.364431,430.63578 84.828531,428.44024 81.603701,423.25159 74.791971,418.62482 68.501001,414.18092 62.117911,409.67194 56.507341,405.73851 54.816621,400.17865 L 54.804771,400.13875 54.787841,400.10055 C 54.787841,400.10055 53.353401,396.84699 52.241541,393.14613 51.685621,391.29569 51.213521,389.33486 51.039821,387.65001 50.866121,385.96515 51.037521,384.58032 51.504601,383.903 V 383.903 C 55.426281,378.68898 59.445941,369.70029 64.005661,358.91246 66.715391,356.01132 70.872481,353.18659 74.431551,350.81927 76.226341,349.62545 77.867401,348.54635 79.113871,347.60204 79.737111,347.12987 80.261651,346.69296 80.668321,346.27235 81.075001,345.85174 81.392651,345.46176 81.498701,344.9315 L 81.456051,345.0686 C 85.761141,335.02337 92.643491,329.00686 98.749361,324.17112 101.8023,321.75325 104.65997,319.63774 106.89942,317.43978 109.13887,315.24181 110.78035,312.93104 111.24831,310.15902 L 111.26121,310.08252 111.25721,310.00502 C 111.18941,308.78416 112.4437,306.42546 114.1559,303.09392 115.86616,299.76617 117.94035,295.3897 119.23395,289.67185 121.49501,282.63742 119.516,273.88999 120.35747,264.7481 121.20061,255.58814 125.37475,247.75328 139.98146,238.91713 L 141.4875,237.13981 C 141.99572,236.3266 142.55407,235.29329 143.18176,234.0969 144.43715,231.70415 145.96496,228.66242 147.81432,225.54065 151.51304,219.29709 157.20129,212.09433 163.6588,209.82548 164.39603,209.57728 162.84181,207.44986 162.06406,207.43523 Z"
     id="path958"
     inkscape:connector-curvature="0"
     sodipodi:nodetypes="cccscccsccccccscccccsccccccsccscccssccsccsccccsccccccccsscccscsccccccc" />
  <path
     style="opacity:1;fill:none;fill-opacity:1;stroke:#000000;stroke-width:1;stroke-linecap:round;stroke-linejoin:miter;stroke-miterlimit:4.53000021;stroke-dasharray:none;stroke-opacity:1"
     d="M 131.96802,412.79232 C 162.77862,386.2457 164.01653,409.76629 202.11711,364.92588"
     id="path960"
     inkscape:connector-curvature="0"
     sodipodi:nodetypes="cc" />
  <path
     style="opacity:1;fill:none;fill-opacity:1;stroke:#000000;stroke-width:1;stroke-linecap:round;stroke-linejoin:miter;stroke-miterlimit:4.53000021;stroke-dasharray:none;stroke-opacity:1"
     d="M 181.14396,361.34965 C 182.4113,363.1664 219.26681,368.90543 230.00354,364.32519 278.60269,340.0268 288.72832,305.25711 285.12968,271.11864 286.51623,328.83389 254.58961,346.75568 230.50908,361.79749 222.10882,367.72264 181.14396,361.34965 181.14396,361.34965 Z"
     id="path962"
     inkscape:connector-curvature="0"
     sodipodi:nodetypes="ccccc" />
  <path
     style="color:#000000;font-style:normal;font-variant:normal;font-weight:normal;font-stretch:normal;font-size:medium;line-height:normal;font-family:sans-serif;font-variant-ligatures:normal;font-variant-position:normal;font-variant-caps:normal;font-variant-numeric:normal;font-variant-alternates:normal;font-feature-settings:normal;text-indent:0;text-align:start;text-decoration:none;text-decoration-line:none;text-decoration-style:solid;text-decoration-color:#000000;letter-spacing:normal;word-spacing:normal;text-transform:none;writing-mode:lr-tb;direction:ltr;text-orientation:mixed;dominant-baseline:auto;baseline-shift:baseline;text-anchor:start;white-space:normal;shape-padding:0;clip-rule:nonzero;display:inline;overflow:visible;visibility:visible;opacity:1;isolation:auto;mix-blend-mode:normal;color-interpolation:sRGB;color-interpolation-filters:linearRGB;solid-color:#000000;solid-opacity:1;vector-effect:none;fill:none;fill-opacity:1;fill-rule:nonzero;stroke:#000000;stroke-width:1;stroke-linecap:round;stroke-linejoin:round;stroke-miterlimit:4.53000021;stroke-dasharray:none;stroke-dashoffset:0;stroke-opacity:1;color-rendering:auto;image-rendering:auto;shape-rendering:auto;text-rendering:auto;enable-background:accumulate"
     d="M 215.55759,249.42674 C 210.04563,253.67067 201.54965,254.33926 196.01722,256.22903 193.75967,257.05292 191.84098,258.66836 190.33695,262.1185 188.85069,265.52791 187.67305,270.76923 186.60958,279.08447 185.17664,280.25261 184.85997,281.79926 185.52498,282.80576 185.87667,283.33804 186.52344,283.67547 187.20299,283.60871 187.7806,283.55196 188.3349,283.22203 188.82278,282.68117 222.08,284.77244 212.70951,259.72689 216.99558,253.84827 208.67617,255.30259 223.62046,282.28805 188.57025,281.28211 188.33501,281.26582 188.10764,281.37031 187.96668,281.55935 187.58539,282.07107 187.25393,282.2106 187.06725,282.22893 186.88057,282.24727 186.77983,282.18994 186.68168,282.04138 186.48539,281.7443 186.39835,280.91389 187.66202,280.00828 187.81882,279.89594 187.92174,279.72335 187.94603,279.53198 189.01235,271.09842 190.20644,265.88756 191.60807,262.6723 193.0097,259.45706 194.51919,258.25178 196.49249,257.53164 202.95386,255.59042 213.63241,253.34457 215.55759,249.42674 Z"
     id="path964"
     inkscape:connector-curvature="0"
     sodipodi:nodetypes="ccccccccccscccccc" />
  <path
     style="opacity:1;fill:none;fill-opacity:1;stroke:#000000;stroke-width:1;stroke-linecap:butt;stroke-linejoin:miter;stroke-miterlimit:4.53000021;stroke-dasharray:none;stroke-opacity:1"
     d="M 188.77506,270.01826 C 191.8011,258.87693 206.94154,264.78111 215.59078,255.54047"
     id="path967"
     inkscape:connector-curvature="0"
     sodipodi:nodetypes="cc" />
  <path
     style="color:#000000;font-style:normal;font-variant:normal;font-weight:normal;font-stretch:normal;font-size:medium;line-height:normal;font-family:sans-serif;font-variant-ligatures:normal;font-variant-position:normal;font-variant-caps:normal;font-variant-numeric:normal;font-variant-alternates:normal;font-feature-settings:normal;text-indent:0;text-align:start;text-decoration:none;text-decoration-line:none;text-decoration-style:solid;text-decoration-color:#000000;letter-spacing:normal;word-spacing:normal;text-transform:none;writing-mode:lr-tb;direction:ltr;text-orientation:mixed;dominant-baseline:auto;baseline-shift:baseline;text-anchor:start;white-space:normal;shape-padding:0;clip-rule:nonzero;display:inline;overflow:visible;visibility:visible;opacity:1;isolation:auto;mix-blend-mode:normal;color-interpolation:sRGB;color-interpolation-filters:linearRGB;solid-color:#000000;solid-opacity:1;vector-effect:none;fill:none;fill-opacity:1;fill-rule:nonzero;stroke:#000000;stroke-width:1;stroke-linecap:round;stroke-linejoin:miter;stroke-miterlimit:4.53000021;stroke-dasharray:none;stroke-dashoffset:0;stroke-opacity:1;color-rendering:auto;image-rendering:auto;shape-rendering:auto;text-rendering:auto;enable-background:accumulate"
     d="M 107.04562,353.13719 C 91.511541,361.9675 92.366041,367.11377 92.366041,367.11377 97.081241,360.31085 103.78371,356.53036 109.10651,353.27349 114.42932,350.01661 118.38372,346.84548 120.17018,342.85221 116.84012,346.13798 111.91336,350.36866 107.04562,353.13719 Z"
     id="path971"
     inkscape:connector-curvature="0"
     sodipodi:nodetypes="ccscc" />
  <path
     style="color:#000000;font-style:normal;font-variant:normal;font-weight:normal;font-stretch:normal;font-size:medium;line-height:normal;font-family:sans-serif;font-variant-ligatures:normal;font-variant-position:normal;font-variant-caps:normal;font-variant-numeric:normal;font-variant-alternates:normal;font-feature-settings:normal;text-indent:0;text-align:start;text-decoration:none;text-decoration-line:none;text-decoration-style:solid;text-decoration-color:#000000;letter-spacing:normal;word-spacing:normal;text-transform:none;writing-mode:lr-tb;direction:ltr;text-orientation:mixed;dominant-baseline:auto;baseline-shift:baseline;text-anchor:start;white-space:normal;shape-padding:0;clip-rule:nonzero;display:inline;overflow:visible;visibility:visible;opacity:1;isolation:auto;mix-blend-mode:normal;color-interpolation:sRGB;color-interpolation-filters:linearRGB;solid-color:#000000;solid-opacity:1;vector-effect:none;fill:none;fill-opacity:1;fill-rule:nonzero;stroke:#000000;stroke-width:1;stroke-linecap:round;stroke-linejoin:miter;stroke-miterlimit:4.53000021;stroke-dasharray:none;stroke-dashoffset:0;stroke-opacity:1;color-rendering:auto;image-rendering:auto;shape-rendering:auto;text-rendering:auto;enable-background:accumulate"
     d="M 78.979461,384.3416 C 78.055211,384.3416 77.135711,384.63176 76.320101,385.25492 75.232621,386.08582 73.344831,388.66456 72.771801,390.73376 75.046061,388.38978 76.126541,387.17363 77.161991,386.35644 77.957721,385.74847 78.727691,385.6109 79.622981,385.7945 81.413571,386.16171 83.641681,388.08652 85.669171,390.69449 87.696661,393.30247 89.557831,396.54444 90.881611,399.37838 92.218291,401.56671 93.407351,403.88795 93.785721,406.71669 93.833561,405.97518 94.113321,403.90625 93.740021,402.75777 93.366721,401.60929 92.819181,400.25002 92.137831,398.7914 90.775141,395.87416 88.879711,392.56545 86.763591,389.84348 84.647471,387.12148 82.344871,384.93711 79.901581,384.43604 79.596161,384.37342 79.287551,384.34151 78.979461,384.3416 Z"
     id="path973"
     inkscape:connector-curvature="0"
     sodipodi:nodetypes="cscccccccsccc" />
  <path
     style="color:#000000;font-style:normal;font-variant:normal;font-weight:normal;font-stretch:normal;font-size:medium;line-height:normal;font-family:sans-serif;font-variant-ligatures:normal;font-variant-position:normal;font-variant-caps:normal;font-variant-numeric:normal;font-variant-alternates:normal;font-feature-settings:normal;text-indent:0;text-align:start;text-decoration:none;text-decoration-line:none;text-decoration-style:solid;text-decoration-color:#000000;letter-spacing:normal;word-spacing:normal;text-transform:none;writing-mode:lr-tb;direction:ltr;text-orientation:mixed;dominant-baseline:auto;baseline-shift:baseline;text-anchor:start;white-space:normal;shape-padding:0;clip-rule:nonzero;display:inline;overflow:visible;visibility:visible;opacity:1;isolation:auto;mix-blend-mode:normal;color-interpolation:sRGB;color-interpolation-filters:linearRGB;solid-color:#000000;solid-opacity:1;vector-effect:none;fill:none;fill-opacity:1;fill-rule:nonzero;stroke:#000000;stroke-width:1;stroke-linecap:round;stroke-linejoin:miter;stroke-miterlimit:4.53000021;stroke-dasharray:none;stroke-dashoffset:0;stroke-opacity:1;color-rendering:auto;image-rendering:auto;shape-rendering:auto;text-rendering:auto;enable-background:accumulate"
     d="M 70.723571,395.11088 C 69.129081,397.08788 67.841821,399.86348 68.872611,402.38398 70.203441,404.74512 73.114821,405.29497 75.539461,405.85041 78.902271,406.55837 82.084611,408.02319 84.828641,410.08931 82.563911,406.56497 78.276861,405.38162 74.495401,404.25475 72.668171,403.69288 70.337131,403.11348 69.837471,400.95434 69.182791,398.95668 70.340091,397.03353 70.723571,395.11088 Z"
     id="path975"
     inkscape:connector-curvature="0" />
  <path
     style="color:#000000;font-style:normal;font-variant:normal;font-weight:normal;font-stretch:normal;font-size:medium;line-height:normal;font-family:sans-serif;font-variant-ligatures:normal;font-variant-position:normal;font-variant-caps:normal;font-variant-numeric:normal;font-variant-alternates:normal;font-feature-settings:normal;text-indent:0;text-align:start;text-decoration:none;text-decoration-line:none;text-decoration-style:solid;text-decoration-color:#000000;letter-spacing:normal;word-spacing:normal;text-transform:none;writing-mode:lr-tb;direction:ltr;text-orientation:mixed;dominant-baseline:auto;baseline-shift:baseline;text-anchor:start;white-space:normal;shape-padding:0;clip-rule:nonzero;display:inline;overflow:visible;visibility:visible;opacity:1;isolation:auto;mix-blend-mode:normal;color-interpolation:sRGB;color-interpolation-filters:linearRGB;solid-color:#000000;solid-opacity:1;vector-effect:none;fill:none;fill-opacity:1;fill-rule:nonzero;stroke:#000000;stroke-width:1;stroke-linecap:round;stroke-linejoin:miter;stroke-miterlimit:4.53000021;stroke-dasharray:none;stroke-dashoffset:0;stroke-opacity:1;color-rendering:auto;image-rendering:auto;shape-rendering:auto;text-rendering:auto;enable-background:accumulate"
     d="M 98.066561,411.32778 C 98.066561,411.32778 99.418751,410.90951 99.480021,406.98773 99.480021,406.98773 99.146501,397.41156 92.210621,391.05366 96.998531,397.76164 99.413101,405.36458 98.066561,411.32778 Z"
     id="path977"
     inkscape:connector-curvature="0"
     sodipodi:nodetypes="cccc" />
  <path
     style="color:#000000;font-style:normal;font-variant:normal;font-weight:normal;font-stretch:normal;font-size:medium;line-height:normal;font-family:sans-serif;font-variant-ligatures:normal;font-variant-position:normal;font-variant-caps:normal;font-variant-numeric:normal;font-variant-alternates:normal;font-feature-settings:normal;text-indent:0;text-align:start;text-decoration:none;text-decoration-line:none;text-decoration-style:solid;text-decoration-color:#000000;letter-spacing:normal;word-spacing:normal;text-transform:none;writing-mode:lr-tb;direction:ltr;text-orientation:mixed;dominant-baseline:auto;baseline-shift:baseline;text-anchor:start;white-space:normal;shape-padding:0;clip-rule:nonzero;display:inline;overflow:visible;visibility:visible;opacity:1;isolation:auto;mix-blend-mode:normal;color-interpolation:sRGB;color-interpolation-filters:linearRGB;solid-color:#000000;solid-opacity:1;vector-effect:none;fill:none;fill-opacity:1;fill-rule:nonzero;stroke:#000000;stroke-width:1;stroke-linecap:round;stroke-linejoin:miter;stroke-miterlimit:4.53000021;stroke-dasharray:none;stroke-dashoffset:0;stroke-opacity:1;color-rendering:auto;image-rendering:auto;shape-rendering:auto;text-rendering:auto;enable-background:accumulate"
     d="M 255.45752,181.83555 C 255.10189,181.85025 254.81515,182.13187 254.79404,182.48719 253.2541,203.34618 267.39453,219.72481 267.39453,219.72481 268.07229,220.45489 270.16181,221.92163 271.34282,221.84724 270.48219,221.31916 269.79267,220.54116 269.49299,220.18917 269.49299,220.18917 254.69074,202.7192 256.17687,182.58908 256.21354,182.17232 255.87554,181.81825 255.45752,181.83555 Z"
     id="path979"
     inkscape:connector-curvature="0"
     sodipodi:nodetypes="ccccccc" />
  <path
     style="opacity:1;fill:none;fill-opacity:1;stroke:#000000;stroke-width:1;stroke-linecap:butt;stroke-linejoin:miter;stroke-miterlimit:4.53000021;stroke-dasharray:none;stroke-opacity:1"
     d="M 231.53646,158.86138 C 221.61377,156.09219 213.33262,168.30754 213.33262,168.30754 213.33262,168.30754 205.15346,169.42553 200.17866,170.98246 203.18251,174.53439 207.24415,179.91873 207.24415,179.91873 207.24415,179.91873 204.45345,186.72604 204.41188,186.75375 187.77924,197.44617 188.16977,231.56883 188.16977,231.56883 202.42631,221.27243 224.66552,224.49204 223.87349,202.71121 L 226.73325,208.0841 C 228.29105,205.38046 228.94245,210.83448 231.40665,199.97317 231.40665,199.97317 229.15802,191.88535 226.18791,190.10328 226.18791,190.10328 226.19033,173.11793 231.53646,158.86138 Z"
     id="path981"
     inkscape:connector-curvature="0"
     sodipodi:nodetypes="ccccccccccc" />
  <path
     style="opacity:1;fill:none;fill-opacity:1;stroke:#000000;stroke-width:1;stroke-linecap:butt;stroke-linejoin:miter;stroke-miterlimit:4.53000021;stroke-dasharray:none;stroke-opacity:1"
     d="M 156.98186,198.08095 C 159.86791,204.03958 166.49314,211.65423 166.49314,211.65423 170.96713,213.40491 186.72336,208.54189 190.22473,198.42677 191.00281,192.20209 185.16718,193.56373 176.80277,183.25411"
     id="path987"
     inkscape:connector-curvature="0"
     sodipodi:nodetypes="cccc" />
  <path
     style="opacity:1;fill:none;fill-opacity:0;stroke:#000000;stroke-width:1;stroke-linecap:round;stroke-linejoin:miter;stroke-miterlimit:4.53000021;stroke-dasharray:none;stroke-opacity:1"
     d="M 164.86297,210.16053 C 164.86297,210.16053 167.8043,224.74458 170.74563,225.60246 178.46659,227.19568 188.51612,218.61682 188.51612,218.61682"
     id="path993"
     inkscape:connector-curvature="0"
     sodipodi:nodetypes="ccc" />
  <path
     style="opacity:1;fill:none;fill-opacity:1;stroke:#000000;stroke-width:1;stroke-linecap:round;stroke-linejoin:miter;stroke-miterlimit:4.53000021;stroke-dasharray:none;stroke-opacity:1"
     d="M 189.36685,194.0148 C 189.61196,192.66669 194.76641,195.20879 194.76641,195.20879"
     id="path995"
     inkscape:connector-curvature="0"
     sodipodi:nodetypes="cc" />
  <path
     style="color:#000000;font-style:normal;font-variant:normal;font-weight:normal;font-stretch:normal;font-size:medium;line-height:normal;font-family:sans-serif;font-variant-ligatures:normal;font-variant-position:normal;font-variant-caps:normal;font-variant-numeric:normal;font-variant-alternates:normal;font-feature-settings:normal;text-indent:0;text-align:start;text-decoration:none;text-decoration-line:none;text-decoration-style:solid;text-decoration-color:#000000;letter-spacing:normal;word-spacing:normal;text-transform:none;writing-mode:lr-tb;direction:ltr;text-orientation:mixed;dominant-baseline:auto;baseline-shift:baseline;text-anchor:start;white-space:normal;shape-padding:0;clip-rule:nonzero;display:inline;overflow:visible;visibility:visible;opacity:1;isolation:auto;mix-blend-mode:normal;color-interpolation:sRGB;color-interpolation-filters:linearRGB;solid-color:#000000;solid-opacity:1;vector-effect:none;fill:none;fill-opacity:1;fill-rule:nonzero;stroke:#000000;stroke-width:1;stroke-linecap:round;stroke-linejoin:miter;stroke-miterlimit:4.53000021;stroke-dasharray:none;stroke-dashoffset:0;stroke-opacity:1;color-rendering:auto;image-rendering:auto;shape-rendering:auto;text-rendering:auto;enable-background:accumulate"
     d="M 204.39815,185.8818 C 204.26182,185.88561 204.12833,185.92159 204.00851,185.98674 194.97084,190.73943 190.90363,202.2217 188.97714,212.39827 187.05066,222.57484 187.30353,231.59268 187.30353,231.59268 L 187.3516,233.33298 188.71107,232.24568 C 196.32353,226.15571 204.20379,225.04446 210.89354,222.36412 214.23842,221.02396 217.29293,219.25968 219.70302,216.24278 222.11312,213.22589 223.85006,209.00266 224.73132,202.8339 224.92145,201.67033 223.15898,201.41856 223.01572,202.58883 222.16378,208.55241 221.21427,211.05579 219.04224,213.77467 216.87022,216.49356 214.1402,218.08733 210.94229,219.36861 204.92081,221.78119 197.26612,222.97666 189.72628,228.43943 189.75208,225.41342 189.97901,218.70055 191.37348,211.33434 193.26001,201.36885 196.62072,191.83016 204.81519,187.52089 205.63998,187.10209 205.32281,185.85549 204.39815,185.8818 Z"
     id="path997"
     inkscape:connector-curvature="0"
     sodipodi:nodetypes="ccsccccccccccscc" />
  <path
     style="opacity:1;fill:none;fill-opacity:1;stroke:#000000;stroke-width:1;stroke-linecap:round;stroke-linejoin:miter;stroke-miterlimit:4.53000021;stroke-dasharray:none;stroke-opacity:1"
     d="M 230.97957,158.60149 C 213.64767,152.44867 202.46859,194.65186 202.46859,194.65186 207.23486,197.16499 217.57709,192.50025 217.57709,192.50025 M 217.1884,177.40555 C 212.74157,195.20411 226.29996,202.19125 226.73325,208.0841 229.33304,207.13085 231.40665,199.97317 231.40665,199.97317"
     id="path999"
     inkscape:connector-curvature="0"
     sodipodi:nodetypes="cccccc" />
  <path
     style="opacity:1;fill:none;fill-opacity:1;stroke:#000000;stroke-width:1;stroke-linecap:butt;stroke-linejoin:miter;stroke-miterlimit:4.53000021;stroke-dasharray:none;stroke-opacity:1"
     d="M 253.50564,157.58435 C 254.60824,158.58194 255.48546,182.53817 255.48546,182.53817 280.40769,190.09884 257.829,219.55997 326.70178,238.59474 326.70178,238.59474 319.16122,225.60106 323.08157,221.6807 323.08157,221.6807 351.1317,248.12191 358.13234,260.16299 358.13234,260.16299 361.80826,248.25523 359.84809,241.53463 L 368.42695,251.58415 370.87806,244.96617 C 389.35971,265.68802 408.3799,301.83173 408.3799,301.83173 553.99293,556.09447 460.1302,302.39679 460.1302,302.39679 460.1302,302.39679 444.06649,244.41337 417.46411,235.7326 416.07393,228.99551 394.54052,198.21926 371.85849,195.69902 371.85849,195.69902 316.79131,150.58372 253.50564,157.58435 Z"
     id="path1001"
     inkscape:connector-curvature="0"
     sodipodi:nodetypes="ccccccccccccc" />
  <path
     style="color:#000000;font-style:normal;font-variant:normal;font-weight:normal;font-stretch:normal;font-size:medium;line-height:normal;font-family:sans-serif;font-variant-ligatures:normal;font-variant-position:normal;font-variant-caps:normal;font-variant-numeric:normal;font-variant-alternates:normal;font-feature-settings:normal;text-indent:0;text-align:start;text-decoration:none;text-decoration-line:none;text-decoration-style:solid;text-decoration-color:#000000;letter-spacing:normal;word-spacing:normal;text-transform:none;writing-mode:lr-tb;direction:ltr;text-orientation:mixed;dominant-baseline:auto;baseline-shift:baseline;text-anchor:start;white-space:normal;shape-padding:0;clip-rule:nonzero;display:inline;overflow:visible;visibility:visible;opacity:1;isolation:auto;mix-blend-mode:normal;color-interpolation:sRGB;color-interpolation-filters:linearRGB;solid-color:#000000;solid-opacity:1;vector-effect:none;fill:none;fill-opacity:1;fill-rule:nonzero;stroke:#000000;stroke-width:1;stroke-linecap:round;stroke-linejoin:miter;stroke-miterlimit:4.53000021;stroke-dasharray:none;stroke-dashoffset:0;stroke-opacity:1;color-rendering:auto;image-rendering:auto;shape-rendering:auto;text-rendering:auto;enable-background:accumulate"
     d="M 243.79031,135.54887 243.09501,136.49772 C 243.09501,136.49772 222.51848,164.36383 225.32642,190.19684 L 225.3596,190.50285 225.57827,190.7195 C 231.76088,196.83601 231.72805,207.19092 231.72805,207.19092 231.72805,208.51421 230.99697,210.72134 230.99697,210.72134 230.99697,210.72134 233.53686,208.64692 233.46124,207.21021 233.46124,207.21021 233.64709,196.54719 227.02779,189.73917 224.76489,167.54356 241.28632,144.03809 244.55019,139.28497 255.74255,157.03037 256.75355,182.27301 252.0409,205.79116 252.0409,205.79116 266.0086,165.55795 244.49036,136.49434 Z"
     id="path1003"
     inkscape:connector-curvature="0"
     sodipodi:nodetypes="ccccccccccccc" />
  <path
     style="opacity:1;fill:none;fill-opacity:1;stroke:#000000;stroke-width:1;stroke-linecap:butt;stroke-linejoin:miter;stroke-miterlimit:4.53000021;stroke-dasharray:none;stroke-opacity:1"
     d="M 200.17866,170.98246 C 200.17866,170.98246 206.45493,169.17396 213.38769,168.654"
     id="path1005"
     inkscape:connector-curvature="0"
     sodipodi:nodetypes="cc" />
  <path
     style="opacity:1;fill:none;fill-opacity:1;stroke:#000000;stroke-width:1;stroke-linecap:butt;stroke-linejoin:miter;stroke-miterlimit:4.53000021;stroke-dasharray:none;stroke-opacity:1"
     d="M 255.48546,182.53817 C 275.09428,186.21483 265.73295,225.36023 327.50071,239.08639 327.50071,239.08639 318.91471,230.01445 323.08157,221.6807"
     id="path1007"
     inkscape:connector-curvature="0"
     sodipodi:nodetypes="ccc" />
  <path
     style="opacity:1;fill:none;fill-opacity:1;stroke:#000000;stroke-width:1;stroke-linecap:butt;stroke-linejoin:miter;stroke-miterlimit:4.53000021;stroke-dasharray:none;stroke-opacity:1"
     d="M 307.39452,200.11101 C 304.94342,208.93498 334.35665,227.31823 358.13234,260.16299 358.13234,260.16299 363.27963,247.9075 359.84809,241.53463 363.03453,242.76018 364.7503,250.11348 368.42695,251.58415 368.42695,251.58415 371.36828,246.68194 371.61339,240.30907"
     id="path1009"
     inkscape:connector-curvature="0"
     sodipodi:nodetypes="ccccc" />
  <path
     style="opacity:1;fill:none;fill-opacity:1;stroke:#000000;stroke-width:1;stroke-linecap:butt;stroke-linejoin:miter;stroke-miterlimit:4.53000021;stroke-dasharray:none;stroke-opacity:1"
     d="M 370.87806,244.96617 C 382.88682,256.09549 462.91232,395.64627 464.8997,394.05636"
     id="path1011"
     inkscape:connector-curvature="0"
     sodipodi:nodetypes="cc" />
  <path
     style="opacity:1;fill:none;fill-opacity:1;stroke:#000000;stroke-width:1;stroke-linecap:round;stroke-linejoin:miter;stroke-miterlimit:4.53000021;stroke-dasharray:none;stroke-opacity:1"
     d="M 253.96069,157.53184 C 308.86536,148.70787 383.13375,196.25924 381.90819,210.96586"
     id="path1013"
     inkscape:connector-curvature="0"
     sodipodi:nodetypes="cc" />
  <path
     style="color:#000000;font-style:normal;font-variant:normal;font-weight:normal;font-stretch:normal;font-size:medium;line-height:normal;font-family:sans-serif;font-variant-ligatures:normal;font-variant-position:normal;font-variant-caps:normal;font-variant-numeric:normal;font-variant-alternates:normal;font-feature-settings:normal;text-indent:0;text-align:start;text-decoration:none;text-decoration-line:none;text-decoration-style:solid;text-decoration-color:#000000;letter-spacing:normal;word-spacing:normal;text-transform:none;writing-mode:lr-tb;direction:ltr;text-orientation:mixed;dominant-baseline:auto;baseline-shift:baseline;text-anchor:start;white-space:normal;shape-padding:0;clip-rule:nonzero;display:inline;overflow:visible;visibility:visible;opacity:1;isolation:auto;mix-blend-mode:normal;color-interpolation:sRGB;color-interpolation-filters:linearRGB;solid-color:#000000;solid-opacity:1;vector-effect:none;fill:none;fill-opacity:1;fill-rule:nonzero;stroke:#000000;stroke-width:1;stroke-linecap:butt;stroke-linejoin:miter;stroke-miterlimit:4.53000021;stroke-dasharray:none;stroke-dashoffset:0;stroke-opacity:1;color-rendering:auto;image-rendering:auto;shape-rendering:auto;text-rendering:auto;enable-background:accumulate"
     d="M 374.56312,195.69001 C 373.95985,195.65398 372.44246,195.65597 371.85849,195.69902 L 371.96554,197.84967 C 376.07679,197.54737 382.1039,199.61515 387.36549,203.16007 392.62707,206.70495 398.04251,211.69085 402.87137,217.04911 407.70023,222.40738 411.94601,228.1407 414.88848,233.16326 416.36941,235.56909 417.78501,239.17139 419.95971,246.53803 420.33122,243.49173 417.72001,234.19649 416.14929,231.73115 413.14228,226.59842 408.84752,220.80428 403.95699,215.37759 399.06647,209.9509 393.58404,204.89456 388.18175,201.25486 383.45475,198.07013 378.78611,195.94221 374.56312,195.69011 Z"
     id="path1015"
     inkscape:connector-curvature="0"
     sodipodi:nodetypes="ccccscccsscc" />
  <path
     style="opacity:1;fill:none;fill-opacity:1;stroke:#000000;stroke-width:1;stroke-linecap:butt;stroke-linejoin:miter;stroke-miterlimit:4.53000021;stroke-dasharray:none;stroke-opacity:1"
     d="M 271.44605,329.86886 C 289.26862,345.9633 299.13308,360.86817 304.20179,373.89374 313.08751,399.64268 289.57559,443.01884 281.89818,462.38707 300.98565,428.25469 313.83022,396.70417 306.63486,372.73559 300.1585,354.34337 283.66698,337.6564 272.60817,327.9544 271.44447,331.40681 271.34445,328.97958 271.44605,329.86886 Z"
     id="path1017"
     inkscape:connector-curvature="0"
     sodipodi:nodetypes="cccccc" />
  <path
     inkscape:connector-curvature="0"
     id="path1019"
     d="M 154.11133,22.380863 C 151.51155,24.922876 148.91229,27.463849 146.3125,30.005863 150.13084,40.184726 155.72103,49.859828 156.70117,60.880863 161.62684,88.840841 154.1315,119.08606 134.63281,140.07812 133.83326,140.95299 133.02303,141.81366 132.20312,142.66016 137.29897,145.83797 144.4216,151.50742 144.60938,153.10352 144.33429,155.30401 137.6073,155.44224 135.68164,155.30469 134.03109,155.16715 129.07914,158.0554 127.29102,155.99219 127.29102,155.99219 125.16999,153.74551 123.02344,151.20508 97.865621,172.42147 65.427711,183.09848 31.748048,188.93945 29.549032,193.88823 30.131089,196.9121 29.322267,200.89845 66.965561,210.89105 108.20163,216.1056 145.6875,202.66212 172.34869,193.36634 194.78158,170.68912 200.01758,142.43359 207.06952,107.86218 191.57243,72.186511 166.9375,48.205082 162.66229,39.596902 158.38654,30.989043 154.11133,22.380863 Z"
     style="opacity:1;fill:none;fill-opacity:1;stroke:#000000;stroke-width:1;stroke-linecap:butt;stroke-linejoin:miter;stroke-miterlimit:4.53000021;stroke-dasharray:none;stroke-opacity:1" />
  <path
     style="color:#000000;font-style:normal;font-variant:normal;font-weight:normal;font-stretch:normal;font-size:medium;line-height:normal;font-family:sans-serif;font-variant-ligatures:normal;font-variant-position:normal;font-variant-caps:normal;font-variant-numeric:normal;font-variant-alternates:normal;font-feature-settings:normal;text-indent:0;text-align:start;text-decoration:none;text-decoration-line:none;text-decoration-style:solid;text-decoration-color:#000000;letter-spacing:normal;word-spacing:normal;text-transform:none;writing-mode:lr-tb;direction:ltr;text-orientation:mixed;dominant-baseline:auto;baseline-shift:baseline;text-anchor:start;white-space:normal;shape-padding:0;clip-rule:nonzero;display:inline;overflow:visible;visibility:visible;opacity:1;isolation:auto;mix-blend-mode:normal;color-interpolation:sRGB;color-interpolation-filters:linearRGB;solid-color:#000000;solid-opacity:1;vector-effect:none;fill:none;fill-opacity:1;fill-rule:nonzero;stroke:#000000;stroke-width:1;stroke-linecap:butt;stroke-linejoin:miter;stroke-miterlimit:4.53000021;stroke-dasharray:none;stroke-dashoffset:0;stroke-opacity:1;color-rendering:auto;image-rendering:auto;shape-rendering:auto;text-rendering:auto;enable-background:accumulate"
     d="M 172.93938,62.745182 C 224.54929,160.84107 136.03093,213.38903 52.297511,195.25927 145.26646,208.36948 215.61129,154.75771 172.93938,62.745182 Z"
     id="path1021"
     inkscape:connector-curvature="0"
     sodipodi:nodetypes="ccc" />
  <path
     style="opacity:1;fill:none;stroke:#000000;stroke-width:1;stroke-linecap:butt;stroke-linejoin:miter;stroke-miterlimit:4.53000021;stroke-dasharray:none;stroke-opacity:1"
     d="M 149.54247,129.15632 C 158.36644,127.68566 164.73931,130.62697 162.04309,138.96072"
     id="path1023"
     inkscape:connector-curvature="0"
     sodipodi:nodetypes="cc" />
  <path
     style="opacity:1;fill:none;stroke:#000000;stroke-width:1;stroke-linecap:butt;stroke-linejoin:miter;stroke-miterlimit:4.53000021;stroke-dasharray:none;stroke-opacity:1"
     d="M 154.19957,107.34152 161.79798,115.43015"
     id="path1025"
     inkscape:connector-curvature="0" />
  <path
     style="opacity:1;fill:none;stroke:#000000;stroke-width:1;stroke-linecap:butt;stroke-linejoin:miter;stroke-miterlimit:4.53000021;stroke-dasharray:none;stroke-opacity:1"
     d="M 162.77843,104.6453 152.97401,114.93993"
     id="path1027"
     inkscape:connector-curvature="0" />
  <path
     style="opacity:1;fill:none;stroke:#000000;stroke-width:1;stroke-linecap:butt;stroke-linejoin:miter;stroke-miterlimit:4.53000021;stroke-dasharray:none;stroke-opacity:1"
     d="M 168.17085,106.60618 176.99482,116.6557"
     id="path1029"
     inkscape:connector-curvature="0" />
  <path
     style="opacity:1;fill:none;stroke:#000000;stroke-width:1;stroke-linecap:butt;stroke-linejoin:miter;stroke-miterlimit:4.53000021;stroke-dasharray:none;stroke-opacity:1"
     d="M 166.20997,114.93993 179.44592,105.13553"
     id="path1031"
     inkscape:connector-curvature="0" />
  <path
     sodipodi:nodetypes="ccccc"
     style="opacity:1;fill:none;fill-opacity:1;stroke:#000000;stroke-width:1;stroke-linecap:butt;stroke-linejoin:miter;stroke-miterlimit:4.53000021;stroke-dasharray:none;stroke-opacity:1"
     d="M 21.128552,198.62644 C 22.244814,194.27067 24.295074,188.76686 24.295074,188.76686 L 31.747793,188.94018 29.274548,201.05292 Z"
     id="path1035"
     inkscape:connector-curvature="0" />
  <path
     style="opacity:1;fill:none;fill-opacity:1;stroke:#ff0000;stroke-width:1;stroke-linecap:butt;stroke-linejoin:miter;stroke-miterlimit:4.53000021;stroke-dasharray:none;stroke-opacity:1"
     d="M 124.25586,152.64258 C 122.29895,155.31964 122.08719,157.96329 125.5957,158.1582 133.68433,154.23644 123.88101,170.28615 129.27344,170.53125 135.64631,172.24703 130.25404,161.95206 134.66602,159.25586 137.60735,157.54009 144.02843,156.7363 147.70508,155.75586 151.13663,152.81454 150.64648,148.40234 150.64648,148.40234 150.64648,148.40234 148.39506,145.40033 145.5332,145.4707 145.12437,145.4808 144.70238,145.5538 144.27344,145.70703 L 138.65234,147.2207"
     id="path1037"
     inkscape:connector-curvature="0"
     sodipodi:nodetypes="ccccccccc" />
  <path
     style="opacity:1;fill:none;fill-opacity:1;stroke:#000000;stroke-width:1;stroke-linecap:butt;stroke-linejoin:miter;stroke-miterlimit:4.53000021;stroke-dasharray:none;stroke-opacity:1"
     d="M 139.89888,23.593796 148.56483,9.3816344 154.11104,22.380563 146.31168,30.006601 Z"
     id="path1039"
     inkscape:connector-curvature="0" />
  <path
     style="opacity:1;fill:none;stroke:#000000;stroke-width:1;stroke-linecap:butt;stroke-linejoin:miter;stroke-miterlimit:4.53000021;stroke-dasharray:none;stroke-opacity:1"
     d="M 29.321327,200.89919 C 182.24226,242.60491 245.23452,134.92865 166.93663,48.205095"
     id="path1041"
     inkscape:connector-curvature="0"
     sodipodi:nodetypes="cc" />
  <path
     style="opacity:1;fill:none;fill-opacity:1;stroke:#000000;stroke-width:1;stroke-linecap:butt;stroke-linejoin:miter;stroke-miterlimit:4.53000021;stroke-dasharray:none;stroke-opacity:1"
     d="M 118.64091,144.20397 C 117.7365,145.9239 127.29142,155.99155 127.29142,155.99155 129.07954,158.05476 134.03125,155.16628 135.6818,155.30382 137.60746,155.44137 144.33441,155.30382 144.6095,153.10333 144.33441,150.76501 129.1657,139.67648 127.30957,140.50277"
     id="path1047"
     inkscape:connector-curvature="0"
     sodipodi:nodetypes="ccccc" />
  <path
     style="opacity:1;fill:none;fill-opacity:1;stroke:#000000;stroke-width:1;stroke-linecap:butt;stroke-linejoin:miter;stroke-miterlimit:4.53000021;stroke-dasharray:none;stroke-opacity:1"
     d="M 118.64091,144.20397 88.879171,104.08397 127.88067,140.36218 C 128.26972,143.57179 119.0786,144.8848 118.64091,144.20397 Z"
     id="path1049"
     inkscape:connector-curvature="0"
     sodipodi:nodetypes="cccc" />
  <path
     style="color:#000000;font-style:normal;font-variant:normal;font-weight:normal;font-stretch:normal;font-size:medium;line-height:normal;font-family:sans-serif;font-variant-ligatures:normal;font-variant-position:normal;font-variant-caps:normal;font-variant-numeric:normal;font-variant-alternates:normal;font-feature-settings:normal;text-indent:0;text-align:start;text-decoration:none;text-decoration-line:none;text-decoration-style:solid;text-decoration-color:#000000;letter-spacing:normal;word-spacing:normal;text-transform:none;writing-mode:lr-tb;direction:ltr;text-orientation:mixed;dominant-baseline:auto;baseline-shift:baseline;text-anchor:start;white-space:normal;shape-padding:0;clip-rule:nonzero;display:inline;overflow:visible;visibility:visible;opacity:1;isolation:auto;mix-blend-mode:normal;color-interpolation:sRGB;color-interpolation-filters:linearRGB;solid-color:#000000;solid-opacity:1;vector-effect:none;fill:none;fill-opacity:1;fill-rule:nonzero;stroke:#000000;stroke-width:1;stroke-linecap:round;stroke-linejoin:miter;stroke-miterlimit:4.53000021;stroke-dasharray:none;stroke-dashoffset:0;stroke-opacity:1;color-rendering:auto;image-rendering:auto;shape-rendering:auto;text-rendering:auto;enable-background:accumulate"
     d="M 134.51463,385.55092 C 134.72353,387.61645 133.89241,388.80642 133.0771,389.60516 131.66106,391.02153 130.75581,390.40108 130.75964,391.67972 131.48715,392.78579 133.41748,391.07598 133.41748,391.07598 134.92106,389.77508 135.37376,387.19546 134.51463,385.55092 Z"
     id="path1051"
     inkscape:connector-curvature="0"
     sodipodi:nodetypes="ccccc" />
  <path
     style="opacity:1;fill:none;stroke:#000000;stroke-width:1;stroke-linecap:round;stroke-linejoin:miter;stroke-miterlimit:4.53000021;stroke-dasharray:none;stroke-opacity:1"
     d="M 417.46411,235.7326 C 464.34691,255.38433 490.95452,425.65651 491.89384,410.12045"
     id="path1053"
     inkscape:connector-curvature="0"
     sodipodi:nodetypes="cc" />
  <path
     style="opacity:1;fill:none;fill-opacity:1;stroke:#000000;stroke-width:1;stroke-linecap:butt;stroke-linejoin:miter;stroke-miterlimit:4.53000021;stroke-dasharray:none;stroke-opacity:1"
     d="M 370.54026,240.34399 C 370.54026,240.34399 370.91484,236.45227 369.95753,233.49709 369.95753,233.49709 372.41327,236.01525 372.66301,240.42722 Z"
     id="path1055"
     inkscape:connector-curvature="0"
     sodipodi:nodetypes="cccc" />
  <path
     style="opacity:1;fill:none;fill-opacity:1;stroke:#000000;stroke-width:1;stroke-linecap:butt;stroke-linejoin:miter;stroke-miterlimit:4.53000021;stroke-dasharray:none;stroke-opacity:1"
     d="M 308.38266,200.42307 C 308.38266,200.42307 309.29117,197.30138 311.62947,195.87198 311.62947,195.87198 307.96474,195.88931 306.3958,199.86811 Z"
     id="path1057"
     inkscape:connector-curvature="0"
     sodipodi:nodetypes="cccc" />
  <path
     style="opacity:1;fill:none;fill-opacity:1;stroke:#000000;stroke-width:1;stroke-linecap:butt;stroke-linejoin:miter;stroke-miterlimit:4.53000021;stroke-dasharray:none;stroke-opacity:1"
     d="M 216.51145,177.25244 C 216.64134,176.79785 217.32435,175.65619 218.54298,174.9678 L 217.868,177.54374 Z"
     id="path1059"
     inkscape:connector-curvature="0"
     sodipodi:nodetypes="cccc" />
  <path
     style="opacity:1;fill:none;fill-opacity:1;stroke:#000000;stroke-width:1;stroke-linecap:butt;stroke-linejoin:miter;stroke-miterlimit:4.53000021;stroke-dasharray:none;stroke-opacity:1"
     d="M 380.8936,210.46056 C 380.92558,211.1679 380.20497,222.42826 382.47318,225.07093 381.57999,217.27583 382.72737,215.44309 382.97098,210.55761 Z"
     id="path1061"
     inkscape:connector-curvature="0"
     sodipodi:nodetypes="cccc" />
  <rect
     style="opacity:1;fill:none;fill-opacity:1;stroke:#000000;stroke-width:11.80813122;stroke-miterlimit:4;stroke-dasharray:none;stroke-opacity:1"
     id="rect1515"
     width="489.25992"
     height="471.88773"
     x="5.9040656"
     y="5.9040656" />
</svg>
