<?xml version="1.0" encoding="UTF-8" standalone="no"?>
<!-- Created with Inkscape (http://www.inkscape.org/) -->

<svg
   xmlns:dc="http://purl.org/dc/elements/1.1/"
   xmlns:cc="http://creativecommons.org/ns#"
   xmlns:rdf="http://www.w3.org/1999/02/22-rdf-syntax-ns#"
   xmlns:svg="http://www.w3.org/2000/svg"
   xmlns="http://www.w3.org/2000/svg"
   xmlns:xlink="http://www.w3.org/1999/xlink"
   xmlns:sodipodi="http://sodipodi.sourceforge.net/DTD/sodipodi-0.dtd"
   xmlns:inkscape="http://www.inkscape.org/namespaces/inkscape"
   inkscape:export-ydpi="24.242424"
   inkscape:export-xdpi="24.242424"
   inkscape:export-filename="/home/bc/svgs/bananicorn_logo.png"
   inkscape:version="0.92.2 2405546, 2018-03-11"
   sodipodi:docname="bananicorn.svg"
   viewBox="0 0 501.06806 483.69586"
   height="483.69586"
   width="501.06805"
   id="svg2"
   version="1.1">
  <sodipodi:namedview
     fit-margin-bottom="0"
     fit-margin-right="0"
     fit-margin-left="0"
     fit-margin-top="0"
     inkscape:current-layer="svg2"
     inkscape:window-maximized="0"
     inkscape:window-y="0"
     inkscape:window-x="0"
     inkscape:cy="225.85724"
     inkscape:cx="204.89245"
     inkscape:zoom="11.313708"
     showgrid="false"
     id="namedview4"
     inkscape:window-height="1048"
     inkscape:window-width="1678"
     inkscape:pageshadow="2"
     inkscape:pageopacity="0"
     guidetolerance="10"
     gridtolerance="10"
     objecttolerance="10"
     borderopacity="1"
     bordercolor="#666666"
     pagecolor="#ffffff"
     inkscape:snap-global="true" />
  <metadata
     id="metadata8">
    <rdf:RDF>
      <cc:Work
         rdf:about="">
        <dc:format>image/svg+xml</dc:format>
        <dc:type
           rdf:resource="http://purl.org/dc/dcmitype/StillImage" />
        <dc:title />
      </cc:Work>
    </rdf:RDF>
  </metadata>
  <defs
     id="defs6">
    <linearGradient
       id="linearGradient932"
       inkscape:collect="always">
      <stop
         id="stop928"
         offset="0"
         style="stop-color:#d2d2d2;stop-opacity:1;" />
      <stop
         id="stop930"
         offset="1"
         style="stop-color:#ffffff;stop-opacity:0.98148149" />
    </linearGradient>
    <linearGradient
       id="linearGradient881"
       inkscape:collect="always">
      <stop
         id="stop877"
         offset="0"
         style="stop-color:#ff0000;stop-opacity:1;" />
      <stop
         id="stop879"
         offset="1"
         style="stop-color:#000000;stop-opacity:1" />
    </linearGradient>
    <linearGradient
       id="linearGradient870"
       inkscape:collect="always">
      <stop
         id="stop866"
         offset="0"
         style="stop-color:#000021;stop-opacity:1" />
      <stop
         id="stop868"
         offset="1"
         style="stop-color:#fffcff;stop-opacity:0.94949496" />
    </linearGradient>
    <linearGradient
       gradientTransform="matrix(0.17331905,0,0,0.17331905,18.822183,9.5039449)"
       gradientUnits="userSpaceOnUse"
       y2="2062.2712"
       x2="815.86084"
       y1="3246.0476"
       x1="-475.24075"
       id="linearGradient872"
       xlink:href="#linearGradient870"
       inkscape:collect="always" />
    <radialGradient
       gradientUnits="userSpaceOnUse"
       gradientTransform="matrix(0.17331905,0,0,0.15504665,18.822183,36.671995)"
       r="43.986423"
       fy="1486.8356"
       fx="1049.2939"
       cy="1486.8356"
       cx="1049.2939"
       id="radialGradient883"
       xlink:href="#linearGradient881"
       inkscape:collect="always" />
    <radialGradient
       gradientUnits="userSpaceOnUse"
       gradientTransform="matrix(0.38041192,0.38018409,-0.07001359,0.07005554,-190.69838,-416.35477)"
       r="681.96155"
       fy="996.13092"
       fx="1428.1221"
       cy="996.13092"
       cx="1428.1221"
       id="radialGradient936"
       xlink:href="#linearGradient932"
       inkscape:collect="always" />
    <linearGradient
       gradientUnits="userSpaceOnUse"
       y2="1781.7898"
       x2="1640.9358"
       y1="1700.6409"
       x1="1571.2335"
       id="linearGradient922"
       xlink:href="#linearGradient920"
       inkscape:collect="always"
       gradientTransform="matrix(0.17331905,0,0,0.17331905,-190.54808,88.775831)" />
    <linearGradient
       id="linearGradient920"
       inkscape:collect="always">
      <stop
         id="stop916"
         offset="0"
         style="stop-color:#000000;stop-opacity:0.80092591" />
      <stop
         id="stop918"
         offset="1"
         style="stop-color:#000000;stop-opacity:0;" />
    </linearGradient>
  </defs>
  <path
     style="fill:none;fill-opacity:1;stroke:#001feb;stroke-width:2;stroke-linecap:butt;stroke-miterlimit:4.53000021;stroke-dasharray:none;stroke-opacity:1"
     d="m 194.92919,263.69631 c -0.90198,1.22929 -1.38968,2.71357 -1.39258,4.23828 0,3.96955 3.21795,7.1875 7.1875,7.1875 3.96955,0 7.1875,-3.21795 7.1875,-7.1875 -0.003,-2.83915 -1.67649,-5.41064 -4.27148,-6.5625"
     id="path880"
     inkscape:connector-curvature="0"
     sodipodi:nodetypes="ccscc" />
  <path
     style="opacity:1;fill:none;fill-opacity:1;stroke:#000000;stroke-width:1;stroke-linecap:butt;stroke-linejoin:miter;stroke-miterlimit:4.53000021;stroke-dasharray:none;stroke-opacity:1"
     d="m 193.10714,163.05621 14.13701,16.86252"
     id="path952"
     inkscape:connector-curvature="0"
     sodipodi:nodetypes="cc" />
  <path
     style="color:#000000;font-style:normal;font-variant:normal;font-weight:normal;font-stretch:normal;font-size:medium;line-height:normal;font-family:sans-serif;font-variant-ligatures:normal;font-variant-position:normal;font-variant-caps:normal;font-variant-numeric:normal;font-variant-alternates:normal;font-feature-settings:normal;text-indent:0;text-align:start;text-decoration:none;text-decoration-line:none;text-decoration-style:solid;text-decoration-color:#000000;letter-spacing:normal;word-spacing:normal;text-transform:none;writing-mode:lr-tb;direction:ltr;text-orientation:mixed;dominant-baseline:auto;baseline-shift:baseline;text-anchor:start;white-space:normal;shape-padding:0;clip-rule:nonzero;display:inline;overflow:visible;visibility:visible;opacity:1;isolation:auto;mix-blend-mode:normal;color-interpolation:sRGB;color-interpolation-filters:linearRGB;solid-color:#000000;solid-opacity:1;vector-effect:none;fill:none;fill-opacity:1;fill-rule:nonzero;stroke:#000000;stroke-width:1;stroke-linecap:round;stroke-linejoin:round;stroke-miterlimit:4.53000021;stroke-dasharray:none;stroke-dashoffset:0;stroke-opacity:1;color-rendering:auto;image-rendering:auto;shape-rendering:auto;text-rendering:auto;enable-background:accumulate"
     d="M 142.30727,400.20538 C 133.73961,404.94694 129.67218,415.15852 126.694,422.39866 125.27763,425.88575 124.24688,428.95294 123.41583,431.20848 123.00031,432.33627 122.63282,433.26254 122.3072,433.91659 121.98158,434.57067 121.64875,434.91947 121.6041,434.94297 121.54628,434.97348 121.49306,435.01199 121.44602,435.0574 121.44602,435.0574 119.65139,437.5247 114.47148,438.60933 109.29158,439.69398 102.14992,438.85137 94.025589,430.69319 93.373585,430.0112 90.977521,431.61083 91.656807,432.26566 100.03815,440.68193 107.78625,441.7297 113.36942,440.56061 118.90679,439.40112 122.42184,436.48627 122.42184,436.48627 122.93659,436.15497 123.75913,435.21744 124.09919,434.53439 124.47056,433.78841 124.84574,432.76342 125.2674,431.61901 126.1107,429.33017 127.06257,426.43079 128.46048,422.98914 131.71172,415.16418 134.76464,405.6866 142.30727,400.20538 Z"
     id="path956"
     inkscape:connector-curvature="0"
     sodipodi:nodetypes="ccccccccccccccc" />
  <path
     style="color:#000000;font-style:normal;font-variant:normal;font-weight:normal;font-stretch:normal;font-size:medium;line-height:normal;font-family:sans-serif;font-variant-ligatures:normal;font-variant-position:normal;font-variant-caps:normal;font-variant-numeric:normal;font-variant-alternates:normal;font-feature-settings:normal;text-indent:0;text-align:start;text-decoration:none;text-decoration-line:none;text-decoration-style:solid;text-decoration-color:#000000;letter-spacing:normal;word-spacing:normal;text-transform:none;writing-mode:lr-tb;direction:ltr;text-orientation:mixed;dominant-baseline:auto;baseline-shift:baseline;text-anchor:start;white-space:normal;shape-padding:0;clip-rule:nonzero;display:inline;overflow:visible;visibility:visible;opacity:1;isolation:auto;mix-blend-mode:normal;color-interpolation:sRGB;color-interpolation-filters:linearRGB;solid-color:#000000;solid-opacity:1;vector-effect:none;fill:none;fill-opacity:1;fill-rule:nonzero;stroke:#000000;stroke-width:1;stroke-linecap:round;stroke-linejoin:miter;stroke-miterlimit:4.53000021;stroke-dasharray:none;stroke-dashoffset:0;stroke-opacity:1;color-rendering:auto;image-rendering:auto;shape-rendering:auto;text-rendering:auto;enable-background:accumulate"
     d="m 162.06395,207.43532 c -0.0857,-0.002 -0.17102,0.0128 -0.25152,0.0423 -7.02025,2.46657 -12.12485,9.27624 -15.88476,15.62308 -1.87996,3.17344 -3.42146,6.24474 -4.66709,8.6189 -0.62281,1.18708 -1.17269,2.20049 -1.64247,2.95218 -0.46977,0.7517 -0.90624,1.23713 -1.0565,1.33104 l 0.009,-0.005 c -14.89867,9.01278 -19.06913,19.16039 -19.94016,28.62338 -0.87103,9.463 1.36029,18.22892 -0.72712,24.66512 l -0.01,0.0301 -0.007,0.0312 c -1.25656,5.56477 -3.2689,9.81516 -4.96363,13.11268 -1.65717,3.22446 -3.08873,5.46147 -3.04493,7.48284 -0.40387,2.36548 -1.81924,4.41652 -3.94944,6.50725 -2.13474,2.0952 -4.96604,4.19992 -8.039701,6.6342 -6.147329,4.86857 -13.269742,11.08419 -17.706978,21.43773 l -0.02844,0.0663 -0.01421,0.0707 c -0.0078,0.0389 -0.144269,0.31534 -0.46715,0.64927 -0.32288,0.33395 -0.803027,0.73971 -1.395014,1.18819 -1.183975,0.89698 -2.814859,1.97217 -4.612928,3.16815 -3.596136,2.39198 -7.864061,5.26112 -10.749504,8.38059 l -0.0826,0.0894 -0.04739,0.11172 C 58.23397,369.02887 53.292046,378.60938 49.5122,383.63483 l -0.0085,0.0114 -0.0081,0.0118 c -0.820749,1.19007 -0.890933,2.84761 -0.702415,4.67621 0.188517,1.82862 0.68222,3.85224 1.253178,5.75271 1.1362,3.78192 2.581866,7.06129 2.596401,7.09424 1.906542,6.17229 8.124933,10.917 14.521562,15.43555 6.416528,4.53261 13.056896,8.86347 15.940275,13.68002 l 0.118819,0.19904 0.214957,0.0873 c 5.967194,2.42584 11.057152,1.60999 15.396283,-1.09476 4.339127,-2.70474 7.974177,-7.22021 11.417727,-12.2068 6.88712,-9.9732 13.0885,-21.82027 21.49529,-25.23554 0.86488,-0.3444 0.338,-1.6411 -0.52199,-1.28465 -9.19925,3.73721 -15.95389,15.43562 -22.76473,25.29836 -3.40542,4.93137 -6.20856,8.32215 -10.251416,10.84223 -3.999099,2.49281 -7.845115,3.73383 -13.381008,1.53829 C 81.603705,423.25158 74.791965,418.62481 68.501,414.18091 62.117914,409.67193 56.507343,405.7385 54.816624,400.17864 l -0.01185,-0.0399 -0.01693,-0.0382 c 0,0 -1.434446,-3.25356 -2.546302,-6.95442 -0.555927,-1.85044 -1.028026,-3.81127 -1.201723,-5.49612 -0.173697,-1.68486 -0.0023,-3.06969 0.46478,-3.74701 v 0 c 3.921685,-5.21402 7.94134,-14.20271 12.501062,-24.99054 2.709726,-2.90114 6.866821,-5.72587 10.425887,-8.09319 1.794795,-1.19382 3.435847,-2.27292 4.682321,-3.21723 0.623238,-0.47217 1.147785,-0.90908 1.554455,-1.32969 0.406673,-0.42061 0.724325,-0.81059 0.830375,-1.34085 l -0.04265,0.1371 c 4.305096,-10.04523 11.187442,-16.06174 17.293314,-20.89748 3.052937,-2.41787 5.910607,-4.53338 8.150057,-6.73134 2.23945,-2.19797 3.88093,-4.50874 4.34889,-7.28076 l 0.0129,-0.0765 -0.004,-0.0775 c -0.0678,-1.22086 1.18649,-3.57956 2.89869,-6.9111 1.71026,-3.32775 3.78445,-7.70422 5.07805,-13.42207 2.26106,-7.03443 0.28205,-15.78186 1.12352,-24.92375 0.84314,-9.15996 5.01728,-16.99482 19.62399,-25.83097 l 1.50604,-1.77732 c 0.50822,-0.81321 1.06657,-1.84652 1.69426,-3.04291 1.25539,-2.39275 2.7832,-5.43448 4.63256,-8.55625 3.69872,-6.24356 9.38697,-13.44632 15.84448,-15.71517 0.73723,-0.2482 -0.81699,-2.37562 -1.59474,-2.39025 z"
     id="path958"
     inkscape:connector-curvature="0"
     sodipodi:nodetypes="cccscccsccccccscccccsccccccsccscccssccsccsccccsccccccccsscccscsccccccc" />
  <path
     style="fill:none;fill-opacity:1;stroke:#000000;stroke-width:1;stroke-linecap:round;stroke-linejoin:miter;stroke-miterlimit:4.53000021;stroke-dasharray:none;stroke-opacity:1;opacity:1"
     d="M 131.96802,412.79231 C 162.77862,386.24569 164.01653,409.76628 202.11711,364.92587"
     id="path960"
     inkscape:connector-curvature="0"
     sodipodi:nodetypes="cc" />
  <path
     style="fill:none;fill-opacity:1;stroke:#000000;stroke-width:1;stroke-linecap:round;stroke-linejoin:miter;stroke-miterlimit:4.53000021;stroke-dasharray:none;stroke-opacity:1;opacity:1"
     d="M 181.14396,361.34964 C 182.4113,363.16639 219.26681,368.90542 230.00354,364.32518 278.60269,340.02679 288.72832,305.2571 285.12968,271.11863 286.51623,328.83388 254.58961,346.75567 230.50908,361.79748 222.10882,367.72263 181.14396,361.34964 181.14396,361.34964 Z"
     id="path962"
     inkscape:connector-curvature="0"
     sodipodi:nodetypes="ccccc" />
  <path
     style="color:#000000;font-style:normal;font-variant:normal;font-weight:normal;font-stretch:normal;font-size:medium;line-height:normal;font-family:sans-serif;font-variant-ligatures:normal;font-variant-position:normal;font-variant-caps:normal;font-variant-numeric:normal;font-variant-alternates:normal;font-feature-settings:normal;text-indent:0;text-align:start;text-decoration:none;text-decoration-line:none;text-decoration-style:solid;text-decoration-color:#000000;letter-spacing:normal;word-spacing:normal;text-transform:none;writing-mode:lr-tb;direction:ltr;text-orientation:mixed;dominant-baseline:auto;baseline-shift:baseline;text-anchor:start;white-space:normal;shape-padding:0;clip-rule:nonzero;display:inline;overflow:visible;visibility:visible;opacity:1;isolation:auto;mix-blend-mode:normal;color-interpolation:sRGB;color-interpolation-filters:linearRGB;solid-color:#000000;solid-opacity:1;vector-effect:none;fill:none;fill-opacity:1;fill-rule:nonzero;stroke:#000000;stroke-width:1;stroke-linecap:round;stroke-linejoin:round;stroke-miterlimit:4.53000021;stroke-dasharray:none;stroke-dashoffset:0;stroke-opacity:1;color-rendering:auto;image-rendering:auto;shape-rendering:auto;text-rendering:auto;enable-background:accumulate"
     d="M 215.55759,249.42673 C 210.04563,253.67066 201.54965,254.33925 196.01722,256.22902 193.75967,257.05291 191.84098,258.66835 190.33695,262.11849 188.85069,265.5279 187.67305,270.76922 186.60958,279.08446 185.17664,280.2526 184.85997,281.79925 185.52498,282.80575 185.87667,283.33803 186.52344,283.67546 187.20299,283.6087 187.7806,283.55195 188.3349,283.22202 188.82278,282.68116 222.08,284.77243 212.70951,259.72688 216.99558,253.84826 208.67617,255.30258 223.62046,282.28804 188.57025,281.2821 188.33501,281.26581 188.10764,281.3703 187.96668,281.55934 187.58539,282.07106 187.25393,282.21059 187.06725,282.22892 186.88057,282.24726 186.77983,282.18993 186.68168,282.04137 186.48539,281.74429 186.39835,280.91388 187.66202,280.00827 187.81882,279.89593 187.92174,279.72334 187.94603,279.53197 189.01235,271.09841 190.20644,265.88755 191.60807,262.67229 193.0097,259.45705 194.51919,258.25177 196.49249,257.53163 202.95386,255.59041 213.63241,253.34456 215.55759,249.42673 Z"
     id="path964"
     inkscape:connector-curvature="0"
     sodipodi:nodetypes="ccccccccccscccccc" />
  <path
     style="fill:none;fill-opacity:1;stroke:#000000;stroke-width:1;stroke-linecap:butt;stroke-linejoin:miter;stroke-miterlimit:4.53000021;stroke-dasharray:none;stroke-opacity:1;opacity:1"
     d="M 188.77506,270.01825 C 191.8011,258.87692 206.94154,264.7811 215.59078,255.54046"
     id="path967"
     inkscape:connector-curvature="0"
     sodipodi:nodetypes="cc" />
  <path
     style="color:#000000;font-style:normal;font-variant:normal;font-weight:normal;font-stretch:normal;font-size:medium;line-height:normal;font-family:sans-serif;font-variant-ligatures:normal;font-variant-position:normal;font-variant-caps:normal;font-variant-numeric:normal;font-variant-alternates:normal;font-feature-settings:normal;text-indent:0;text-align:start;text-decoration:none;text-decoration-line:none;text-decoration-style:solid;text-decoration-color:#000000;letter-spacing:normal;word-spacing:normal;text-transform:none;writing-mode:lr-tb;direction:ltr;text-orientation:mixed;dominant-baseline:auto;baseline-shift:baseline;text-anchor:start;white-space:normal;shape-padding:0;clip-rule:nonzero;display:inline;overflow:visible;visibility:visible;opacity:1;isolation:auto;mix-blend-mode:normal;color-interpolation:sRGB;color-interpolation-filters:linearRGB;solid-color:#000000;solid-opacity:1;vector-effect:none;fill:none;fill-opacity:1;fill-rule:nonzero;stroke:#000000;stroke-width:1;stroke-linecap:round;stroke-linejoin:miter;stroke-miterlimit:4.53000021;stroke-dasharray:none;stroke-dashoffset:0;stroke-opacity:1;color-rendering:auto;image-rendering:auto;shape-rendering:auto;text-rendering:auto;enable-background:accumulate"
     d="M 107.04562,353.13718 C 91.511543,361.96749 92.366045,367.11376 92.366045,367.11376 97.081244,360.31084 103.78371,356.53035 109.10651,353.27348 114.42932,350.0166 118.38372,346.84547 120.17018,342.8522 116.84012,346.13797 111.91336,350.36865 107.04562,353.13718 Z"
     id="path971"
     inkscape:connector-curvature="0"
     sodipodi:nodetypes="ccscc" />
  <path
     style="color:#000000;font-style:normal;font-variant:normal;font-weight:normal;font-stretch:normal;font-size:medium;line-height:normal;font-family:sans-serif;font-variant-ligatures:normal;font-variant-position:normal;font-variant-caps:normal;font-variant-numeric:normal;font-variant-alternates:normal;font-feature-settings:normal;text-indent:0;text-align:start;text-decoration:none;text-decoration-line:none;text-decoration-style:solid;text-decoration-color:#000000;letter-spacing:normal;word-spacing:normal;text-transform:none;writing-mode:lr-tb;direction:ltr;text-orientation:mixed;dominant-baseline:auto;baseline-shift:baseline;text-anchor:start;white-space:normal;shape-padding:0;clip-rule:nonzero;display:inline;overflow:visible;visibility:visible;opacity:1;isolation:auto;mix-blend-mode:normal;color-interpolation:sRGB;color-interpolation-filters:linearRGB;solid-color:#000000;solid-opacity:1;vector-effect:none;fill:none;fill-opacity:1;fill-rule:nonzero;stroke:#000000;stroke-width:1;stroke-linecap:round;stroke-linejoin:miter;stroke-miterlimit:4.53000021;stroke-dasharray:none;stroke-dashoffset:0;stroke-opacity:1;color-rendering:auto;image-rendering:auto;shape-rendering:auto;text-rendering:auto;enable-background:accumulate"
     d="M 78.979464,384.34159 C 78.055211,384.34159 77.135712,384.63175 76.3201,385.25491 75.232618,386.08581 73.344829,388.66455 72.7718,390.73375 75.04606,388.38977 76.126543,387.17362 77.161985,386.35643 77.957717,385.74846 78.727687,385.61089 79.622979,385.79449 81.413566,386.1617 83.641684,388.08651 85.669174,390.69448 87.696664,393.30246 89.55783,396.54443 90.881609,399.37837 92.218293,401.5667 93.407346,403.88794 93.785719,406.71668 93.833557,405.97517 94.11332,403.90624 93.74002,402.75776 93.366719,401.60928 92.819179,400.25001 92.137834,398.79139 90.775143,395.87415 88.879708,392.56544 86.763589,389.84347 84.647469,387.12147 82.344866,384.9371 79.901577,384.43603 79.596165,384.37341 79.287549,384.3415 78.979464,384.34159 Z"
     id="path973"
     inkscape:connector-curvature="0"
     sodipodi:nodetypes="cscccccccsccc" />
  <path
     style="color:#000000;font-style:normal;font-variant:normal;font-weight:normal;font-stretch:normal;font-size:medium;line-height:normal;font-family:sans-serif;font-variant-ligatures:normal;font-variant-position:normal;font-variant-caps:normal;font-variant-numeric:normal;font-variant-alternates:normal;font-feature-settings:normal;text-indent:0;text-align:start;text-decoration:none;text-decoration-line:none;text-decoration-style:solid;text-decoration-color:#000000;letter-spacing:normal;word-spacing:normal;text-transform:none;writing-mode:lr-tb;direction:ltr;text-orientation:mixed;dominant-baseline:auto;baseline-shift:baseline;text-anchor:start;white-space:normal;shape-padding:0;clip-rule:nonzero;display:inline;overflow:visible;visibility:visible;opacity:1;isolation:auto;mix-blend-mode:normal;color-interpolation:sRGB;color-interpolation-filters:linearRGB;solid-color:#000000;solid-opacity:1;vector-effect:none;fill:none;fill-opacity:1;fill-rule:nonzero;stroke:#000000;stroke-width:1;stroke-linecap:round;stroke-linejoin:miter;stroke-miterlimit:4.53000021;stroke-dasharray:none;stroke-dashoffset:0;stroke-opacity:1;color-rendering:auto;image-rendering:auto;shape-rendering:auto;text-rendering:auto;enable-background:accumulate"
     d="M 70.723573,395.11087 C 69.129079,397.08787 67.841823,399.86347 68.872614,402.38397 70.203435,404.74511 73.114823,405.29496 75.539456,405.8504 78.902266,406.55836 82.08461,408.02318 84.828641,410.0893 82.563915,406.56496 78.276865,405.38161 74.495395,404.25474 72.668166,403.69287 70.337132,403.11347 69.837472,400.95433 69.182792,398.95667 70.340089,397.03352 70.723573,395.11087 Z"
     id="path975"
     inkscape:connector-curvature="0" />
  <path
     style="color:#000000;font-style:normal;font-variant:normal;font-weight:normal;font-stretch:normal;font-size:medium;line-height:normal;font-family:sans-serif;font-variant-ligatures:normal;font-variant-position:normal;font-variant-caps:normal;font-variant-numeric:normal;font-variant-alternates:normal;font-feature-settings:normal;text-indent:0;text-align:start;text-decoration:none;text-decoration-line:none;text-decoration-style:solid;text-decoration-color:#000000;letter-spacing:normal;word-spacing:normal;text-transform:none;writing-mode:lr-tb;direction:ltr;text-orientation:mixed;dominant-baseline:auto;baseline-shift:baseline;text-anchor:start;white-space:normal;shape-padding:0;clip-rule:nonzero;display:inline;overflow:visible;visibility:visible;opacity:1;isolation:auto;mix-blend-mode:normal;color-interpolation:sRGB;color-interpolation-filters:linearRGB;solid-color:#000000;solid-opacity:1;vector-effect:none;fill:none;fill-opacity:1;fill-rule:nonzero;stroke:#000000;stroke-width:1;stroke-linecap:round;stroke-linejoin:miter;stroke-miterlimit:4.53000021;stroke-dasharray:none;stroke-dashoffset:0;stroke-opacity:1;color-rendering:auto;image-rendering:auto;shape-rendering:auto;text-rendering:auto;enable-background:accumulate"
     d="M 98.066557,411.32777 C 98.066557,411.32777 99.418748,410.9095 99.480025,406.98772 99.480025,406.98772 99.146505,397.41155 92.210615,391.05365 96.998533,397.76163 99.413096,405.36457 98.066557,411.32777 Z"
     id="path977"
     inkscape:connector-curvature="0"
     sodipodi:nodetypes="cccc" />
  <path
     style="color:#000000;font-style:normal;font-variant:normal;font-weight:normal;font-stretch:normal;font-size:medium;line-height:normal;font-family:sans-serif;font-variant-ligatures:normal;font-variant-position:normal;font-variant-caps:normal;font-variant-numeric:normal;font-variant-alternates:normal;font-feature-settings:normal;text-indent:0;text-align:start;text-decoration:none;text-decoration-line:none;text-decoration-style:solid;text-decoration-color:#000000;letter-spacing:normal;word-spacing:normal;text-transform:none;writing-mode:lr-tb;direction:ltr;text-orientation:mixed;dominant-baseline:auto;baseline-shift:baseline;text-anchor:start;white-space:normal;shape-padding:0;clip-rule:nonzero;display:inline;overflow:visible;visibility:visible;opacity:1;isolation:auto;mix-blend-mode:normal;color-interpolation:sRGB;color-interpolation-filters:linearRGB;solid-color:#000000;solid-opacity:1;vector-effect:none;fill:none;fill-opacity:1;fill-rule:nonzero;stroke:#000000;stroke-width:1;stroke-linecap:round;stroke-linejoin:miter;stroke-miterlimit:4.53000021;stroke-dasharray:none;stroke-dashoffset:0;stroke-opacity:1;color-rendering:auto;image-rendering:auto;shape-rendering:auto;text-rendering:auto;enable-background:accumulate"
     d="M 255.45752,181.83555 C 255.10189,181.85025 254.81515,182.13187 254.79404,182.48719 253.2541,203.34617 267.39453,219.7248 267.39453,219.7248 268.07229,220.45488 270.16181,221.92162 271.34282,221.84723 270.48219,221.31915 269.79267,220.54115 269.49299,220.18916 269.49299,220.18916 254.69074,202.71919 256.17687,182.58908 256.21354,182.17232 255.87554,181.81825 255.45752,181.83555 Z"
     id="path979"
     inkscape:connector-curvature="0"
     sodipodi:nodetypes="ccccccc" />
  <path
     style="fill:none;fill-opacity:1;stroke:#000000;stroke-width:1;stroke-linecap:butt;stroke-linejoin:miter;stroke-opacity:1;opacity:1;stroke-miterlimit:4.53000021;stroke-dasharray:none"
     d="M 231.53646,158.86138 C 221.61377,156.09219 213.33262,168.30754 213.33262,168.30754 213.33262,168.30754 205.15346,169.42553 200.17866,170.98246 203.18251,174.53439 207.24415,179.91873 207.24415,179.91873 207.24415,179.91873 204.45345,186.72604 204.41188,186.75375 187.77924,197.44617 188.16977,231.56882 188.16977,231.56882 202.42631,221.27242 224.66552,224.49203 223.87349,202.7112 L 226.73325,208.08409 C 228.29105,205.38045 228.94245,210.83447 231.40665,199.97317 231.40665,199.97317 229.15802,191.88535 226.18791,190.10328 226.18791,190.10328 226.19033,173.11793 231.53646,158.86138 Z"
     id="path981"
     inkscape:connector-curvature="0"
     sodipodi:nodetypes="ccccccccccc" />
  <path
     style="opacity:1;fill:none;fill-opacity:1;stroke:#000000;stroke-width:1;stroke-linecap:butt;stroke-linejoin:miter;stroke-miterlimit:4.53000021;stroke-dasharray:none;stroke-opacity:1"
     d="m 156.98186,198.08095 c 2.88605,5.95862 9.51128,13.57327 9.51128,13.57327 4.47399,1.75068 20.23022,-3.11234 23.73159,-13.22745 0.77808,-6.22468 -5.05755,-4.86304 -13.42196,-15.17266"
     id="path987"
     inkscape:connector-curvature="0"
     sodipodi:nodetypes="cccc" />
  <path
     style="fill:none;fill-opacity:0;stroke:#000000;stroke-width:1;stroke-linecap:round;stroke-linejoin:miter;stroke-miterlimit:4.53000021;stroke-dasharray:none;stroke-opacity:1;opacity:1"
     d="M 164.86297,210.16052 C 164.86297,210.16052 167.8043,224.74457 170.74563,225.60245 178.46659,227.19567 188.51612,218.61681 188.51612,218.61681"
     id="path993"
     inkscape:connector-curvature="0"
     sodipodi:nodetypes="ccc" />
  <path
     style="fill:none;fill-opacity:1;stroke:#000000;stroke-width:1;stroke-linecap:round;stroke-linejoin:miter;stroke-miterlimit:4.53000021;stroke-dasharray:none;stroke-opacity:1;opacity:1"
     d="M 189.36685,194.0148 C 189.61196,192.66669 194.76641,195.20879 194.76641,195.20879"
     id="path995"
     inkscape:connector-curvature="0"
     sodipodi:nodetypes="cc" />
  <path
     style="color:#000000;font-style:normal;font-variant:normal;font-weight:normal;font-stretch:normal;font-size:medium;line-height:normal;font-family:sans-serif;font-variant-ligatures:normal;font-variant-position:normal;font-variant-caps:normal;font-variant-numeric:normal;font-variant-alternates:normal;font-feature-settings:normal;text-indent:0;text-align:start;text-decoration:none;text-decoration-line:none;text-decoration-style:solid;text-decoration-color:#000000;letter-spacing:normal;word-spacing:normal;text-transform:none;writing-mode:lr-tb;direction:ltr;text-orientation:mixed;dominant-baseline:auto;baseline-shift:baseline;text-anchor:start;white-space:normal;shape-padding:0;clip-rule:nonzero;display:inline;overflow:visible;visibility:visible;opacity:1;isolation:auto;mix-blend-mode:normal;color-interpolation:sRGB;color-interpolation-filters:linearRGB;solid-color:#000000;solid-opacity:1;vector-effect:none;fill:none;fill-opacity:1;fill-rule:nonzero;stroke:#000000;stroke-width:1;stroke-linecap:round;stroke-linejoin:miter;stroke-miterlimit:4.53000021;stroke-dasharray:none;stroke-dashoffset:0;stroke-opacity:1;color-rendering:auto;image-rendering:auto;shape-rendering:auto;text-rendering:auto;enable-background:accumulate"
     d="M 204.39815,185.8818 C 204.26182,185.88561 204.12833,185.92159 204.00851,185.98674 194.97084,190.73943 190.90363,202.22169 188.97714,212.39826 187.05066,222.57483 187.30353,231.59267 187.30353,231.59267 L 187.3516,233.33297 188.71107,232.24567 C 196.32353,226.1557 204.20379,225.04445 210.89354,222.36411 214.23842,221.02395 217.29293,219.25967 219.70302,216.24277 222.11312,213.22588 223.85006,209.00265 224.73132,202.83389 224.92145,201.67032 223.15898,201.41855 223.01572,202.58882 222.16378,208.5524 221.21427,211.05578 219.04224,213.77466 216.87022,216.49355 214.1402,218.08732 210.94229,219.3686 204.92081,221.78118 197.26612,222.97665 189.72628,228.43942 189.75208,225.41341 189.97901,218.70054 191.37348,211.33433 193.26001,201.36884 196.62072,191.83016 204.81519,187.52089 205.63998,187.10209 205.32281,185.85549 204.39815,185.8818 Z"
     id="path997"
     inkscape:connector-curvature="0"
     sodipodi:nodetypes="ccsccccccccccscc" />
  <path
     style="fill:none;fill-opacity:1;stroke:#000000;stroke-width:1;stroke-linecap:round;stroke-linejoin:miter;stroke-miterlimit:4.53000021;stroke-dasharray:none;stroke-opacity:1;opacity:1"
     d="M 230.97957,158.60149 C 213.64767,152.44867 202.46859,194.65186 202.46859,194.65186 207.23486,197.16499 217.57709,192.50025 217.57709,192.50025 M 217.1884,177.40555 C 212.74157,195.20411 226.29996,202.19124 226.73325,208.08409 229.33304,207.13084 231.40665,199.97317 231.40665,199.97317"
     id="path999"
     inkscape:connector-curvature="0"
     sodipodi:nodetypes="cccccc" />
  <path
     style="fill:none;fill-opacity:1;stroke:#000000;stroke-width:1;stroke-linecap:butt;stroke-linejoin:miter;stroke-opacity:1;opacity:1;stroke-miterlimit:4.53000021;stroke-dasharray:none"
     d="M 253.50564,157.58435 C 254.60824,158.58194 255.48546,182.53817 255.48546,182.53817 280.40769,190.09884 257.829,219.55996 326.70178,238.59473 326.70178,238.59473 319.16122,225.60105 323.08157,221.68069 323.08157,221.68069 351.1317,248.1219 358.13234,260.16298 358.13234,260.16298 361.80826,248.25522 359.84809,241.53462 L 368.42695,251.58414 370.87806,244.96616 C 389.35971,265.68801 408.3799,301.83172 408.3799,301.83172 553.99293,556.09446 460.1302,302.39678 460.1302,302.39678 460.1302,302.39678 444.06649,244.41336 417.46411,235.73259 416.07393,228.9955 394.54052,198.21926 371.85849,195.69902 371.85849,195.69902 316.79131,150.58372 253.50564,157.58435 Z"
     id="path1001"
     inkscape:connector-curvature="0"
     sodipodi:nodetypes="ccccccccccccc" />
  <path
     style="color:#000000;font-style:normal;font-variant:normal;font-weight:normal;font-stretch:normal;font-size:medium;line-height:normal;font-family:sans-serif;font-variant-ligatures:normal;font-variant-position:normal;font-variant-caps:normal;font-variant-numeric:normal;font-variant-alternates:normal;font-feature-settings:normal;text-indent:0;text-align:start;text-decoration:none;text-decoration-line:none;text-decoration-style:solid;text-decoration-color:#000000;letter-spacing:normal;word-spacing:normal;text-transform:none;writing-mode:lr-tb;direction:ltr;text-orientation:mixed;dominant-baseline:auto;baseline-shift:baseline;text-anchor:start;white-space:normal;shape-padding:0;clip-rule:nonzero;display:inline;overflow:visible;visibility:visible;opacity:1;isolation:auto;mix-blend-mode:normal;color-interpolation:sRGB;color-interpolation-filters:linearRGB;solid-color:#000000;solid-opacity:1;vector-effect:none;fill:none;fill-opacity:1;fill-rule:nonzero;stroke:#000000;stroke-width:1;stroke-linecap:round;stroke-linejoin:miter;stroke-miterlimit:4.53000021;stroke-dasharray:none;stroke-dashoffset:0;stroke-opacity:1;color-rendering:auto;image-rendering:auto;shape-rendering:auto;text-rendering:auto;enable-background:accumulate"
     d="M 243.79031,135.54887 243.09501,136.49772 C 243.09501,136.49772 222.51848,164.36383 225.32642,190.19684 L 225.3596,190.50285 225.57827,190.7195 C 231.76088,196.83601 231.72805,207.19091 231.72805,207.19091 231.72805,208.5142 230.99697,210.72133 230.99697,210.72133 230.99697,210.72133 233.53686,208.64691 233.46124,207.2102 233.46124,207.2102 233.64709,196.54719 227.02779,189.73917 224.76489,167.54356 241.28632,144.03809 244.55019,139.28497 255.74255,157.03037 256.75355,182.27301 252.0409,205.79115 252.0409,205.79115 266.0086,165.55795 244.49036,136.49434 Z"
     id="path1003"
     inkscape:connector-curvature="0"
     sodipodi:nodetypes="ccccccccccccc" />
  <path
     style="fill:none;fill-opacity:1;stroke:#000000;stroke-width:1;stroke-linecap:butt;stroke-linejoin:miter;stroke-miterlimit:4.53000021;stroke-dasharray:none;stroke-opacity:1;opacity:1"
     d="M 200.17866,170.98246 C 200.17866,170.98246 206.45493,169.17396 213.38769,168.654"
     id="path1005"
     inkscape:connector-curvature="0"
     sodipodi:nodetypes="cc" />
  <path
     style="fill:none;fill-opacity:1;stroke:#000000;stroke-width:1;stroke-linecap:butt;stroke-linejoin:miter;stroke-miterlimit:4.53000021;stroke-dasharray:none;stroke-opacity:1;opacity:1"
     d="M 255.48546,182.53817 C 275.09428,186.21483 265.73295,225.36022 327.50071,239.08638 327.50071,239.08638 318.91471,230.01444 323.08157,221.68069"
     id="path1007"
     inkscape:connector-curvature="0"
     sodipodi:nodetypes="ccc" />
  <path
     style="fill:none;fill-opacity:1;stroke:#000000;stroke-width:1;stroke-linecap:butt;stroke-linejoin:miter;stroke-miterlimit:4.53000021;stroke-dasharray:none;stroke-opacity:1;opacity:1"
     d="M 307.39452,200.111 C 304.94342,208.93497 334.35665,227.31822 358.13234,260.16298 358.13234,260.16298 363.27963,247.90749 359.84809,241.53462 363.03453,242.76017 364.7503,250.11347 368.42695,251.58414 368.42695,251.58414 371.36828,246.68193 371.61339,240.30906"
     id="path1009"
     inkscape:connector-curvature="0"
     sodipodi:nodetypes="ccccc" />
  <path
     style="fill:none;fill-opacity:1;stroke:#000000;stroke-width:1;stroke-linecap:butt;stroke-linejoin:miter;stroke-miterlimit:4.53000021;stroke-dasharray:none;stroke-opacity:1;opacity:1"
     d="M 370.87806,244.96616 C 382.88682,256.09548 462.91232,395.64626 464.8997,394.05635"
     id="path1011"
     inkscape:connector-curvature="0"
     sodipodi:nodetypes="cc" />
  <path
     style="fill:none;fill-opacity:1;stroke:#000000;stroke-width:1;stroke-linecap:round;stroke-linejoin:miter;stroke-miterlimit:4.53000021;stroke-dasharray:none;stroke-opacity:1;opacity:1"
     d="M 253.96069,157.53184 C 308.86536,148.70787 383.13375,196.25924 381.90819,210.96585"
     id="path1013"
     inkscape:connector-curvature="0"
     sodipodi:nodetypes="cc" />
  <path
     style="color:#000000;font-style:normal;font-variant:normal;font-weight:normal;font-stretch:normal;font-size:medium;line-height:normal;font-family:sans-serif;font-variant-ligatures:normal;font-variant-position:normal;font-variant-caps:normal;font-variant-numeric:normal;font-variant-alternates:normal;font-feature-settings:normal;text-indent:0;text-align:start;text-decoration:none;text-decoration-line:none;text-decoration-style:solid;text-decoration-color:#000000;letter-spacing:normal;word-spacing:normal;text-transform:none;writing-mode:lr-tb;direction:ltr;text-orientation:mixed;dominant-baseline:auto;baseline-shift:baseline;text-anchor:start;white-space:normal;shape-padding:0;clip-rule:nonzero;display:inline;overflow:visible;visibility:visible;opacity:1;isolation:auto;mix-blend-mode:normal;color-interpolation:sRGB;color-interpolation-filters:linearRGB;solid-color:#000000;solid-opacity:1;vector-effect:none;fill:none;fill-opacity:1;fill-rule:nonzero;stroke:#000000;stroke-width:1;stroke-linecap:butt;stroke-linejoin:miter;stroke-miterlimit:4.53000021;stroke-dasharray:none;stroke-dashoffset:0;stroke-opacity:1;color-rendering:auto;image-rendering:auto;shape-rendering:auto;text-rendering:auto;enable-background:accumulate"
     d="M 374.56312,195.69001 C 373.95985,195.65398 372.44246,195.65597 371.85849,195.69902 L 371.96554,197.84967 C 376.07679,197.54737 382.1039,199.61515 387.36549,203.16006 392.62707,206.70494 398.04251,211.69084 402.87137,217.0491 407.70023,222.40737 411.94601,228.14069 414.88848,233.16325 416.36941,235.56908 417.78501,239.17138 419.95971,246.53802 420.33122,243.49172 417.72001,234.19648 416.14929,231.73114 413.14228,226.59841 408.84752,220.80427 403.95699,215.37758 399.06647,209.95089 393.58404,204.89455 388.18175,201.25485 383.45475,198.07013 378.78611,195.94221 374.56312,195.69011 Z"
     id="path1015"
     inkscape:connector-curvature="0"
     sodipodi:nodetypes="ccccscccsscc" />
  <path
     style="fill:none;fill-opacity:1;stroke:#000000;stroke-width:1;stroke-linecap:butt;stroke-linejoin:miter;stroke-miterlimit:4.53000021;stroke-dasharray:none;stroke-opacity:1;opacity:1"
     d="M 271.44605,329.86885 C 289.26862,345.96329 299.13308,360.86816 304.20179,373.89373 313.08751,399.64267 289.57559,443.01883 281.89818,462.38706 300.98565,428.25468 313.83022,396.70416 306.63486,372.73558 300.1585,354.34336 283.66698,337.65639 272.60817,327.95439 271.44447,331.4068 271.34445,328.97957 271.44605,329.86885 Z"
     id="path1017"
     inkscape:connector-curvature="0"
     sodipodi:nodetypes="cccccc" />
  <path
     inkscape:connector-curvature="0"
     id="path1019"
     d="m 154.11133,22.380859 c -2.59978,2.542013 -5.19904,5.082986 -7.79883,7.625 3.81834,10.178863 9.40853,19.853965 10.38867,30.875 4.92567,27.959981 -2.56967,58.205201 -22.06836,79.197261 -0.79955,0.87487 -1.60978,1.73554 -2.42969,2.58204 5.09585,3.17781 12.21848,8.84726 12.40626,10.44336 -0.27509,2.20049 -7.00208,2.33872 -8.92774,2.20117 -1.65055,-0.13754 -6.6025,2.75071 -8.39062,0.6875 0,0 -2.12103,-2.24668 -4.26758,-4.78711 -25.157817,21.21639 -57.595732,31.8934 -91.275393,37.73437 -2.199016,4.94878 -1.616959,7.97265 -2.425781,11.95899 37.643297,9.9926 78.879364,15.20715 116.365234,1.76367 26.66119,-9.29577 49.09408,-31.97299 54.33008,-60.22852 7.05194,-34.57141 -8.44515,-70.247087 -33.08008,-94.228512 -4.27521,-8.60818 -8.55096,-17.216039 -12.82617,-25.824219 z"
     style="opacity:1;fill:none;fill-opacity:1;stroke:#000000;stroke-width:1;stroke-linecap:butt;stroke-linejoin:miter;stroke-miterlimit:4.53000021;stroke-dasharray:none;stroke-opacity:1" />
  <path
     style="color:#000000;font-style:normal;font-variant:normal;font-weight:normal;font-stretch:normal;font-size:medium;line-height:normal;font-family:sans-serif;font-variant-ligatures:normal;font-variant-position:normal;font-variant-caps:normal;font-variant-numeric:normal;font-variant-alternates:normal;font-feature-settings:normal;text-indent:0;text-align:start;text-decoration:none;text-decoration-line:none;text-decoration-style:solid;text-decoration-color:#000000;letter-spacing:normal;word-spacing:normal;text-transform:none;writing-mode:lr-tb;direction:ltr;text-orientation:mixed;dominant-baseline:auto;baseline-shift:baseline;text-anchor:start;white-space:normal;shape-padding:0;clip-rule:nonzero;display:inline;overflow:visible;visibility:visible;opacity:1;isolation:auto;mix-blend-mode:normal;color-interpolation:sRGB;color-interpolation-filters:linearRGB;solid-color:#000000;solid-opacity:1;vector-effect:none;fill:none;fill-opacity:1;fill-rule:nonzero;stroke:#000000;stroke-width:1;stroke-linecap:butt;stroke-linejoin:miter;stroke-miterlimit:4.53000021;stroke-dasharray:none;stroke-dashoffset:0;stroke-opacity:1;color-rendering:auto;image-rendering:auto;shape-rendering:auto;text-rendering:auto;enable-background:accumulate"
     d="M 172.93938,62.745178 C 224.54929,160.84107 136.03093,213.38902 52.297505,195.25927 145.26646,208.36947 215.61129,154.75771 172.93938,62.745178 Z"
     id="path1021"
     inkscape:connector-curvature="0"
     sodipodi:nodetypes="ccc" />
  <path
     style="opacity:1;fill:none;stroke:#000000;stroke-width:1;stroke-linecap:butt;stroke-linejoin:miter;stroke-miterlimit:4.53000021;stroke-dasharray:none;stroke-opacity:1"
     d="m 149.54247,129.15632 c 8.82397,-1.47066 15.19684,1.47065 12.50062,9.8044"
     id="path1023"
     inkscape:connector-curvature="0"
     sodipodi:nodetypes="cc" />
  <path
     style="opacity:1;fill:none;stroke:#000000;stroke-width:1;stroke-linecap:butt;stroke-linejoin:miter;stroke-miterlimit:4.53000021;stroke-dasharray:none;stroke-opacity:1"
     d="m 154.19957,107.34152 7.59841,8.08863"
     id="path1025"
     inkscape:connector-curvature="0" />
  <path
     style="opacity:1;fill:none;stroke:#000000;stroke-width:1;stroke-linecap:butt;stroke-linejoin:miter;stroke-miterlimit:4.53000021;stroke-dasharray:none;stroke-opacity:1"
     d="m 162.77843,104.6453 -9.80442,10.29463"
     id="path1027"
     inkscape:connector-curvature="0" />
  <path
     style="opacity:1;fill:none;stroke:#000000;stroke-width:1;stroke-linecap:butt;stroke-linejoin:miter;stroke-miterlimit:4.53000021;stroke-dasharray:none;stroke-opacity:1"
     d="m 168.17085,106.60618 8.82397,10.04952"
     id="path1029"
     inkscape:connector-curvature="0" />
  <path
     style="opacity:1;fill:none;stroke:#000000;stroke-width:1;stroke-linecap:butt;stroke-linejoin:miter;stroke-miterlimit:4.53000021;stroke-dasharray:none;stroke-opacity:1"
     d="m 166.20997,114.93993 13.23595,-9.8044"
     id="path1031"
     inkscape:connector-curvature="0" />
  <path
     sodipodi:nodetypes="ccccc"
     style="opacity:1;fill:none;fill-opacity:1;stroke:#000000;stroke-width:1;stroke-linecap:butt;stroke-linejoin:miter;stroke-miterlimit:4.53000021;stroke-dasharray:none;stroke-opacity:1"
     d="m 21.128551,198.62644 c 1.116262,-4.35577 3.166522,-9.85958 3.166522,-9.85958 l 7.452719,0.17332 -2.473245,12.11273 z"
     id="path1035"
     inkscape:connector-curvature="0" />
  <path
     style="opacity:1;fill:none;fill-opacity:1;stroke:#ff0000;stroke-width:1;stroke-linecap:butt;stroke-linejoin:miter;stroke-miterlimit:4.53000021;stroke-dasharray:none;stroke-opacity:1"
     d="m 124.25586,152.64258 c -1.95691,2.67706 -2.16867,5.32071 1.33984,5.51562 8.08863,-3.92176 -1.71469,12.12795 3.67774,12.37305 6.37287,1.71578 0.9806,-8.57919 5.39258,-11.27539 2.94133,-1.71577 9.36241,-2.51956 13.03906,-3.5 3.43155,-2.94132 2.9414,-7.35352 2.9414,-7.35352 0,0 -2.25142,-3.00201 -5.11328,-2.93164 -0.40883,0.0101 -0.83082,0.0831 -1.25976,0.23633 l -5.6211,1.51367"
     id="path1037"
     inkscape:connector-curvature="0"
     sodipodi:nodetypes="ccccccccc" />
  <path
     style="opacity:1;fill:none;fill-opacity:1;stroke:#000000;stroke-width:1;stroke-linecap:butt;stroke-linejoin:miter;stroke-miterlimit:4.53000021;stroke-dasharray:none;stroke-opacity:1"
     d="m 139.89888,23.593792 8.66595,-14.212162 5.54621,12.998929 -7.79936,7.626038 z"
     id="path1039"
     inkscape:connector-curvature="0" />
  <path
     style="opacity:1;fill:none;stroke:#000000;stroke-width:1;stroke-linecap:butt;stroke-linejoin:miter;stroke-miterlimit:4.53000021;stroke-dasharray:none;stroke-opacity:1"
     d="M 29.321326,200.89918 C 182.24226,242.6049 245.23452,134.92865 166.93663,48.205091"
     id="path1041"
     inkscape:connector-curvature="0"
     sodipodi:nodetypes="cc" />
  <path
     style="fill:none;fill-opacity:1;stroke:#000000;stroke-width:1;stroke-linecap:butt;stroke-linejoin:miter;stroke-miterlimit:4.53000021;stroke-dasharray:none;stroke-opacity:1;opacity:1"
     d="M 118.64091,144.20397 C 117.7365,145.9239 127.29142,155.99155 127.29142,155.99155 129.07954,158.05476 134.03125,155.16628 135.6818,155.30382 137.60746,155.44137 144.33441,155.30382 144.6095,153.10333 144.33441,150.76501 129.1657,139.67648 127.30957,140.50277"
     id="path1047"
     inkscape:connector-curvature="0"
     sodipodi:nodetypes="ccccc" />
  <path
     style="fill:none;fill-opacity:1;stroke:#000000;stroke-width:1;stroke-linecap:butt;stroke-linejoin:miter;stroke-miterlimit:4.53000021;stroke-dasharray:none;stroke-opacity:1;opacity:1"
     d="M 118.64091,144.20397 88.879173,104.08397 127.88067,140.36218 C 128.26972,143.57179 119.0786,144.8848 118.64091,144.20397 Z"
     id="path1049"
     inkscape:connector-curvature="0"
     sodipodi:nodetypes="cccc" />
  <path
     style="color:#000000;font-style:normal;font-variant:normal;font-weight:normal;font-stretch:normal;font-size:medium;line-height:normal;font-family:sans-serif;font-variant-ligatures:normal;font-variant-position:normal;font-variant-caps:normal;font-variant-numeric:normal;font-variant-alternates:normal;font-feature-settings:normal;text-indent:0;text-align:start;text-decoration:none;text-decoration-line:none;text-decoration-style:solid;text-decoration-color:#000000;letter-spacing:normal;word-spacing:normal;text-transform:none;writing-mode:lr-tb;direction:ltr;text-orientation:mixed;dominant-baseline:auto;baseline-shift:baseline;text-anchor:start;white-space:normal;shape-padding:0;clip-rule:nonzero;display:inline;overflow:visible;visibility:visible;opacity:1;isolation:auto;mix-blend-mode:normal;color-interpolation:sRGB;color-interpolation-filters:linearRGB;solid-color:#000000;solid-opacity:1;vector-effect:none;fill:none;fill-opacity:1;fill-rule:nonzero;stroke:#000000;stroke-width:1;stroke-linecap:round;stroke-linejoin:miter;stroke-miterlimit:4.53000021;stroke-dasharray:none;stroke-dashoffset:0;stroke-opacity:1;color-rendering:auto;image-rendering:auto;shape-rendering:auto;text-rendering:auto;enable-background:accumulate"
     d="M 134.51463,385.55091 C 134.72353,387.61644 133.89241,388.80641 133.0771,389.60515 131.66106,391.02152 130.75581,390.40107 130.75964,391.67971 131.48715,392.78578 133.41748,391.07597 133.41748,391.07597 134.92106,389.77507 135.37376,387.19545 134.51463,385.55091 Z"
     id="path1051"
     inkscape:connector-curvature="0"
     sodipodi:nodetypes="ccccc" />
  <path
     style="fill:none;stroke:#000000;stroke-width:1;stroke-linecap:round;stroke-linejoin:miter;stroke-miterlimit:4.53000021;stroke-dasharray:none;stroke-opacity:1;opacity:1"
     d="M 417.46411,235.73259 C 464.34691,255.38432 490.95452,425.6565 491.89384,410.12044"
     id="path1053"
     inkscape:connector-curvature="0"
     sodipodi:nodetypes="cc" />
  <path
     style="fill:none;fill-opacity:1;stroke:#000000;stroke-width:1;stroke-linecap:butt;stroke-linejoin:miter;stroke-opacity:1;opacity:1;stroke-miterlimit:4.53000021;stroke-dasharray:none"
     d="M 370.54026,240.34398 C 370.54026,240.34398 370.91484,236.45226 369.95753,233.49708 369.95753,233.49708 372.41327,236.01524 372.66301,240.42721 Z"
     id="path1055"
     inkscape:connector-curvature="0"
     sodipodi:nodetypes="cccc" />
  <path
     style="fill:none;fill-opacity:1;stroke:#000000;stroke-width:1;stroke-linecap:butt;stroke-linejoin:miter;stroke-opacity:1;opacity:1;stroke-miterlimit:4.53000021;stroke-dasharray:none"
     d="M 308.38266,200.42306 C 308.38266,200.42306 309.29117,197.30138 311.62947,195.87198 311.62947,195.87198 307.96474,195.88931 306.3958,199.86811 Z"
     id="path1057"
     inkscape:connector-curvature="0"
     sodipodi:nodetypes="cccc" />
  <path
     style="fill:none;fill-opacity:1;stroke:#000000;stroke-width:1;stroke-linecap:butt;stroke-linejoin:miter;stroke-opacity:1;opacity:1;stroke-miterlimit:4.53000021;stroke-dasharray:none"
     d="M 216.51145,177.25244 C 216.64134,176.79785 217.32435,175.65619 218.54298,174.9678 L 217.868,177.54374 Z"
     id="path1059"
     inkscape:connector-curvature="0"
     sodipodi:nodetypes="cccc" />
  <path
     style="fill:none;fill-opacity:1;stroke:#000000;stroke-width:1;stroke-linecap:butt;stroke-linejoin:miter;stroke-opacity:1;opacity:1;stroke-miterlimit:4.53000021;stroke-dasharray:none"
     d="M 380.8936,210.46055 C 380.92558,211.16789 380.20497,222.42825 382.47318,225.07092 381.57999,217.27582 382.72737,215.44308 382.97098,210.5576 Z"
     id="path1061"
     inkscape:connector-curvature="0"
     sodipodi:nodetypes="cccc" />
  <rect
     style="fill:none;fill-opacity:1;stroke:#000000;stroke-width:11.80813122;stroke-miterlimit:4;stroke-dasharray:none;stroke-opacity:1;opacity:1;"
     id="rect1515"
     width="489.25992"
     height="471.88773"
     x="5.9040656"
     y="5.9040656" />
</svg>
